<svg xmlns="http://www.w3.org/2000/svg" viewBox="0 0 333.18 332.91"><defs><style>.cls-1{fill:#fff;}</style></defs><title>Asset 3</title><g id="Layer_2" data-name="Layer 2"><g id="Layer_1-2" data-name="Layer 1"><path class="cls-1" d="M166.6,332.9C75.53,334.05,0,257.88,0,166.52,0,75,75.45.93,164.32,0,260-1,333.24,77.74,333.18,166.62,333.11,257.65,257.52,334.15,166.6,332.9Zm75.16-69.36c-1.59-29.07-14-51.79-39.7-65.49-28.05-14.93-55.8-12.43-81.23,6.6-19.35,14.49-28.54,34.67-29.34,58.89ZM85,102.23a6.76,6.76,0,0,1-.26.8c-.43.66-.88,1.31-1.3,2a29.14,29.14,0,0,0-4.12,22.08c3,14.19,16.25,23.73,31.18,22.46,13.91-1.19,25.48-13.66,25.86-27.79a28.05,28.05,0,0,0-4.5-16.23c-.62-1-1.17-2-2-3.37h19.63V81.4H65.79v20.83Zm163.79,2c.61-.23.91-.37,1.23-.46,5.33-1.47,10.66-3,16-4.39,1.53-.4,2-1,1.54-2.61-1.27-4.69-2.38-9.42-3.62-14.11-1.05-4-1.09-4-5-3l-.82.22q-32.83,9-65.67,17.93c-4.39,1.2-8.77,2.48-13.56,3.84,1.7,6.22,3.32,12.25,5.06,18.26.12.41,1.16.86,1.7.78,1.89-.27,3.75-.76,5.62-1.19,1.41-.32,2.81-.67,4.5-1.07-.11,10.38,3.66,18.68,11.54,25.12,8.2,6.71,17.58,7.22,27.09,4.58a25.47,25.47,0,0,0,16.9-15.38C255.31,123.05,254.6,113.4,248.82,104.21Z"/></g></g></svg>