<svg xmlns="http://www.w3.org/2000/svg" viewBox="0 0 558 447"><defs><style>.cls-1{fill:#fff;}</style></defs><title>Asset 1</title><g id="Layer_2" data-name="Layer 2"><g id="Layer_1-2" data-name="Layer 1"><path class="cls-1" d="M279,447H4.69c-1.17,0-2.34-.07-3.5,0-.87.07-1.11-.16-1-1a29.82,29.82,0,0,0,0-3V4.19C.19,2.86-.33,1,.34.34S2.86.19,4.19.19H553.81c1.33,0,3.18-.52,3.85.15s.15,2.52.15,3.85V443a29.82,29.82,0,0,0,0,3c.09.87-.15,1.1-1,1-1.16-.1-2.33,0-3.5,0ZM400.92,58.16c.51-2.61-1.51-4.4-2.21-6.62a2,2,0,0,0-1.61,0c-2.12,1.8-4,4-6.22,5.56A64.61,64.61,0,0,1,373,65.67c-5.91,1.89-8.71,2.17-13.79.09-2.21-.91-3.83,1.28-5.85.44a1.55,1.55,0,0,0-1.28.43c-.45.41-1.07,1-1,1.53.26,3-2.44,3.68-4,3.84-4.9.5-9.28,3.12-14.23,3.18-.26,0-.51.32-.76.49.26.16.52.45.79.47a38.77,38.77,0,0,0,12.34-1.54c1.78-.46,4.12-.75,5.62,0,4.12,2.14,6.42,7.95,5,12.16-2,6.07-4.28,12-4.87,18.48,0,.33-.88.8-1.36.82a4,4,0,0,1-1.73-.6c-2.9-1.43-5.69-3.2-8.72-4.26-4.32-1.51-8.43-3.26-11.87-6.34-2.25-2-5.37-1.47-7.86-2.73-1.93,1-3.89,1.88-5.76,3a1.69,1.69,0,0,0-.43,1.61c.57.83,1.47,1.59.21,2.34-.34.2-1.33-.61-2-1-.93-.6-1.79-1.31-2.73-1.88s-.91-1.2-.25-1.94a36.34,36.34,0,0,0,3.51-4.06c.66-1,2.18-2.08-.58-3.43a7.78,7.78,0,0,1-4.37-9c.1-.48-.09-1,0-1.49s.43-.93.73-1a1.56,1.56,0,0,1,1.21.51c.37.47.45,1.15.78,1.66.8,1.25-.63,3.18,1.07,4a13.49,13.49,0,0,0,4.39,1.4c2.53.28,4.83,1.67,7.46,1.36,1.33-.16,2.42-.9,2.24-2.07C324.42,79,327.75,77,327,73.91c-.08-.38.67-1.29,1.17-1.43,2.83-.77,1.71-1.77.47-3.21A6.8,6.8,0,0,1,327,64c.11-1.15-.07-2.34,0-3.49.27-2.83-1-4.92-2.94-6.79a17,17,0,0,0-7.26-4.19c-3.83-1.06-8.14-1.07-11.28.92A15.36,15.36,0,0,0,298,63.19a23.64,23.64,0,0,0,2.47,12c1.73,3.33.7,6.32-2.42,7.39-4.57,1.56-9.25,2.4-14.1,1a12.1,12.1,0,0,0-7.07.13c-5.62,1.76-10.73,4.68-16.31,6.51-2.9,1-5.48,2.93-8.39,3.84-4.51,1.4-8.47,3.46-11.58,7.05-2,2.32-4.09,4.6-6,7a19,19,0,0,0-3.14,5.18c-1.42,4.07-2.75,8.17-4.35,12.19-1.93,4.86-3.56,9.84-5.58,14.68a15.51,15.51,0,0,0-1.53,6.89c.07,1.38.68,2.95-.6,4.24a1.4,1.4,0,0,0-.26,1.3c1.56,2.58,2.7,5.47,5.27,7.31.23.16.73.27.9.14a1.67,1.67,0,0,0,.72-1c.08-3.72-.16-7.43.94-11.1.41-1.37.69-2.84,2.1-2.67.76.1,1.58,1.71,1.91,2.78a12.22,12.22,0,0,1,.07,3.48,18.84,18.84,0,0,0,0,2c0,.17.39.33.63.43.06,0,.26-.2.33-.34a6.63,6.63,0,0,0,1-2.08c.14-1.66-.39-3.48.14-5a5.47,5.47,0,0,0-.94-5.87,10.06,10.06,0,0,1-2.07-4.11c-.37-1.92,1.87-2.48,2.73-3.81.16-.24,0-.68.2-.92,5-7.43,10.08-14.79,14.88-22.33a4.85,4.85,0,0,1,3.53-2.34c1.29-.24,2.67.08,4-.09s2.37-.8,3.59-.93a31.41,31.41,0,0,0,11.2-3.1,19.24,19.24,0,0,1,10.21-1.9,2.64,2.64,0,0,1,1.69.67c1.25,1.4,2.9,2.32,3,4.79.1,2,1.46,4.07,2.72,5.78s2.93,3.45,5.4,3.75c.23,0,.42.35.63.54-.27.15-.54.41-.82.41-2.24,0-4.61.4-6.56-1a28.59,28.59,0,0,1-5.89-5c-2.22-2.83-5.16-2.3-7.68-1.8a5.9,5.9,0,0,0-3.78,4,29.26,29.26,0,0,0,0,10.92,21,21,0,0,1,.7,6.62c-.24,2.38,1,4.36,1.07,6.59.06,3.16.08,6.33,0,9.49a4.29,4.29,0,0,1-.91,2.59c-3.14,3.4-5,7.53-7,11.59-.25.52-2,7.21-2,7.67,0,3.85-.74,7.91,2.91,10.82.25.2.17,1,.06,1.42s-.38,1-.68,1.06a43.91,43.91,0,0,1-5.08,1c-3.07.39-6.22-.61-9.26.57s-6.48-.46-9.39,1.45c-6.38.12-12.42,2-18.28,4.15-2.45.91-4.19.79-6.07-.51-4.1-2.83-8.9-3.94-13.59-4.46a41.68,41.68,0,0,0-12.6.58,42.78,42.78,0,0,0-13.06,4.8c-5.83,3.26-10.59,7.88-15.21,12.53-1.88,1.88-3.6,4.12-5.44,6.16a17.27,17.27,0,0,0-1.75,1.78c-4.77,7.2-11.39,12.69-18.1,17.78-5.6,4.25-12.31,7-19.13,9.17-3.16,1-6.26,2.2-9.66,2-1.75,2-4.43.08-6,1.15-2.12,1.46-4.15.71-6.18.79-4.32.18-8.66,0-13,.1-.46,0-.92.56-1.38.87a6.08,6.08,0,0,0,1.21,1.07,65,65,0,0,0,8,3.64c7.52,2.41,15.07,4.86,23.17,4.41,3.49-.2,7-.1,10.49,0,1,0,2.65-.8,3,.67.16.73-1,1.95-1.79,2.65a17.61,17.61,0,0,1-3.9,2.61c-3.06,1.44-6.21,2.69-9.32,4-.28.13-.54.31-.81.46.24.18.46.49.71.52,2.21.24,4.24,1.17,6.58,1.13,2.78-.05,5.39-.81,8.08-1.06a29.33,29.33,0,0,0,6.11-1A52.43,52.43,0,0,0,150.38,251c6.6-5.68,13-11.81,18-19,4.22-6.05,9.29-11.36,13.72-17.21a69.68,69.68,0,0,1,15-14.23,65,65,0,0,1,6.86-3.91,3.27,3.27,0,0,1,1.06-.16,6.52,6.52,0,0,1-.29,1.34c-.12.28-.46.47-.68.72-4.47,5.12-8.54,10.37-11.15,16.87a46.69,46.69,0,0,0-3.63,14.91c-.32,6.31-.84,12.7.65,19.1,1.1,4.69-.8,9.35-2.56,13.83-2.6,6.63-8.11,10.8-12.76,15.71-3.63.42-3.73,3.74-4.4,6.07-1.38,4.81-2,9.83-3.15,14.71a128,128,0,0,1-5.61,18.65,63.11,63.11,0,0,1-9.33,15.15c-2,2.47-4.59,3.16-7,2.25s-4.77-.56-7.14-.86c-2.53-.31-3.81,1-4.92,3.08a67.14,67.14,0,0,0-5.61,13.16c-.48,1.67-.22,3.55-.29,5.33,1.44.15,2.87.36,4.32.42a45.7,45.7,0,0,0,5.49,0,12,12,0,0,0,3.08-1c6.93-2.66,13.51-5.75,18.88-11.21,5.55-5.64,9.33-12.52,14.08-18.71,5.4-7.06,8.93-15.28,13.42-22.91,3.74-6.35,9.21-9.92,16.7-10.12,1,0,2.23.37,3-.08,2.62-1.64,5.42-.71,8.12-.9s5.27-1.67,8.08-1c.58.13,1.14.35,1.72.53a7,7,0,0,1-1.07,1c-3.44,2.15-6.81,4.43-10.41,6.27-1,.53-1.58.7-1.49,1.88.32,4.22-1.51,8.05-2.4,12-1,4.5-3.37,8.62-5.68,12.6-1.37,2.38-3.5,4.22-6.88,3.7-2.28-.35-4.67.12-7-.11-2.54-.26-3.95,1-5,3-.36.67-.64,1.4-1,2.08-2.26,4.16-2.71,8.88-3.91,13.36-.44,1.65-.58,4.24.36,5.18s3.41.38,5.21.41a5.46,5.46,0,0,0,1.31-.44c6.49-1.83,11.92-5.63,16.8-10a59.11,59.11,0,0,0,12.66-15.16c3.64-6.49,7-13.12,10.2-19.81a128.84,128.84,0,0,0,6.94-16.6,7.82,7.82,0,0,1,5.58-5.46c2-.46,3.39-1.63,5-2.54,5.47-3.16,9.8-7.79,13.68-12.57A51.2,51.2,0,0,0,264.05,258a22.46,22.46,0,0,1,6.12-8.39A39.78,39.78,0,0,1,281.4,243c4.46-1.73,4.74-2.08,8.19-1.91a5.54,5.54,0,0,1,1.32.4c-.3.35-.53.89-.91,1-2.41.89-3.86,2.93-5.53,4.67a3,3,0,0,0-.39,2.26c0,.28,1,.56,1.61.59a36.59,36.59,0,0,1,6.61.9,160.15,160.15,0,0,1,23.81,7.72c2.7,1.11,5.51,2,8.24,3a63.48,63.48,0,0,0,8,2.36,46.65,46.65,0,0,0,7.07,1c2.49.17,5-.11,7.49.08,2.8.2,5.37-.71,7.9-1.51a100.15,100.15,0,0,0,17.44-7.33c1.07-.58,2.38-.7,3.49-1.23,1.39-.67,3.12-1.26,3.86-2.43.43-.67-.79-2.42-1.32-3.66-1.39-3.28-2.83-6.58-3.26-10.11-.13-1.11-1.32-3.19.94-3.61.47-.08,1.49,1.71,1.92,2.77,1.39,3.48,3.29,6.67,6.36,8.82A49.49,49.49,0,0,0,395,252.14c2.41.93,4.5.39,6.6-.34,2.46-.86,4.78-2.12,7.19-3.12,3-1.25,5.91-2.92,9-3.5,6-1.12,11.53-3.9,17.72-4.46,2.52-.22,5.17-1.18,7.77-1.56,2.77-.4,5.65-.08,8.48-.09,1.33,0,1.26,1,1,1.69a6.39,6.39,0,0,1-1.52,2.36c-5,5.09-10.07,10.18-15.2,15.18a48.4,48.4,0,0,1-5.6,4.58,6.48,6.48,0,0,1-3,1.14c-4.18.43-8.38.89-12.57,1-4.43.1-7.56,1.49-9.5,5.87-1.59,3.6-3.17,7.12-3.43,11-.05.83-1.92,1.28-.42,2.31.79.55,1.45,1.62,2.27,1.73a10.9,10.9,0,0,0,4.83-.28c3.78-1.31,7.68-2.38,11.08-4.62a39.62,39.62,0,0,1,4.37-2.71,97.88,97.88,0,0,0,12.41-7.43c6.1-4.16,12.25-8.24,18.35-12.39,1.45-1,2.79-2.11,4.19-3.17s2.82-2.08,4.17-3.19c2-1.61,1.91-1.67.42-3.82-1.34-1.93-2.62-3.91-3.88-5.89a4.76,4.76,0,0,1-.39-1.39,12.32,12.32,0,0,1,1.49,0,1.92,1.92,0,0,1,.85.35c6,4.44,12.5,8.33,17.8,13.75,1.22,1.24,3.31,1.86,4,3.27a27.51,27.51,0,0,1,3.37,9.11,62.06,62.06,0,0,0,2.42,9.47,6.54,6.54,0,0,0,4.52,4.51,60.22,60.22,0,0,0,6.38,1.48,32.94,32.94,0,0,1,4.13.85c5,1.58,7.28-.65,6.41-5.71-.1-.57-.76-1-.93-1.6-1.54-5.52-5.46-9.59-9-13.74-4.07-4.82-8-9.8-12.33-14.39a269.51,269.51,0,0,0-23.54-22.67,34.33,34.33,0,0,0-4.2-3.15,10.09,10.09,0,0,0-3.86-1.48,57.15,57.15,0,0,1-7.61-.9c-2.83-.7-6,0-8.95-.2s-6.05-.85-9.08-.91c-7-.15-14-.07-21,0-2.41,0-4.19-.84-5.1-3.16s-2.45-4-3.77-6c-2.3-3.41-4.77-6.67-7.17-10a2.24,2.24,0,0,1-.37-1.27,5.64,5.64,0,0,1,1.72-.58,1.37,1.37,0,0,1,.91.17c3.43,2.28,7.25,4.07,9.36,7.93a13.45,13.45,0,0,0,1.84,2.24,5.37,5.37,0,0,0,.7.56c.15-.27.43-.56.41-.82-.27-3,.8-6.21-1-9.08.64-2.66-.24-5.29-1.17-7.51-1-2.4.06-5.19-1.83-7.24-.46-5.2-.13-10.53,2.45-15a59.57,59.57,0,0,1,9.38-12.64c2.84-2.8,5.51-5.82,8.54-8.41,1.79-1.53,1.34-2.72.67-4.47-1.17-3.08-1.37-3.13-4.33-2a48.45,48.45,0,0,0-16.13,10.39c-5.39,5-11.15,9.83-15.31,16.08a7,7,0,0,1-1.41,1.41c-.14.12-.47.06-.69,0s-.17-.29-.14-.41a18.79,18.79,0,0,1,.55-2.27c1.18-3.45,3.38-6.32,5.47-9.22a126.33,126.33,0,0,1,8.35-10.52,53,53,0,0,1,6.61-5.68,28.74,28.74,0,0,1,5.06-3.47c3.86-1.9,7.51-4.25,11.72-5.49,1.36-.4,1.53-.94,2.29.76a44.57,44.57,0,0,0,11.07,15.44,22.61,22.61,0,0,0,7.25,4.25,33.23,33.23,0,0,0,14.17,2,7.92,7.92,0,0,1,6.45,2.55,54,54,0,0,1,6.93,9.13,16.41,16.41,0,0,0,1.2,2c1.59,1.79,3.63,2.32,6,2.4s2.33-1.77,3.22-3a21.18,21.18,0,0,1,2.1-2.14,15.19,15.19,0,0,0,2.76-2.86c.61-1.11,1.67-2.06.83-3.93a15.31,15.31,0,0,1-1-7c.24-3.45-1.3-5.49-4-7.14a63.65,63.65,0,0,1-14.82-12.37c-1.57-1.79-3.09-3.72-3.46-6.58a14.11,14.11,0,0,0-3.95-7.85c-4.82-5.06-10.56-8.73-16.54-12.09-.79-.45-1.21-.54-1.34-1.53-.38-3.13,1.5-5.38,2.85-7.84a16.35,16.35,0,0,1,1-1.42c-.62-.09-1.25-.23-1.88-.28A17.86,17.86,0,0,0,435.46,98a8.66,8.66,0,0,1-4,1.12c-5.19.36-10.37-.15-15.61.87-4,.78-8,1.6-11.9,2.74-7.12,2.09-13.68,5.59-20.2,9.1-7.81,4.2-14.27,10.19-20.83,16-4,3.56-7.39,7.87-11,11.89-2.28,2.53-5,4.86-6.62,7.76-3.67,6.43-8.76,11.55-13.85,16.75a37.78,37.78,0,0,1-11.69,8,14.85,14.85,0,0,1-3.61,1c-2.95.56-5.19-1.19-7.66-2.09-4.2-1.51-8.29-3.32-12.45-4.92-.67-.26-1.23-.17-.54-1.07a11.1,11.1,0,0,0,1.08-2c1.81-3.91,4.42-7.67,5.22-11.78a25.78,25.78,0,0,1,7.5-13.93,7.87,7.87,0,0,0,1.83-3.25c1.23-3.61,3.22-7,6.81-8.86a4.85,4.85,0,0,0,2.28-2.76,19,19,0,0,0,.05-16.56,2.44,2.44,0,0,1,.17-1.61c.77-.06,1.94-.21,2.28.23,1.23,1.59,3,3.38,3.07,5.13.08,3.46,2.54,3.68,4.64,4.47,3.48,1.33,7.2,1.94,10.71,3.11a29.06,29.06,0,0,0,10.69,1.94,9.3,9.3,0,0,0,7.16-4.42,25.63,25.63,0,0,0,4-14.86c-.12-7.82,0-15.65,0-23.48,0-1-.05-2,0-3a2.24,2.24,0,0,1,2.13-2.23c2.2-.34,4.38-.82,6.59-1,2.48-.17,5,0,7.49,0,2.33,0,4.81-.52,7,.1,4.88,1.41,9.91,2.45,14.42,5,2.06,1.16,3.19.5,3.37-1.71.36-4.22-1-8.25-1.52-12.37a3.57,3.57,0,0,0-.48,0C401.53,60.18,402.84,58.63,400.92,58.16ZM321,369.08a52.52,52.52,0,0,1,0-6.17,25.3,25.3,0,0,1,1.49-6.85c3.1-7.26,8.84-10.61,16.66-11.11,5.9-.38,11.52.87,17.11,2.21,1.41.34,1.64.66,1.87-.81.11-.69,2.76-12.25,2.81-12.81.07-1-.39-1.15-1.25-1.6-3.56-1.89-7.58-2.27-11.3-2.71-6.4-.75-13-.26-19.44-.16a17.57,17.57,0,0,0-3.58.95c-9.73,2.32-15.85,6.78-21.52,14.37-4.46,6-5.53,12.8-6.81,19.66a30.59,30.59,0,0,0,0,7.47c.16,2.37.73,4.71.94,7.08s1.23,4.48,2,6.65c2.4,6.44,5.7,12,11.68,16.12,7.14,4.9,15,6.74,23.32,7.63,5.27.57,10.36-.86,15.56-1.11,2.74-.14,5.46-1.17,8.15-1.93,1.9-.53,2.7-1.6,2.2-3.11a34,34,0,0,1-2-10.66,2.43,2.43,0,0,0-3.13-2.16,32.94,32.94,0,0,1-11.16,2c-.59,0-1.16.48-1.76.54-1.22.12-2.74.55-3.62,0a5.58,5.58,0,0,0-2.78-.58c-7.45-.77-13.07-6.63-14.63-13.51A52.52,52.52,0,0,1,321,369.08ZM421.9,357.53v29.94a48.81,48.81,0,0,0,0,5,24.86,24.86,0,0,0,1,5.07c1.22,3.83,2.91,7.5,7,8.93a43.09,43.09,0,0,0,10.43,2.6c4.95.45,9.68-1.13,14.56-1.09,2.74,0,3.87-1,3.89-3.91,0-1.54.27-3-.78-4.69-.77-1.22-.07-3.48.25-5.22.11-.6.84-1.1-.3-1.14-2.32-.07-4.65,0-7,0-1.45,0-2.83.19-4-1.27-1.42-1.74-3.1-3.28-3.11-5.71q0-18.47,0-36.92c0-2.38.74-3,3.28-3.06,3,0,6-.06,9,0,1.19,0,1.78-.18,1.75-1.6-.09-4.32-.06-8.65,0-13,0-1-.25-1.48-1.36-1.46-3.66,0-7.32,0-11,0-1.26,0-1.72-.3-1.7-1.64.06-6,0-12,0-18,0-1.43-.53-1.76-1.76-1.13-5.49,2.8-10.89,5.81-16.49,8.38-2.77,1.27-3.82,2.91-3.78,5.91C422,334.91,421.9,346.22,421.9,357.53Zm-48-.08q0,16.71,0,33.43c0,2.06-.5,4.23,1,6.07,0,4.87,3.2,7.43,7,9.47a20.14,20.14,0,0,0,9.41,2.54c4.37.05,8.75.29,13.07-.92,1.68-.47,4.26.39,5.14-.56s.33-3.42.38-5.23c0-.83,0-1.66,0-2.49l-.15-6.42-6.35-.35c-.49,0-1,0-1.49,0a6,6,0,0,1-6-6c-.06-12.63,0-25.27,0-37.91,0-2.16.78-3,2.82-3q4.74-.09,9.48,0c1.24,0,1.74-.27,1.71-1.63-.08-4.32-.06-8.65,0-13,0-1.05-.31-1.45-1.39-1.43-3.66,0-7.32,0-11,0-1.29,0-1.68-.36-1.67-1.67.07-5.82.05-11.64,0-17.46,0-2.21-.11-2.25-2.12-1.25-5.94,2.93-11.85,5.92-17.82,8.77-1.44.68-2.11,1.32-2.09,3.09C374,333.5,373.93,345.48,373.93,357.45Z"/><path d="M401.91,61.16a3.57,3.57,0,0,1,.48,0c.54,4.12,1.88,8.15,1.52,12.37-.18,2.21-1.31,2.87-3.37,1.71-4.51-2.53-9.54-3.57-14.42-5-2.15-.62-4.63-.1-7-.1-2.5,0-5-.13-7.49,0-2.21.14-4.39.62-6.59,1A2.24,2.24,0,0,0,363,73.39c-.06,1,0,2,0,3,0,7.83-.09,15.66,0,23.48a25.63,25.63,0,0,1-4,14.86,9.3,9.3,0,0,1-7.16,4.42,29.06,29.06,0,0,1-10.69-1.94c-3.51-1.17-7.23-1.78-10.71-3.11-2.1-.79-4.56-1-4.64-4.47,0-1.75-1.84-3.54-3.07-5.13-.34-.44-1.51-.29-2.28-.23a2.44,2.44,0,0,0-.17,1.61,19,19,0,0,1-.05,16.56,4.85,4.85,0,0,1-2.28,2.76c-3.59,1.84-5.58,5.25-6.81,8.86a7.87,7.87,0,0,1-1.83,3.25,25.78,25.78,0,0,0-7.5,13.93c-.8,4.11-3.41,7.87-5.22,11.78a11.1,11.1,0,0,1-1.08,2c-.69.9-.13.81.54,1.07,4.16,1.6,8.25,3.41,12.45,4.92,2.47.9,4.71,2.65,7.66,2.09a14.85,14.85,0,0,0,3.61-1,37.78,37.78,0,0,0,11.69-8c5.09-5.2,10.18-10.32,13.85-16.75,1.65-2.9,4.34-5.23,6.62-7.76,3.62-4,7-8.33,11-11.89,6.56-5.79,13-11.78,20.83-16,6.52-3.51,13.08-7,20.2-9.1,3.88-1.14,7.9-2,11.9-2.74,5.24-1,10.42-.51,15.61-.87a8.66,8.66,0,0,0,4-1.12,17.86,17.86,0,0,1,11.33-2.83c.63,0,1.26.19,1.88.28a16.35,16.35,0,0,0-1,1.42c-1.35,2.46-3.23,4.71-2.85,7.84.13,1,.55,1.08,1.34,1.53,6,3.36,11.72,7,16.54,12.09a14.11,14.11,0,0,1,3.95,7.85c.37,2.86,1.89,4.79,3.46,6.58A63.65,63.65,0,0,0,485,145.11c2.7,1.65,4.24,3.69,4,7.14a15.31,15.31,0,0,0,1,7c.84,1.87-.22,2.82-.83,3.93a15.19,15.19,0,0,1-2.76,2.86,21.18,21.18,0,0,0-2.1,2.14c-.89,1.2-.92,3.05-3.22,3s-4.43-.61-6-2.4a16.41,16.41,0,0,1-1.2-2,54,54,0,0,0-6.93-9.13,7.92,7.92,0,0,0-6.45-2.55,33.23,33.23,0,0,1-14.17-2,22.61,22.61,0,0,1-7.25-4.25A44.57,44.57,0,0,1,428,133.44c-.76-1.7-.93-1.16-2.29-.76-4.21,1.24-7.86,3.59-11.72,5.49a28.74,28.74,0,0,0-5.06,3.47,53,53,0,0,0-6.61,5.68A126.33,126.33,0,0,0,394,157.84c-2.09,2.9-4.29,5.77-5.47,9.22a18.79,18.79,0,0,0-.55,2.27c0,.12.06.39.14.41s.55.11.69,0a7,7,0,0,0,1.41-1.41c4.16-6.25,9.92-11,15.31-16.08a48.45,48.45,0,0,1,16.13-10.39c3-1.09,3.16-1,4.33,2,.67,1.75,1.12,2.94-.67,4.47-3,2.59-5.7,5.61-8.54,8.41a59.57,59.57,0,0,0-9.38,12.64c-2.58,4.42-2.91,9.75-2.45,15,1.89,2,.84,4.84,1.83,7.24.93,2.22,1.81,4.85,1.17,7.51,1.78,2.87.71,6,1,9.08,0,.26-.26.55-.41.82a5.37,5.37,0,0,1-.7-.56,13.45,13.45,0,0,1-1.84-2.24c-2.11-3.86-5.93-5.65-9.36-7.93a1.37,1.37,0,0,0-.91-.17,5.64,5.64,0,0,0-1.72.58,2.24,2.24,0,0,0,.37,1.27c2.4,3.33,4.87,6.59,7.17,10,1.32,2,2.89,3.72,3.77,6s2.69,3.18,5.1,3.16c7,0,14-.11,21,0,3,.06,6,.74,9.08.91s6.12-.5,8.95.2a57.15,57.15,0,0,0,7.61.9,10.09,10.09,0,0,1,3.86,1.48,34.33,34.33,0,0,1,4.2,3.15,269.51,269.51,0,0,1,23.54,22.67c4.32,4.59,8.26,9.57,12.33,14.39,3.5,4.15,7.42,8.22,9,13.74.17.57.83,1,.93,1.6.87,5.06-1.39,7.29-6.41,5.71a32.94,32.94,0,0,0-4.13-.85,60.22,60.22,0,0,1-6.38-1.48,6.54,6.54,0,0,1-4.52-4.51,62.06,62.06,0,0,1-2.42-9.47,27.51,27.51,0,0,0-3.37-9.11c-.73-1.41-2.82-2-4-3.27-5.3-5.42-11.76-9.31-17.8-13.75a1.92,1.92,0,0,0-.85-.35,12.32,12.32,0,0,0-1.49,0,4.76,4.76,0,0,0,.39,1.39c1.26,2,2.54,4,3.88,5.89,1.49,2.15,1.54,2.21-.42,3.82-1.35,1.11-2.78,2.13-4.17,3.19s-2.74,2.19-4.19,3.17c-6.1,4.15-12.25,8.23-18.35,12.39a97.88,97.88,0,0,1-12.41,7.43,39.62,39.62,0,0,0-4.37,2.71c-3.4,2.24-7.3,3.31-11.08,4.62a10.9,10.9,0,0,1-4.83.28c-.82-.11-1.48-1.18-2.27-1.73-1.5-1,.37-1.48.42-2.31.26-3.92,1.84-7.44,3.43-11,1.94-4.38,5.07-5.77,9.5-5.87,4.19-.1,8.39-.56,12.57-1a6.48,6.48,0,0,0,3-1.14,48.4,48.4,0,0,0,5.6-4.58c5.13-5,10.17-10.09,15.2-15.18a6.39,6.39,0,0,0,1.52-2.36c.24-.67.31-1.7-1-1.69-2.83,0-5.71-.31-8.48.09-2.6.38-5.25,1.34-7.77,1.56-6.19.56-11.72,3.34-17.72,4.46-3.11.58-6,2.25-9,3.5-2.41,1-4.73,2.26-7.19,3.12-2.1.73-4.19,1.27-6.6.34a49.49,49.49,0,0,1-10.76-5.33c-3.07-2.15-5-5.34-6.36-8.82-.43-1.06-1.45-2.85-1.92-2.77-2.26.42-1.07,2.5-.94,3.61.43,3.53,1.87,6.83,3.26,10.11.53,1.24,1.75,3,1.32,3.66-.74,1.17-2.47,1.76-3.86,2.43-1.11.53-2.42.65-3.49,1.23a100.15,100.15,0,0,1-17.44,7.33c-2.53.8-5.1,1.71-7.9,1.51-2.48-.19-5,.09-7.49-.08a46.65,46.65,0,0,1-7.07-1,63.48,63.48,0,0,1-8-2.36c-2.73-1-5.54-1.89-8.24-3a160.15,160.15,0,0,0-23.81-7.72,36.59,36.59,0,0,0-6.61-.9c-.57,0-1.57-.31-1.61-.59a3,3,0,0,1,.39-2.26c1.67-1.74,3.12-3.78,5.53-4.67.38-.14.61-.68.91-1a5.54,5.54,0,0,0-1.32-.4c-3.45-.17-3.73.18-8.19,1.91a39.78,39.78,0,0,0-11.23,6.58,22.46,22.46,0,0,0-6.12,8.39,51.2,51.2,0,0,1-7.19,12.46c-3.88,4.78-8.21,9.41-13.68,12.57-1.58.91-3,2.08-5,2.54a7.82,7.82,0,0,0-5.58,5.46,128.84,128.84,0,0,1-6.94,16.6c-3.15,6.69-6.56,13.32-10.2,19.81a59.11,59.11,0,0,1-12.66,15.16c-4.88,4.35-10.31,8.15-16.8,10a5.46,5.46,0,0,1-1.31.44c-1.8,0-4.26.53-5.21-.41s-.8-3.53-.36-5.18c1.2-4.48,1.65-9.2,3.91-13.36.37-.68.65-1.41,1-2.08,1.08-2,2.49-3.24,5-3,2.31.23,4.7-.24,7,.11,3.38.52,5.51-1.32,6.88-3.7,2.31-4,4.68-8.1,5.68-12.6.89-4,2.72-7.8,2.4-12-.09-1.18.46-1.35,1.49-1.88,3.6-1.84,7-4.12,10.41-6.27a7,7,0,0,0,1.07-1c-.58-.18-1.14-.4-1.72-.53-2.81-.65-5.36.82-8.08,1s-5.5-.74-8.12.9c-.72.45-2,0-3,.08-7.49.2-13,3.77-16.7,10.12-4.49,7.63-8,15.85-13.42,22.91-4.75,6.19-8.53,13.07-14.08,18.71-5.37,5.46-11.95,8.55-18.88,11.21a12,12,0,0,1-3.08,1,45.7,45.7,0,0,1-5.49,0c-1.45-.06-2.88-.27-4.32-.42.07-1.78-.19-3.66.29-5.33a67.14,67.14,0,0,1,5.61-13.16c1.11-2.05,2.39-3.39,4.92-3.08,2.37.3,4.69-.08,7.14.86s5,.22,7-2.25a63.11,63.11,0,0,0,9.33-15.15A128,128,0,0,0,167,299.81c1.18-4.88,1.77-9.9,3.15-14.71.67-2.33.77-5.65,4.4-6.07,4.65-4.91,10.16-9.08,12.76-15.71,1.76-4.48,3.66-9.14,2.56-13.83-1.49-6.4-1-12.79-.65-19.1a46.69,46.69,0,0,1,3.63-14.91c2.61-6.5,6.68-11.75,11.15-16.87.22-.25.56-.44.68-.72a6.52,6.52,0,0,0,.29-1.34,3.27,3.27,0,0,0-1.06.16,65,65,0,0,0-6.86,3.91,69.68,69.68,0,0,0-15,14.23c-4.43,5.85-9.5,11.16-13.72,17.21-5,7.17-11.4,13.3-18,19a52.43,52.43,0,0,1-18.75,10.1,29.33,29.33,0,0,1-6.11,1c-2.69.25-5.3,1-8.08,1.06-2.34,0-4.37-.89-6.58-1.13-.25,0-.47-.34-.71-.52.27-.15.53-.33.81-.46,3.11-1.34,6.26-2.59,9.32-4a17.61,17.61,0,0,0,3.9-2.61c.81-.7,1.95-1.92,1.79-2.65-.33-1.47-1.94-.64-3-.67-3.49-.1-7-.2-10.49,0-8.1.45-15.65-2-23.17-4.41a65,65,0,0,1-8-3.64A6.08,6.08,0,0,1,80.14,242c.46-.31.92-.86,1.38-.87,4.33-.07,8.67.08,13-.1,2-.08,4.06.67,6.18-.79,1.56-1.07,4.24.82,6-1.15,3.4.21,6.5-1,9.66-2,6.82-2.16,13.53-4.92,19.13-9.17,6.71-5.09,13.33-10.58,18.1-17.78a17.27,17.27,0,0,1,1.75-1.78c1.84-2,3.56-4.28,5.44-6.16,4.62-4.65,9.38-9.27,15.21-12.53a42.78,42.78,0,0,1,13.06-4.8,41.68,41.68,0,0,1,12.6-.58c4.69.52,9.49,1.63,13.59,4.46,1.88,1.3,3.62,1.42,6.07.51,5.86-2.18,11.9-4,18.28-4.15,2.91-1.91,6.37-.27,9.39-1.45s6.19-.18,9.26-.57a43.91,43.91,0,0,0,5.08-1c.3-.08.59-.66.68-1.06s.19-1.22-.06-1.42c-3.65-2.91-2.87-7-2.91-10.82,0-.46,1.75-7.15,2-7.67,2-4.06,3.9-8.19,7-11.59a4.29,4.29,0,0,0,.91-2.59c.11-3.16.09-6.33,0-9.49-.05-2.23-1.31-4.21-1.07-6.59a21,21,0,0,0-.7-6.62,29.26,29.26,0,0,1,0-10.92,5.9,5.9,0,0,1,3.78-4c2.52-.5,5.46-1,7.68,1.8a28.59,28.59,0,0,0,5.89,5c1.95,1.41,4.32,1,6.56,1,.28,0,.55-.26.82-.41-.21-.19-.4-.52-.63-.54-2.47-.3-4.1-2-5.4-3.75s-2.62-3.8-2.72-5.78c-.13-2.47-1.78-3.39-3-4.79a2.64,2.64,0,0,0-1.69-.67,19.24,19.24,0,0,0-10.21,1.9,31.41,31.41,0,0,1-11.2,3.1c-1.22.13-2.38.77-3.59.93s-2.7-.15-4,.09a4.85,4.85,0,0,0-3.53,2.34c-4.8,7.54-9.9,14.9-14.88,22.33-.17.24,0,.68-.2.92-.86,1.33-3.1,1.89-2.73,3.81a10.06,10.06,0,0,0,2.07,4.11,5.47,5.47,0,0,1,.94,5.87c-.53,1.48,0,3.3-.14,5a6.63,6.63,0,0,1-1,2.08c-.07.14-.27.36-.33.34-.24-.1-.61-.26-.63-.43a18.84,18.84,0,0,1,0-2,12.22,12.22,0,0,0-.07-3.48c-.33-1.07-1.15-2.68-1.91-2.78-1.41-.17-1.69,1.3-2.1,2.67-1.1,3.67-.86,7.38-.94,11.1a1.67,1.67,0,0,1-.72,1c-.17.13-.67,0-.9-.14-2.57-1.84-3.71-4.73-5.27-7.31a1.4,1.4,0,0,1,.26-1.3c1.28-1.29.67-2.86.6-4.24a15.51,15.51,0,0,1,1.53-6.89c2-4.84,3.65-9.82,5.58-14.68,1.6-4,2.93-8.12,4.35-12.19a19,19,0,0,1,3.14-5.18c1.88-2.43,4-4.71,6-7,3.11-3.59,7.07-5.65,11.58-7.05,2.91-.91,5.49-2.89,8.39-3.84,5.58-1.83,10.69-4.75,16.31-6.51a12.1,12.1,0,0,1,7.07-.13c4.85,1.38,9.53.54,14.1-1,3.12-1.07,4.15-4.06,2.42-7.39a23.64,23.64,0,0,1-2.47-12,15.36,15.36,0,0,1,7.55-12.74c3.14-2,7.45-2,11.28-.92A17,17,0,0,1,324,53.72c1.94,1.87,3.21,4,2.94,6.79-.1,1.15.08,2.34,0,3.49a6.8,6.8,0,0,0,1.72,5.27c1.24,1.44,2.36,2.44-.47,3.21-.5.14-1.25,1-1.17,1.43.72,3.12-2.61,5.11-2.14,8.19.18,1.17-.91,1.91-2.24,2.07-2.63.31-4.93-1.08-7.46-1.36a13.49,13.49,0,0,1-4.39-1.4c-1.7-.85-.27-2.78-1.07-4-.33-.51-.41-1.19-.78-1.66a1.56,1.56,0,0,0-1.21-.51c-.3.06-.62.61-.73,1s.06,1,0,1.49a7.78,7.78,0,0,0,4.37,9c2.76,1.35,1.24,2.41.58,3.43a36.34,36.34,0,0,1-3.51,4.06c-.66.74-.7,1.36.25,1.94s1.8,1.28,2.73,1.88c.65.41,1.64,1.22,2,1,1.26-.75.36-1.51-.21-2.34a1.69,1.69,0,0,1,.43-1.61c1.87-1.08,3.83-2,5.76-3,2.49,1.26,5.61.71,7.86,2.73,3.44,3.08,7.55,4.83,11.87,6.34,3,1.06,5.82,2.83,8.72,4.26a4,4,0,0,0,1.73.6c.48,0,1.33-.49,1.36-.82.59-6.44,2.88-12.41,4.87-18.48,1.39-4.21-.91-10-5-12.16-1.5-.77-3.84-.48-5.62,0a38.77,38.77,0,0,1-12.34,1.54c-.27,0-.53-.31-.79-.47.25-.17.5-.49.76-.49,4.95-.06,9.33-2.68,14.23-3.18,1.6-.16,4.3-.81,4-3.84-.05-.49.57-1.12,1-1.53a1.55,1.55,0,0,1,1.28-.43c2,.84,3.64-1.35,5.85-.44,5.08,2.08,7.88,1.8,13.79-.09a64.61,64.61,0,0,0,17.93-8.55c2.25-1.6,4.1-3.76,6.22-5.56a2,2,0,0,1,1.61,0c.7,2.22,2.72,4,2.21,6.62-.34-.42-.65-.86-1-1.26-.51-.57-1.05-1.1-1.58-1.65-.47.79-1.28,1.56-1.35,2.39a23.38,23.38,0,0,0,0,6.89c.58,2.47,1,5.18,3,7.15a1.59,1.59,0,0,0,1.25.42,1.35,1.35,0,0,0,.66-1C401.94,67.75,401.91,64.46,401.91,61.16Zm50.65,58.6c-1.07.45-2.44.64-2.56,1.14a4.42,4.42,0,0,0,.45,3.18,22.11,22.11,0,0,0,3.44,3.54c.64.6,3.84-.25,3.94-1.12a9.58,9.58,0,0,0-.11-3.89c-.22-.67-1.46-1-2.28-1.47S453.53,120.22,452.56,119.76Zm-126.7-54c-.16-.23-.3-.47-.47-.68-1.06-1.33-2.27-2.38-4.15-1.92-.8.2-2.08-.67-2.27,1a2.3,2.3,0,0,0,1,2.54,11.52,11.52,0,0,0,2.05,1c.52.18,1.28.37,1.65.12A15.41,15.41,0,0,0,325.86,65.77Z"/><path d="M321,369.08a52.52,52.52,0,0,0,.86,9.41c1.56,6.88,7.18,12.74,14.63,13.51a5.58,5.58,0,0,1,2.78.58c.88.53,2.4.1,3.62,0,.6-.06,1.17-.54,1.76-.54a32.94,32.94,0,0,0,11.16-2,2.43,2.43,0,0,1,3.13,2.16,34,34,0,0,0,2,10.66c.5,1.51-.3,2.58-2.2,3.11-2.69.76-5.41,1.79-8.15,1.93-5.2.25-10.29,1.68-15.56,1.11-8.32-.89-16.18-2.73-23.32-7.63-6-4.09-9.28-9.68-11.68-16.12-.81-2.17-1.83-4.27-2-6.65s-.78-4.71-.94-7.08a30.59,30.59,0,0,1,0-7.47c1.28-6.86,2.35-13.68,6.81-19.66,5.67-7.59,11.79-12.05,21.52-14.37a17.57,17.57,0,0,1,3.58-.95c6.48-.1,13-.59,19.44.16,3.72.44,7.74.82,11.3,2.71.86.45,1.32.63,1.25,1.6,0,.56-2.7,12.12-2.81,12.81-.23,1.47-.46,1.15-1.87.81-5.59-1.34-11.21-2.59-17.11-2.21-7.82.5-13.56,3.85-16.66,11.11a25.3,25.3,0,0,0-1.49,6.85A52.52,52.52,0,0,0,321,369.08Z"/><path d="M421.9,357.53c0-11.31.08-22.62,0-33.93,0-3,1-4.64,3.78-5.91,5.6-2.57,11-5.58,16.49-8.38,1.23-.63,1.75-.3,1.76,1.13,0,6,0,12,0,18,0,1.34.44,1.66,1.7,1.64,3.65-.07,7.31,0,11,0,1.11,0,1.38.43,1.36,1.46,0,4.32-.07,8.65,0,13,0,1.42-.56,1.62-1.75,1.6-3-.07-6-.06-9,0-2.54,0-3.27.68-3.28,3.06q0,18.45,0,36.92c0,2.43,1.69,4,3.11,5.71,1.18,1.46,2.56,1.26,4,1.27,2.33,0,4.66-.05,7,0,1.14,0,.41.54.3,1.14-.32,1.74-1,4-.25,5.22,1.05,1.66.78,3.15.78,4.69,0,2.89-1.15,3.94-3.89,3.91-4.88,0-9.61,1.54-14.56,1.09a43.09,43.09,0,0,1-10.43-2.6c-4.11-1.43-5.8-5.1-7-8.93a24.86,24.86,0,0,1-1-5.07,48.81,48.81,0,0,1,0-5Z"/><path d="M373.93,357.45c0-12,.06-23.95-.05-35.92,0-1.77.65-2.41,2.09-3.09,6-2.85,11.88-5.84,17.82-8.77,2-1,2.11-1,2.12,1.25,0,5.82,0,11.64,0,17.46,0,1.31.38,1.7,1.67,1.67,3.66-.08,7.32,0,11,0,1.08,0,1.4.38,1.39,1.43-.05,4.32-.07,8.65,0,13,0,1.36-.47,1.66-1.71,1.63q-4.74-.1-9.48,0c-2,0-2.81.86-2.82,3,0,12.64-.05,25.28,0,37.91a6,6,0,0,0,6,6c.5,0,1,0,1.49,0l6.35.35.15,6.42c0,.83,0,1.66,0,2.49-.05,1.81.55,4.24-.38,5.23s-3.46.09-5.14.56c-4.32,1.21-8.7,1-13.07.92a20.14,20.14,0,0,1-9.41-2.54c-3.78-2-7-4.6-7-9.47-1.48-1.84-1-4-1-6.07Q373.91,374.16,373.93,357.45Z"/><path class="cls-1" d="M401.91,61.16c0,3.3,0,6.59,0,9.89a1.35,1.35,0,0,1-.66,1,1.59,1.59,0,0,1-1.25-.42c-2-2-2.38-4.68-3-7.15a23.38,23.38,0,0,1,0-6.89c.07-.83.88-1.6,1.35-2.39.53.55,1.07,1.08,1.58,1.65.36.4.67.84,1,1.26C402.84,58.63,401.53,60.18,401.91,61.16Z"/><path class="cls-1" d="M452.56,119.76c1,.46,1.95.88,2.88,1.38s2.06.8,2.28,1.47a9.58,9.58,0,0,1,.11,3.89c-.1.87-3.3,1.72-3.94,1.12a22.11,22.11,0,0,1-3.44-3.54,4.42,4.42,0,0,1-.45-3.18C450.12,120.4,451.49,120.21,452.56,119.76Z"/><path class="cls-1" d="M325.86,65.77a15.41,15.41,0,0,1-2.15,2.06c-.37.25-1.13.06-1.65-.12a11.52,11.52,0,0,1-2.05-1,2.3,2.3,0,0,1-1-2.54c.19-1.65,1.47-.78,2.27-1,1.88-.46,3.09.59,4.15,1.92C325.56,65.3,325.7,65.54,325.86,65.77Z"/></g></g></svg>