<?xml version="1.0" encoding="utf-8"?>
<!-- Generator: Adobe Illustrator 24.0.0, SVG Export Plug-In . SVG Version: 6.00 Build 0)  -->
<svg version="1.1" id="Layer_1" xmlns="http://www.w3.org/2000/svg" xmlns:xlink="http://www.w3.org/1999/xlink" x="0px" y="0px"
	 viewBox="0 0 512 512" style="enable-background:new 0 0 512 512;" xml:space="preserve">
<g>
	<path d="M397.6,183.1c-0.7,20.3-2.5,40.5-10,59.3c-5.7,14.3-13.4,27.8-20.9,41.3c-11.3,20.2-23.5,39.9-29.2,62.6
		c-1.1,4.4-1.9,8.8-3,13.1c-7,27.9-31.1,41.9-60.3,35.6c-12.8-2.8-22.4-9.1-27-21.7c-3.7-10.3-8-20.5-10.5-31.1
		c-6-25-14.1-52.4-31.5-71.3c-17.1-18.7-32.9-33.4-43.4-56.7c-8.8-19.4-12-33.7-13.1-55.1c-1.6-33.3-4.6-68.4,15.6-94
		c13.7-17.3,48-42.7,70-48.8c48-13.4,91.5,3.3,130.6,33.5c14.2,11,19.5,29.8,25.2,46c8.3,23.6,6.4,49.7,7.6,74.8
		C397.8,174.8,397.6,179,397.6,183.1z M254.1,306.6c4.3,17.2,7.8,22.2,12.6,26.6c9.4,8.7,16,12.9,25,0.9c6.1-11.5,5.5-20.9,2.6-34.3
		c-3.7-16.9-4.5-20.8-17.4-32.7c-12.2-5.6-18.7-1-22.5,11.8C252,287.5,254,302.9,254.1,306.6z M318.7,194.9
		c8.5-0.4,14.4-4.8,14-10.3c-0.4-5.5-8-10.6-15.1-10.3c-5.3,0.3-8.4,4.5-8.1,11C309.9,191.3,313.6,195.2,318.7,194.9z M215.4,196
		c0.2-1.4-0.2-2.8-1-4c-1.8-2.6-3.2-5-5.2-6.4c-3.9-2.7-8-0.5-10.6,2.6c-2.1,2.5-4.7,6.7-3.9,9.2c1.1,3.8,3.8,8.3,7.7,10.1
		c2.1,1,8.1-1.3,8.6-2C213.7,202,214.8,200.5,215.4,196z M253.8,224.2c-5.8,0.5-7.9,3.8-9,7.8c-1.3,4.9,0.6,10.6,3.9,11.9
		c1.5,0.6,3.7,0.5,5.1-0.2c5.9-2.9,7.8-12.1,3.5-17.2C256.3,225.2,254.5,224.6,253.8,224.2z M283.9,229.7c0,4.1,4.5,9.6,7.9,9.7
		c3.8,0.1,7.6-4,7.7-8.4c0.1-4.9-3.9-9.7-8-9.6C287.5,221.5,283.9,225.4,283.9,229.7z"/>
	<path d="M148.2,485.5c2.1-23.3,4.5-45.6,6-68c1.9-28.2,3.1-56.5,4.7-84.8c1-18.6-6-34.8-14.6-50.6c-6.8-12.6-13.4-25.3-19.8-38.1
		c-13.7-27.2-20.1-56-16.8-86.5c0.6-5.3,2.4-10.7,4.7-15.6c3.1-6.6,7.1-12.8,11.1-18.9c3.5-5.4,7.6-7,13.3-5.5
		c-0.8,8.7-1.6,17.4-2.5,26.2c-3.2,30.7,0.7,60,18.2,86.1c7.8,11.6,17.3,22,25.3,33.4c7.8,11.1,16.1,22.2,21.6,34.5
		c7,15.6,7.5,32.3,3.4,49.3c-6.4,26.7-7,54.1-8,81.4c-0.3,9.3-0.5,18.7-1.1,28c-0.6,8.6-4.4,15.7-11.7,20.5
		C171.9,483.5,160.4,484.7,148.2,485.5z"/>
	<path d="M384.6,486.2c-2.2-12-4.2-23-6.2-34.1c-4.6-26-8.1-52.3-14-77.9c-6.1-26.4-1.2-50.4,11-73.7c6.4-12.2,12.2-24.8,18.9-36.8
		c11.9-21.8,16.5-45.3,16.5-69.7c0-20.8-1.2-41.6-1.9-62.4c-0.1-3.8-1-7.9,3.9-9.7c4.2-1.5,10.8-0.4,13.1,3.6
		c3.5,6.1,7.4,12.5,8.7,19.3c5.1,25.4,9.2,50.9,13.5,76.4c0.4,2.5,0,5.4-1,7.7c-2.4,5.5-5.4,10.7-8.1,16
		c-8.1,15.8-16.1,31.7-24.2,47.5c-2.2,4.2-4.5,8.4-6.8,12.6c-15.7,27.7-16.4,56.4-6.6,86.3c5.9,18,10.8,36.3,15.7,54.6
		c4.3,16.4-1.3,27.6-16.6,34.4C395.6,482.2,390.7,483.8,384.6,486.2z"/>
	<path d="M348.2,398.4c1.2,2.9,2.1,4.4,2.6,6.1c8,26.4,15.9,52.8,23.8,79.2c0.5,1.6,1,3.2,1.7,4.7c3.5,7.7,8.6,10,16.1,6
		c8.9-4.8,17.3-10.5,25.9-15.9c1.2-0.8,2.5-1.5,4.3-2.6c1.3,8.4,2.5,16.3,3.7,24.3c-92.8,0-185.5,0-276,0c7.2-1.4,16.7-2.6,25.8-5.1
		c18-5.1,28.1-17.3,29-36.2c0.9-19.6,1.3-39.3,1.8-58.9c0.5-15.1,0.6-30.3,6-44.8c0.5-1.3,1.7-2.4,2.5-3.6c0.6,1.4,1.7,2.7,1.7,4.1
		c0.9,17,1.5,33.9,6.2,50.4c7.1,25,19.3,47.3,34.6,68.2c2.5,3.4,4.6,6.9,7.3,10.1c8.6,10.3,19.9,11.6,29.7,2.7
		c13.1-11.9,25-25.2,32.9-41.1c6.8-13.7,12-28.1,18-42.1C346.3,402.4,346.9,401.1,348.2,398.4z"/>
	<path d="M138.8,500.3c-24.8,0-49.5,0-74.9,0c0-6.3-0.2-12.4,0-18.5c0.9-26.4,3.8-52.4,12.9-77.4c7.3-20.1,20.8-34.2,40.3-42.5
		c7.8-3.3,15.9-5.7,24.6-8.8c-0.4,7.5-0.5,13.9-1,20.3c-2.5,30.7-5,61.3-7.6,92c-0.6,7.3-1.2,14.6-1.6,21.9
		C131.2,493.1,131.9,498.4,138.8,500.3z"/>
	<path d="M279.4,471.9c-11.4-21.3-22.6-42.1-34.2-63.7c2.1,0,3.6-0.5,4.6,0.1c22.4,11.7,45.3,11.7,68.6,3c0.4-0.2,0.9-0.1,2-0.2
		C311.9,434.9,298.9,455.1,279.4,471.9z"/>
	<path d="M283.9,316.4c-0.5,2.1-1,5.1-2,7.9c-1.5,4.3-5.1,5.2-8.1,1.9c-1.7-1.8-3.3-3.9-4-6.2c-3.9-11.6-5.7-23.6-3.9-35.8
		c0.3-1.8-0.7-3.7,2.4-5.1c1.9-0.8,3.6,1.8,4.6,3.2C279.5,292.4,282.8,303.6,283.9,316.4z"/>
</g>
</svg>
