<?xml version="1.0" encoding="utf-8"?>
<!-- Generator: Adobe Illustrator 24.0.0, SVG Export Plug-In . SVG Version: 6.00 Build 0)  -->
<svg version="1.1" id="Layer_1" xmlns="http://www.w3.org/2000/svg" xmlns:xlink="http://www.w3.org/1999/xlink" x="0px" y="0px"
	 viewBox="0 0 512 512" style="enable-background:new 0 0 512 512;" xml:space="preserve">
<path d="M391.8,224.1c-0.7,24.1-2.7,48.1-10.7,70.5c-6.1,17-14.3,33-22.4,49.1c-12.1,24-25.1,47.4-31.2,74.4
	c-1.2,5.2-2,10.5-3.2,15.6c-7.5,33.2-32.6,66.8-63.8,59.3c-13.7-3.3-27.6-15.3-32.6-30.2c-4-12.2-5.5-36.9-8.2-49.5
	c-6.4-29.7-15.1-62.3-33.7-84.7c-18.3-22.2-35.2-39.7-46.4-67.4c-9.4-23.1-12.8-40-14-65.5c-1.7-39.6-4.9-81.3,16.7-111.7
	c14.7-20.6,51.3-50.7,74.9-58C268.4,10,315,29.8,356.8,65.7c15.2,13.1,20.9,35.4,27,54.7c8.9,28,6.8,59.1,8.1,88.9
	C392,214.2,391.8,219.2,391.8,224.1z M238.3,370.8c4.6,20.4,8.3,26.4,13.5,31.6c10.1,10.3,17.1,15.3,26.7,1.1
	c6.5-13.7,5.9-24.8,2.8-40.8c-4-20.1-4.8-24.7-18.6-38.9c-13.1-6.7-20-1.2-24.1,14C236,348.1,238.1,366.4,238.3,370.8z M307.4,238.1
	c9.1-0.5,15.4-5.7,15-12.2c-0.4-6.5-8.6-12.6-16.2-12.2c-5.7,0.4-9,5.3-8.7,13.1C297.9,233.8,301.9,238.5,307.4,238.1z M196.9,239.4
	c0.2-1.7-0.2-3.3-1.1-4.8c-1.9-3.1-3.4-5.9-5.6-7.6c-4.2-3.2-8.6-0.6-11.3,3.1c-2.2,3-5,8-4.2,10.9c1.2,4.5,4.1,9.9,8.2,12
	c2.2,1.2,8.7-1.5,9.2-2.4C195,246.5,196.2,244.8,196.9,239.4z M237.9,272.9c-6.2,0.6-8.5,4.5-9.6,9.3c-1.4,5.8,0.6,12.6,4.2,14.1
	c1.6,0.7,4,0.6,5.5-0.2c6.3-3.4,8.3-14.4,3.7-20.4C240.6,274.1,238.7,273.4,237.9,272.9z M270.1,279.4c0,4.9,4.8,11.4,8.5,11.5
	c4.1,0.1,8.1-4.8,8.2-10c0.1-5.8-4.2-11.5-8.6-11.4C274,269.7,270.1,274.3,270.1,279.4z"/>
<path d="M150.9,498.4c0.6-25,0.8-58.7,0.5-89c-0.3-19.9-8.9-36.7-19.2-53c-8.2-13-16.1-26-23.9-39.2c-16.6-28.1-25.5-58.3-24.1-91.1
	c0.3-5.7,1.8-11.6,3.9-17c2.8-7.3,6.7-14.2,10.5-21c3.3-6,7.6-8,13.8-6.8c-0.2,9.3-0.5,18.7-0.8,28.1c-1.2,33,5,64,25.6,90.6
	c9.2,11.8,20,22.2,29.4,33.8c9.1,11.3,18.8,22.5,25.5,35.3c8.6,16.1,10.3,33.9,7.2,52.4c-4.9,29-1.9,32.6-1.9,42.5
	c0,9.2,8.8,27.1,1.4,32.8C188.4,504.6,166.3,500.6,150.9,498.4z"/>
<path d="M349.3,489.2c-2.4-12.8,0.5-34.4-5.8-61.8c-6.5-28.2,7.5-44.7,20.5-69.6c6.8-13.1,13.1-26.5,20.2-39.4
	c12.7-23.3,17.7-48.5,17.7-74.6c0-22.3-1.3-44.5-2-66.8c-0.1-4.1-1.1-8.5,4.2-10.4c4.5-1.6,11.6-0.4,14,3.9
	c3.7,6.5,7.9,13.4,9.3,20.6c5.5,27.2,9.8,54.5,14.4,81.7c0.4,2.7,0,5.8-1.1,8.2c-2.6,5.9-5.8,11.4-8.7,17.1
	c-8.7,16.9-17.2,33.9-25.9,50.8c-2.4,4.5-4.8,9-7.3,13.5c-16.8,29.6-17.5,60.3-7.1,92.3c6.3,19.3-0.2-4,5,15.6
	c4.6,17.5-2.7,17.6-20.6,21.2C357.3,494.7,350.7,498.7,349.3,489.2z"/>
</svg>
