<svg xmlns="http://www.w3.org/2000/svg" viewBox="0 0 576.27 341.66"><defs><style>.cls-1{fill:#fff;}</style></defs><title>Asset 1</title><g id="Layer_2" data-name="Layer 2"><g id="Layer_1-2" data-name="Layer 1"><path class="cls-1" d="M132,240c2.58-3.53,4.37-6.86,7-9.3,2.15-2,5.23-4,8-4.13,12.78-.75,25.61-.66,38.4-1.34a37.12,37.12,0,0,0,12.88-2.91c12.12-5.39,23.81-11.76,36-17a200.24,200.24,0,0,0,37.08-21.12c6.08-4.3,6.47-8.27.89-13.38-3.69-3.39-8.3-5.78-13.25-9.12,7.8-8.15,18.49-10.42,28.69-10.2,10,.21,21.27.89,28.14,10.66-4.78,2.82-9.08,5-13,7.77-4.49,3.16-4.93,10.51-.49,13.39a326.91,326.91,0,0,0,29,17.36c14.5,7.41,29.38,14.08,44.23,20.78a35.52,35.52,0,0,0,12.19,3.45c14,.83,28,1,41.92,1.57,1.55.06,3.59.48,4.51,1.52,3.15,3.54,5.89,7.42,9.2,11.7-5.2,2.42-5.86,5.88-4.29,10,1.41,3.7,2.9,7.36,4.32,10.94-7.8,5.43-8.09,6.82-4.53,15.44,4.12,10,8,20.1,12,30.14,3.9,9.73,7.81,19.46,11.82,29.15,2.24,5.42,4.92,6.72,10.44,4.59,12.05-4.65,24-9.65,36-14.35,20.43-8,40.92-15.8,61.36-23.76,4.91-1.91,6.78-5.77,5.14-10.75-1.3-3.94-3.08-7.73-4.64-11.58C564,262,557,244.36,549.59,226.93c-.89-2.09-4.57-4.82-6.26-4.41-6.63,1.64-7.16-2.74-8.3-7-2-7.52-5.52-11.29-13.15-6.83-2.75,1.61-4.63.86-5.87-2.09-1.42-3.38-2.46-7.12-4.68-9.9-5.19-6.51-4.88-13.85-4.66-21.43.56-19.88,1.22-39.76,1.2-59.65a254.86,254.86,0,0,0-2.14-32.78c-1.86-14.4-6.28-28.23-17.43-38.23a291.85,291.85,0,0,0-31.39-24.59A115.08,115.08,0,0,0,388.69,0a438.62,438.62,0,0,0-59.1,4.63A151.84,151.84,0,0,0,312.06,8.4c-4.36,1.22-9.53,3.32-9.23,8.41.19,3.24,3.66,6.62,6.32,9.28,2.12,2.11,5.23,3.22,7.87,4.77-8.67,16-53,16.08-59.14.87,4.51-4,8.95-7.65,12.91-11.74.9-.93.89-4.43,0-5.08-3.34-2.54-6.95-5.37-10.88-6.32-11.27-2.73-22.67-5.66-34.17-6.54C208.55.71,191.19.86,173.89.79a85.2,85.2,0,0,0-17.26,2c-14.72,3-27.9,10-40.07,18.37a247.19,247.19,0,0,0-31,25.08c-13.11,12.57-17.67,29.59-18,46.91-.56,29.76.67,59.54,1,89.32A18.44,18.44,0,0,1,67.19,190c-2.24,5-5.47,9.58-7.39,14.68-1.81,4.79-4.1,6.37-8.81,4s-7.6-.4-9.45,4c-1.16,2.76-2,5.7-3.59,8.2-.84,1.34-3.13,2.9-4.39,2.63-4.33-.93-6.88.89-8.36,4.46-3.26,7.81-6.23,15.73-9.38,23.58C10.81,264,5.6,276.45.84,289c-1,2.79-.94,6.21-.61,9.26.16,1.38,1.91,3.11,3.36,3.74,8.61,3.75,17.29,7.36,26,10.76,24.18,9.41,48.44,18.63,72.6,28.08,4.69,1.83,7.87.41,10-3.67a103.55,103.55,0,0,0,3.79-9.72c3.86-9.88,7.67-19.78,11.61-29.64,3.14-7.84,6.15-15.76,9.77-23.39,2.46-5.2,2.79-6.76-2-9.78-3.78-2.37-4.44-4.77-2-8.38.81-1.23,1.1-2.79,1.82-4.1C137.73,247.43,137.67,243.28,132,240Z"/><path d="M132,240c5.7,3.3,5.76,7.45,3.14,12.21-.72,1.31-1,2.87-1.82,4.1-2.41,3.61-1.75,6,2,8.38,4.83,3,4.5,4.58,2,9.78-3.62,7.63-6.63,15.55-9.77,23.39-3.94,9.86-7.75,19.76-11.61,29.64a103.55,103.55,0,0,1-3.79,9.72c-2.09,4.08-5.27,5.5-10,3.67-24.16-9.45-48.42-18.67-72.6-28.08-8.75-3.4-17.43-7-26-10.76-1.45-.63-3.2-2.36-3.36-3.74-.33-3.05-.44-6.47.61-9.26,4.76-12.58,10-25,15-37.49C19,243.69,21.94,235.77,25.2,228c1.48-3.57,4-5.39,8.36-4.46,1.26.27,3.55-1.29,4.39-2.63,1.57-2.5,2.43-5.44,3.59-8.2,1.85-4.41,4.83-6.33,9.45-4s7,.79,8.81-4C61.72,199.56,65,195,67.19,190a18.44,18.44,0,0,0,1.43-7.54c-.36-29.78-1.59-59.56-1-89.32.32-17.32,4.88-34.34,18-46.91a247.19,247.19,0,0,1,31-25.08c12.17-8.38,25.35-15.33,40.07-18.37a85.2,85.2,0,0,1,17.26-2c17.3.07,34.66-.08,51.88,1.26,11.5.88,22.9,3.81,34.17,6.54,3.93.95,7.54,3.78,10.88,6.32.86.65.87,4.15,0,5.08-4,4.09-8.4,7.72-12.91,11.74,6.17,15.21,50.47,15.15,59.14-.87-2.64-1.55-5.75-2.66-7.87-4.77-2.66-2.66-6.13-6-6.32-9.28-.3-5.09,4.87-7.19,9.23-8.41a151.84,151.84,0,0,1,17.53-3.75A438.62,438.62,0,0,1,388.69,0a115.08,115.08,0,0,1,68.22,20A291.85,291.85,0,0,1,488.3,44.65c11.15,10,15.57,23.83,17.43,38.23a254.86,254.86,0,0,1,2.14,32.78c0,19.89-.64,39.77-1.2,59.65-.22,7.58-.53,14.92,4.66,21.43,2.22,2.78,3.26,6.52,4.68,9.9,1.24,3,3.12,3.7,5.87,2.09,7.63-4.46,11.12-.69,13.15,6.83,1.14,4.22,1.67,8.6,8.3,7,1.69-.41,5.37,2.32,6.26,4.41C557,244.36,564,262,571.05,279.54c1.56,3.85,3.34,7.64,4.64,11.58,1.64,5-.23,8.84-5.14,10.75-20.44,8-40.93,15.78-61.36,23.76-12,4.7-24,9.7-36,14.35-5.52,2.13-8.2.83-10.44-4.59-4-9.69-7.92-19.42-11.82-29.15-4-10-7.89-20.14-12-30.14-3.56-8.62-3.27-10,4.53-15.44-1.42-3.58-2.91-7.24-4.32-10.94-1.57-4.11-.91-7.57,4.29-10-3.31-4.28-6.05-8.16-9.2-11.7-.92-1-3-1.46-4.51-1.52-14-.56-28-.74-41.92-1.57a35.52,35.52,0,0,1-12.19-3.45c-14.85-6.7-29.73-13.37-44.23-20.78a326.91,326.91,0,0,1-29-17.36c-4.44-2.88-4-10.23.49-13.39,3.91-2.76,8.21-5,13-7.77-6.87-9.77-18.13-10.45-28.14-10.66-10.2-.22-20.89,2.05-28.69,10.2,4.95,3.34,9.56,5.73,13.25,9.12,5.58,5.11,5.19,9.08-.89,13.38a200.24,200.24,0,0,1-37.08,21.12c-12.19,5.19-23.88,11.56-36,17a37.12,37.12,0,0,1-12.88,2.91c-12.79.68-25.62.59-38.4,1.34-2.78.17-5.86,2.14-8,4.13C136.34,233.12,134.55,236.45,132,240ZM378.8,164.33a66.6,66.6,0,0,0,67-66c.36-41.33-31.28-68.11-66.95-68.11-37.82,0-66.19,29.46-67.1,66C310.83,133.67,343.44,164.94,378.8,164.33Zm-250-67.05a66.67,66.67,0,0,0,66.13,67.31c36.16.43,68.22-28.33,67.82-67.23-.37-36.88-28.72-67-68-66.58C156.92,31.23,129.76,60.09,128.8,97.28Z"/><path class="cls-1" d="M378.8,164.33c-35.36.61-68-30.66-67-68.07.91-36.56,29.28-66,67.1-66,35.67,0,67.31,26.78,66.95,68.11A66.6,66.6,0,0,1,378.8,164.33ZM318.08,100.6c.26,3.48.36,7,.79,10.44,3.74,30,38.36,49,61.69,46.48,37.33-4,67.53-32.86,57.5-81.67-2.47-12-10.85-20.44-20.19-27-20-14.17-42.25-17.3-65.28-8.18a49.53,49.53,0,0,0-26.67,25.17A82.55,82.55,0,0,0,318.08,100.6Z"/><path class="cls-1" d="M128.8,97.28c1-37.19,28.12-66,65.92-66.5,39.31-.47,67.66,29.7,68,66.58.4,38.9-31.66,67.66-67.82,67.23A66.67,66.67,0,0,1,128.8,97.28Zm123.44-4c.24-12.23-1.2-19.51-5.33-26.52C229.51,37.2,190.47,30,166.41,40.41c-26.64,11.54-35.57,33-35.58,63.14,0,30.84,31.86,57.53,62.52,54.33C224.54,154.62,254,131,252.24,93.29Z"/><path class="cls-1" d="M318.08,100.6a82.55,82.55,0,0,1,7.84-34.81,49.53,49.53,0,0,1,26.67-25.17c23-9.12,45.24-6,65.28,8.18,9.34,6.61,17.72,15.05,20.19,27.05,10,48.81-20.17,77.64-57.5,81.67C357.23,160,322.61,141.07,318.87,111,318.44,107.58,318.34,104.08,318.08,100.6Zm64.5-12.06a43.87,43.87,0,0,0,5.32-3.65c1.24-1.13,2.94-2.89,2.77-4.16s-2.07-2.9-3.57-3.7a13,13,0,0,0-5.28-1.21c-9.81-.56-18.23,2.73-24.15,10.57-11.13,14.74-17.89,31.13-16.56,50a7.35,7.35,0,0,0,2.63,4.88c11.61,8.31,24.39,12.68,38.9,11,3.07-.35,4-1.6,3.81-4.48-.22-4.14-.33-8.31-.18-12.46.31-8.39.83-16.78,1.27-25.17-7.67.27-10.48-2.57-9.07-10.11.75-4,2.75-7.79,4.19-11.68Zm-8.46-30.73c-6.31-2.83-8.78-1.72-10.68,5a22.52,22.52,0,0,0-.73,5.91c-.07,6.48.61,7,6.8,5.4,7.79-2,15.41-2.51,22.56,2.2a3.77,3.77,0,0,0,2.32.58c3.57-.45,8.29-7.84,7.88-12.2s-3.28-6.32-9.08-5.93c-.79,0-1.58,0-2.28,0C388.15,48.31,383.45,45.85,374.12,57.81Zm9.33,48.33c4.72-2.71,6.66-10.46,4.41-16.24C384.3,94.75,381.94,99.5,383.45,106.14Zm9.88-15.46c-.8,4.76-1.48,8.88-2.19,13.12C397.19,103.48,397.83,99.54,393.33,90.68Zm7.06.5,1.3-1.34c-2.13-2-4.09-4.19-6.5-5.7-.62-.39-2.64,1.43-4.85,2.72Z"/><path class="cls-1" d="M252.24,93.29c1.77,37.68-27.7,61.33-58.89,64.59-30.66,3.2-62.53-23.49-62.52-54.33,0-30.18,8.94-51.6,35.58-63.14,24.06-10.43,63.1-3.21,80.5,26.36C251,73.78,252.48,81.06,252.24,93.29ZM200.08,111c-8.18-.31-10.94-4.11-8.82-12.11,1.52-5.74,3.85-10.8,9.47-14,3.61-2.06,3.26-5.24-.37-7.29a11.81,11.81,0,0,0-4.72-1.41c-9.5-.76-18.13,1.68-24.21,9.21-12,14.81-19.05,31.56-17.49,51a9.09,9.09,0,0,0,3.52,5.92c10.52,7.28,22.06,11.39,35.14,10.4,6.67-.51,6.65-.28,6.09-7.07a48.51,48.51,0,0,1-.16-6.49C199,129.91,199.54,120.64,200.08,111ZM185.23,57.42c-5.29-2.09-7.5-1-9.41,6.44a24.73,24.73,0,0,0-.86,5.38c-.15,5.6,1.28,6.66,6.8,5.32,7.89-1.92,15.63-2.83,23,2.07,1,.64,3.66.29,4.33-.56,2.18-2.77,4.47-5.78,5.47-9.07a6,6,0,0,0-6.67-7.94c-4,.51-5-1.25-6.14-4.43-1.75-5-4.21-5.73-8.76-2.94C190.46,53.24,188.2,55.2,185.23,57.42Zm16.13,32.69c-5.77,5.88-7.13,12.48-3.71,16.13C201.67,101.76,201.41,96.5,201.36,90.11Zm5.56.87-1,.11c-.61,3.31-1.4,6.6-1.73,9.94-.1,1,1,2.23,1.62,3.36.87-1,2.52-2,2.48-3C208.11,97.91,207.41,94.45,206.92,91Zm-4.07-3.81,10.66,4.62,1.06-1.33c-2.21-2.06-4.26-4.38-6.75-6C207.21,84.05,205.14,85.86,202.85,87.17Z"/><path class="cls-1" d="M382.66,88.45c-1.44,3.89-3.44,7.67-4.19,11.68-1.41,7.54,1.4,10.38,9.07,10.11-.44,8.39-1,16.78-1.27,25.17-.15,4.15,0,8.32.18,12.46.15,2.88-.74,4.13-3.81,4.48-14.51,1.63-27.29-2.74-38.9-11a7.35,7.35,0,0,1-2.63-4.88c-1.33-18.9,5.43-35.29,16.56-50,5.92-7.84,14.34-11.13,24.15-10.57A13,13,0,0,1,387.1,77c1.5.8,3.39,2.3,3.57,3.7s-1.53,3-2.77,4.16a43.87,43.87,0,0,1-5.32,3.65c.3-1.93,1-3.9.77-5.77a5.39,5.39,0,0,0-2.5-3.25c-.69-.42-2.93.14-3,.52a26.58,26.58,0,0,0-.44,7.79C377.46,88.25,380.82,88.26,382.66,88.45Z"/><path class="cls-1" d="M374.12,57.81c9.33-12,14-9.5,16.79,1,.7,0,1.49,0,2.28,0,5.8-.39,8.66,1.47,9.08,5.93S398,76.5,394.39,77a3.77,3.77,0,0,1-2.32-.58c-7.15-4.71-14.77-4.19-22.56-2.2-6.19,1.59-6.87,1.08-6.8-5.4a22.52,22.52,0,0,1,.73-5.91C365.34,56.09,367.81,55,374.12,57.81Z"/><path class="cls-1" d="M383.45,106.14c-1.51-6.64.85-11.39,4.41-16.24C390.11,95.68,388.17,103.43,383.45,106.14Z"/><path class="cls-1" d="M393.33,90.68c4.5,8.86,3.86,12.8-2.19,13.12C391.85,99.56,392.53,95.44,393.33,90.68Z"/><path class="cls-1" d="M400.39,91.18l-10.05-4.32c2.21-1.29,4.23-3.11,4.85-2.72,2.41,1.51,4.37,3.74,6.5,5.7Z"/><path class="cls-1" d="M200.08,111c-.54,9.64-1.09,18.91-1.55,28.19a48.51,48.51,0,0,0,.16,6.49c.56,6.79.58,6.56-6.09,7.07-13.08,1-24.62-3.12-35.14-10.4a9.09,9.09,0,0,1-3.52-5.92c-1.56-19.48,5.53-36.23,17.49-51,6.08-7.53,14.71-10,24.21-9.21a11.81,11.81,0,0,1,4.72,1.41c3.63,2,4,5.23.37,7.29-5.62,3.21-7.95,8.27-9.47,14C189.14,106.89,191.9,110.69,200.08,111Zm-2.3-26.51-5.6-4.89C191,81.32,189,83,188.91,84.78c-.09,1.57,1.94,3.25,3,4.89Z"/><path class="cls-1" d="M185.23,57.42c3-2.22,5.23-4.18,7.75-5.73,4.55-2.79,7-2,8.76,2.94,1.12,3.18,2.13,4.94,6.14,4.43A6,6,0,0,1,214.55,67c-1,3.29-3.29,6.3-5.47,9.07-.67.85-3.37,1.2-4.33.56-7.36-4.9-15.1-4-23-2.07-5.52,1.34-6.95.28-6.8-5.32a24.73,24.73,0,0,1,.86-5.38C177.73,56.45,179.94,55.33,185.23,57.42Z"/><path class="cls-1" d="M201.36,90.11c0,6.39.31,11.65-3.71,16.13C194.23,102.59,195.59,96,201.36,90.11Z"/><path class="cls-1" d="M206.92,91c.49,3.47,1.19,6.93,1.33,10.41,0,1-1.61,2-2.48,3-.58-1.13-1.72-2.31-1.62-3.36.33-3.34,1.12-6.63,1.73-9.94Z"/><path class="cls-1" d="M202.85,87.17c2.29-1.31,4.36-3.12,5-2.72,2.49,1.63,4.54,4,6.75,6l-1.06,1.33Z"/><path d="M382.66,88.45c-1.84-.19-5.2-.2-5.25-.62a26.58,26.58,0,0,1,.44-7.79c.07-.38,2.31-.94,3-.52a5.39,5.39,0,0,1,2.5,3.25c.2,1.87-.47,3.84-.77,5.77Z"/><path d="M197.78,84.49,192,89.67c-1.1-1.64-3.13-3.32-3-4.89.1-1.78,2.1-3.46,3.27-5.18Z"/><circle cx="195.8" cy="98.18" r="59.7"/><path class="cls-1" d="M158.46,139.69S155.72,124.56,164,107s21.9-29.47,33.31-28.71,11,5.87,11.65,7.47c-1.52,1.23-2.27,1.85-2.56,2.67-1.7.37-6.84,1.74-9.3,10.13s-.93,17.1,8.85,11.11c-1.16,7.42-4.07,27.91-1.64,43.56C189.67,154.29,172,152.25,158.46,139.69Z"/><path class="cls-1" d="M197,76.34c4.4.18,9.15,1.4,12.29,3.51s7.41-5.27,8.62-7.12,2.54-15.25-10.59-9.53c-.52-2.53-1.32-9.26-5.85-9.37s-8.12,2.8-10,9c-2.11-2.27-3-3.11-6-2.75s-5.66,7.57-5.1,12.91c.42,4,1.06,6.84,7.46,5S194.21,76.22,197,76.34Z"/><path class="cls-1" d="M206.33,91.46c1.2,0,.61,18.39-5.56,17.66S201.24,91.66,206.33,91.46Z"/><path class="cls-1" d="M209,92.88c-.15,2.07-.87,8.11-1.3,10.75s-1.06,4.64,2.19,3.4,2.49-3.39,2.13-6.79S209.23,90.11,209,92.88Z"/><path class="cls-1" d="M209.94,87.18a3.93,3.93,0,0,1,4.6,1.26c2,2.28,4.4,5.19,3,6.17s-2-1-5.12-2.36a21.76,21.76,0,0,0-3.93-1.42c-.54-.17-1.33-1.23-.19-2.44S209.94,87.18,209.94,87.18Z"/><path d="M194.33,85.32c-.68,2.8-.56,6.08,1.62,6.5s3.57-2.1,3.68-4.36-.11-4.36-2.27-4.4A3.29,3.29,0,0,0,194.33,85.32Z"/><circle cx="377.28" cy="98.18" r="59.7"/><path class="cls-1" d="M340,139.69s-2.74-15.13,5.49-32.68,21.9-29.47,33.31-28.71,10.95,5.87,11.64,7.47c-1.51,1.23-2.26,1.85-2.55,2.67-1.71.37-6.84,1.74-9.3,10.13s-.94,17.1,8.84,11.11c-1.16,7.42-4.06,27.91-1.64,43.56C371.15,154.29,353.46,152.25,340,139.69Z"/><path class="cls-1" d="M378.48,76.34c4.4.18,9.15,1.4,12.29,3.51s7.41-5.27,8.62-7.12,2.53-15.25-10.6-9.53c-.51-2.53-1.32-9.26-5.85-9.37s-8.12,2.8-10,9c-2.11-2.27-3-3.11-6-2.75S361.24,67.69,361.8,73c.43,4,1.07,6.84,7.46,5S375.69,76.22,378.48,76.34Z"/><path class="cls-1" d="M387.81,91.46c1.2,0,.61,18.39-5.56,17.66S382.73,91.66,387.81,91.46Z"/><path class="cls-1" d="M390.52,92.88c-.14,2.07-.87,8.11-1.29,10.75s-1.06,4.64,2.18,3.4,2.49-3.39,2.14-6.79S390.71,90.11,390.52,92.88Z"/><path class="cls-1" d="M391.43,87.18A3.92,3.92,0,0,1,396,88.44c2,2.28,4.4,5.19,3,6.17s-1.95-1-5.12-2.36A21.76,21.76,0,0,0,390,90.83c-.53-.17-1.33-1.23-.19-2.44S391.43,87.18,391.43,87.18Z"/><path d="M375.81,85.32c-.68,2.8-.55,6.08,1.62,6.5s3.58-2.1,3.69-4.36-.12-4.36-2.28-4.4A3.29,3.29,0,0,0,375.81,85.32Z"/></g></g></svg>