<svg xmlns="http://www.w3.org/2000/svg" viewBox="0 0 440.97 260.33"><defs><style>.cls-1{fill:#fff;}</style></defs><title>Asset 1</title><g id="Layer_2" data-name="Layer 2"><g id="Layer_1-2" data-name="Layer 1"><path d="M.92,229.23A12,12,0,0,1,1.38,219a33,33,0,0,0,3.09-8.2c.48-2.22,1.76-4.39,2.63-6.61,1.41-3.57,3.18-7,4.08-10.77,2-1.42,1.7-3.9,2.47-5.85,1-2.45,2.38-4.7,2.88-7.43.44-2.39,2-4.57,3.21-6.8,1.57-3,2.91-3.54,6.16-2.52,2.06.65,2.67.35,3.33-1.71a37.11,37.11,0,0,1,3.4-8c1.9-3.13,2-3.29,5.47-2.12l5.3,1.81c.31-.45.84-1.16,1.29-1.91a36.35,36.35,0,0,0,1.92-4.36c.55-1.27,1.32-2.58,2-3.92a25.25,25.25,0,0,1,3.37-5.88c2.25-2.55,1.32-5.19,1-7.89-.08-.66-.42-1.3-.44-2-.31-9.91-.69-19.81-.84-29.72-.14-9,0-18.05,0-27.07a63.25,63.25,0,0,1,1.57-14.36c.46-2.07.25-4.62,1.22-6.38,1.07-2-.25-4.28,1.52-5.84A44,44,0,0,1,63,38.09c1.84-2.44,3.61-4.74,6.33-6.37s4.11-4.51,6.93-6.09c2.26-1.27,4-3.45,6.09-5.05A73,73,0,0,1,94.15,12.9c3.7-1.84,7.11-4.27,10.73-6.28a19.14,19.14,0,0,1,4.17-1.32c.4-.11,1,.16,1.26,0,3.26-2.67,7.56-2.49,11.19-4.13a2,2,0,0,1,.8-.13c3.48-.07,7,.33,10.39-.87,10.45,0,20.91-.14,31.36.11,2.27.06,4.58.9,6.95.76s4.69.65,6.91,1.08,4.48.09,6.54.71c2.74.84,5.6.83,8.34,1.6,4.23,1.19,8.52,2,12.47,4.19,1.59.91,1.72,2.33,2.71,3.35a1.62,1.62,0,0,1-.1,1.58c-1.73,1.32-2.14,3.63-4.32,4.84s-3.94,2.75-6.36,3.41c-.56.15-1,.91-1.64,1.6,2.07,1.34,4,2.35,4.76,4.58.08.26.65.34,1,.56,1.75,1.29,4,1,5.92,2.42,1.46,1.07,3.94.94,6,1,2.23,0,4.2,1.14,6.52,1,4.4-.28,8.69-1.21,13-1.79,2.17-1.87,5.35-1.85,7.35-4.08a51,51,0,0,1,4.07-3.64c-.42-1.75-2.23-2-3.64-2.56a20.42,20.42,0,0,1-7.6-6c-1.37-2-.54-3.54.45-5.16,1.15-1.89,3.37-2.26,5.1-3.26a10.57,10.57,0,0,1,4.7-1c2.22-.1,4.2-1,6.28-1.5a8.19,8.19,0,0,1,1.17-.26c3-.3,6.07-.53,9.1-.89,1.18-.14,2.33-.58,3.51-.83s2.58.53,3.58-.73c.12-.16.53-.17.79-.13,4.24.64,8.32-1,12.54-.9,6.87.12,13.76.27,20.62,0a84.23,84.23,0,0,1,15.09,1.12,48.52,48.52,0,0,1,10.6,2.28c2,.75,3.69,2.34,5.78,2.6,2.41.3,4.17,1.74,6.22,2.66s3.75,2.11,5.62,3.06A96.74,96.74,0,0,1,355.65,19c1.43,1,3,1.82,4.36,2.93,2.59,2.14,5,4.43,7.57,6.65,1.45,1.28,2.88,2.56,4.41,3.76a30.51,30.51,0,0,1,7.6,9.25c1.08,1.93,3.21,3.47,2.91,6.09,1.88,2,1.68,4.74,2.53,7.11a43,43,0,0,1,1.73,7c.5,2.84.33,5.86,1.23,8.54.95,2.85.3,5.59.48,8.36.2,3,0,6,.07,9,0,1.34-.59,2.83.79,4,.29.24.21,1.16,0,1.67-1.59,4.24-.56,8.65-.82,13a42.14,42.14,0,0,0,0,5.15c.24,3.52-.56,6.93-.82,10.39s0,7.16-.09,10.74a12.35,12.35,0,0,1-.9,2.89l2.22,1.61-2.14.74c0,1.28.08,2.69,0,4.08-.08,1,.52,1.49.9,2.22,1.4,2.72,3.16,5.21,4.47,8s2,6.18,4.35,8.5c3.21.09,5.53-2.87,8.72-2.43a9.92,9.92,0,0,1,4,7.42c.12,1.67,1.63,3,2.23,4.65.41,1.12,1.72,1.28,2.85.4,1.85-1.45,3.35.16,4.94.68.44.15,1.11.95,1,1.22-.7,2,1.68,2.4,1.86,4,.16,1.39,1.09,2.68,1.63,4,1.22,3.08,2.29,6.23,3.3,9.36.59,1.82,2.13,3.05,2.29,5.1.24,3.1,2.27,5.63,3.3,8.5s2.19,5.68,3.32,8.5c.78,2,1.52,4,2.34,5.91s2.26,3.76,1.91,6.08c1.85,1.64-.16,2.77-.76,3.79a5.36,5.36,0,0,1-3.2,2.39c-2.8.54-5.1,2.3-7.91,2.79-1.67.29-2.9,2-4.67,2.14-2.9.26-5.13,2.16-7.8,3-2.52.78-4.92,2-7.43,2.79-5.06,1.62-9.85,3.93-14.74,5.92-3,1.24-6.62,1.43-9.08,4.08a3.5,3.5,0,0,1-2.28.63c-2.95.08-5.13,2.16-7.83,2.93a77.26,77.26,0,0,0-7.39,2.87c-1.85.73-3.66,1.54-5.53,2.21-.95.34-2.18.88-2.93.54-1.54-.69-3.08-1.4-3.76-3.46-1.1-3.38-3-6.49-4.14-9.87s-2.71-6.91-4.06-10.35c-1.2-3.07-2.18-6.24-3.56-9.27a44.32,44.32,0,0,1-2.91-7c-1.16-4.31-3.25-8.37-5-12.53-.3-.74-.61-1.47-.92-2.21,1.23-2.63,2.22-5.51,6.32-5.29-1.33-3.22-2.56-6.12-3.73-9-2-4.89-.89-5.84,2.89-7.77a37.1,37.1,0,0,0-8.5-11.42c-2.49,0-4.93.09-7.36,0-4.89-.22-9.78-.67-14.68-.81s-10,0-15,0c-2.82,0-5-1.84-7.27-3.16-4.15-2.41-8.54-4.28-12.8-6.42-4-2-8.69-2.73-12.27-5.68-3.58-.25-6-3.54-9.66-3.65-1.89-2-4.78-2.4-6.89-4.19a24.21,24.21,0,0,0-6.19-3.65c-3-1.25-4.92-3.82-7.7-5.25-1.15-.6-2.34-4.33-1.78-5.52.76-1.6.81-3.85,3.26-4.17,2.13-2.73,5.48-3.3,8.37-4.68a4.59,4.59,0,0,1,1.71,0c-2.28-4.84-5-6.92-10-7.7a6.59,6.59,0,0,1-2.26-.81,8.43,8.43,0,0,0-4.33-1,28.66,28.66,0,0,1-5.22-.79c-2.27-.4-4.35.63-6.53.81s-4.47-.15-6.17,1.73c-2-.23-3.61,1.3-5.32,1.59-2.83.48-3.78,2.69-5.43,4.28-.22.2,0,.82,0,1.56,1,.37,2,.88,3.11,1.19,3.78,1.06,6.5,3.64,8.87,6.51,1.77,2.14,1.14,6-1.34,7.13-2.14.93-3,3.19-5.27,3.9a17.64,17.64,0,0,0-5.89,3.32c-1.71,1.45-3.88,2-5.53,3.28a18.89,18.89,0,0,1-6.4,3.24c-2.31.72-4,2.87-6.62,2.72-3.1,2.73-7.22,3.36-10.83,5s-6.82,3.53-10.58,4.54c-1.36.36-2.48,1.59-3.71,2.43-3.19,2.18-6.57,3.77-10.58,3.51h-.43c-5.73,0-11.57-.7-17.15.2s-11,.15-16.73.8c-3.53,3.11-6.11,7.34-9.08,11.76a3.91,3.91,0,0,1,4.19,2.14,5.27,5.27,0,0,1-.5,4.72c-1.28,2.45-1.9,5.23-3.48,7.58-.26.39,0,1.1,0,1.26l6,4.28v3.91c-.48.17-1.37.27-1.42.53-.47,2.53-2.09,4.62-2.72,7a11.13,11.13,0,0,1-1.84,4.4c-1.21,1.52-.44,3.68-1.82,5.29a7.8,7.8,0,0,0-1.64,5.31c-2,1.54-1.16,4.41-2.93,6.12-.49.47-.34,1.55-.67,2.27-1,2.29-2.57,4.44-3.16,6.83s-1.9,4.4-2.59,6.69a16.1,16.1,0,0,1-1,3.44c-1,1.72-1.82,3.59-4.07,4.34a2.67,2.67,0,0,1-2.13-.08c-5.79-1.92-11.26-4.7-17.16-6.31-1.62-2-4.22-1.58-6.23-2.6A74.48,74.48,0,0,0,49,248c-7.79-3-15.35-6.53-23.31-9.11-2-.65-4.44-1.12-6.08-3-.85-1-2.33-.44-3.49-.75-2-.53-3.36-2.13-5.5-2.42-1.75-.23-3.32-1.59-5-2.27A45.36,45.36,0,0,0,.92,229.23ZM290.19,125.86c3.7-.36,7.45-.62,11.17-1.16a18,18,0,0,0,4.28-1A90.7,90.7,0,0,0,320.5,116c3.13-2.07,5.55-4.79,8.06-7.41a48,48,0,0,0,7.75-10.93c1.33-2.51,1.89-5.23,3.11-7.75A17.22,17.22,0,0,0,341.25,82a6.33,6.33,0,0,1,.15-2.51c1.51-3.57.3-7.27.7-10.88-1.15-1-.73-2.29-.89-3.51s-.7-2.62-.8-3.94c-.27-3.42-1.82-6.48-3.18-9.43a39.61,39.61,0,0,0-5.45-8.91c-2.06-2.45-3.86-5.24-6.31-7.21a61,61,0,0,0-12.07-8.12c-2.42-1.15-4.94-2-7.35-3-4.19-1.83-8.6-2.33-13-2.81a33.71,33.71,0,0,0-10,.59,90,90,0,0,0-13.87,4c-6.45,2.31-16.85,10.79-20.65,16.26A58.38,58.38,0,0,0,241.06,57c-.69,2-1.94,4.09-1.93,6,0,3.53-1.15,6.9-1,10.38s.54,7.21.83,10.81a2.61,2.61,0,0,0,.22.77c1.88,4.8,3.08,9.9,5.82,14.34,2.23,3.59,4.46,7.23,7.55,10.18,1.91,1.83,3.94,3.54,6,5.17A48.29,48.29,0,0,0,274,123.05c1.51.47,2.93,1.43,4.46,1.65C282.31,125.24,286.21,125.49,290.19,125.86Zm-140.33,0c4-.37,7.86-.72,11.73-1.13.37,0,.67-.47,1-.57a54.22,54.22,0,0,0,13.51-5.75,51,51,0,0,0,16.36-14.93c3-4.25,4.76-9.18,6.88-13.9.75-1.68,1.74-3.56,1.63-5.28-.26-4,1.29-7.75.95-11.67-.15-1.76-.82-3.5-.78-5.23.11-4.34-1.77-8.13-2.9-12.13-.93-3.28-3.18-5.84-4.58-8.85a20.23,20.23,0,0,0-4.24-6A125.51,125.51,0,0,0,179.23,31c-2.59-2-5.74-2.89-8.36-4.78-.39-.29-1.08-.13-1.58-.31a56.94,56.94,0,0,0-13.17-3.54c-5.49-.71-7.58-.89-12.2,0-1.46.29-2.89.74-4.36.93-1.62.21-3.24,0-4.82.85s-3.28,1.05-4.83,1.8a81.94,81.94,0,0,0-8.44,4.48c-6.32,4.07-7.89,5.62-12.66,11.77a32,32,0,0,0-3.6,5.38c-1.46,3-2.87,6-4.18,9A43.79,43.79,0,0,0,98.14,69.5a38.19,38.19,0,0,0,.52,11.69c.78,3.83,1.29,7.68,2.76,11.36A50.94,50.94,0,0,0,110,107a71.28,71.28,0,0,0,6.67,6.68,30.36,30.36,0,0,0,5.59,4.13c3.48,1.9,7.09,3.58,10.73,5.17a22.67,22.67,0,0,0,5.72,1.7C142.4,125.25,146.16,125.5,149.86,125.86Z"/><path d="M288.9,116.19c-3.67.61-7.93-.94-12.17-1.9-3-.67-5.87-2.48-8.53-4.19a46.31,46.31,0,0,1-15.45-16c-1.31-2.29-2.05-4.89-3.22-7.26-.75-1.51.63-3.47-1.12-4.69-.29-2.89-.94-5.8-.77-8.66a76.14,76.14,0,0,1,1.74-12.59c.48-2.12,2.49-3.81,2.54-6.24,3.91-5.09,6.68-11.2,12.71-14.43,4.28-4.73,10.35-6.17,16-8,3.73-1.22,8-.79,12-1.1,2.72,1.57,5.95.31,8.77,1.67C304,34,307,34.61,309.51,36a64.33,64.33,0,0,1,8.06,5.44,48,48,0,0,1,3.68,3.6c4.55,4.29,7.21,9.74,9.37,15.46A38.48,38.48,0,0,1,331.79,66c.27,1.32.67,2.62.82,4s0,2.57,0,3.86A23.54,23.54,0,0,1,331,83.87c.77,4.29-3.05,7.09-3.56,11-.2,1.49-2.58,1.8-2.52,3.67-2.33,2.62-4.52,5.38-7,7.8a18.38,18.38,0,0,1-6,4.2c-4.61,1.67-8.77,4.43-13.92,4.93C295.25,115.74,292.51,116.08,288.9,116.19Zm1.63-50.25v4.17l3,3.07h4.19l3.12-3V65l-2.13-2.14h-5.18Z"/><path d="M148.68,116.2c-3.64.77-7.79-1.25-12.14-1.76-1.7-1.61-4.26-1.41-6.07-3-1.32-1.2-3.35-1.56-4.92-2.53-5.56-3.43-9.11-8.79-13-13.86-.83-3.63-3.5-6.54-3.61-10.58,0-1.94-1.08-4.11-1.46-6.18a36.15,36.15,0,0,1-.08-6.42,39.37,39.37,0,0,1,6.4-20.09c.56-3.73,4.56-5.07,5.77-8.35,4.34-2.65,7.75-6.62,12.93-8.18,2.47-.75,4.93-1.88,7.44-2.73,1.41-.49,11.38-1.91,12.25-1.35,1.71,1.1,3.5.61,5.26.82a14.82,14.82,0,0,1,4.34.88c4.74,2.13,9.57,3.83,13.79,7.27a50.43,50.43,0,0,1,11.82,14.43c1.89,3.29,2.85,6.85,4.06,10.35a8.28,8.28,0,0,1,.17,2.07c.12,1.77-.31,3.56.79,5.28a4.07,4.07,0,0,1,0,2.94,15.6,15.6,0,0,0-.82,5.67c.14,1.8-1.43,3.33-.85,5.22-1.61,3.48-2.93,7.14-4.91,10.4-2.58,4.23-6.42,7.46-10,10.89-2.34,2.26-5.42,3.4-8.26,4.89a37.69,37.69,0,0,1-9.86,3.2A52.92,52.92,0,0,1,148.68,116.2Zm9.73-53.44c-2,.59-4.4-.95-6,1.17a8.67,8.67,0,0,0-1.89,3.86,4.51,4.51,0,0,0,1.3,3.57c1.67,1.25,3.58,2.63,5.25,2,1.81-1.78,3.12-3.06,4.4-4.33C162.54,66.17,160.52,64.65,158.41,62.76Z"/><circle class="cls-1" cx="146.98" cy="76.62" r="42.12"/><path d="M114.36,43.24a38,38,0,0,1,21.19-12.7A44.79,44.79,0,0,1,150,30.18a78.49,78.49,0,0,1,14.4,3,32.67,32.67,0,0,1,11.81,7.13A55.48,55.48,0,0,1,185.33,50c5.48,8,5.23,18.18,4.48,27.44-1.45,18.16-15.28,32.45-32.36,37.46-9.45,2.76-19.26,2.61-28.32-1.43-8.08-3.62-16.29-9.17-20.87-16.92-4.68-7.94-5.77-17.41-4.68-26.44A74.22,74.22,0,0,1,107,55.52a29.53,29.53,0,0,1,4.65-9.32,28.88,28.88,0,0,1,2.67-3c1.18-1.17-.64-3-1.82-1.82a28.63,28.63,0,0,0-5.84,7.89,65.48,65.48,0,0,0-4.35,13.25c-2.26,9.64-2.62,20,.89,29.38a35.2,35.2,0,0,0,7.28,11.89,53.31,53.31,0,0,0,11.55,8.87,49.3,49.3,0,0,0,13.21,5.64,40.82,40.82,0,0,0,15.26.68c18.62-2.52,35.82-15.45,40.63-34.07a63,63,0,0,0,1.51-15.26c0-5-.24-10.14-2-14.87a33.45,33.45,0,0,0-7.63-11.49A62.41,62.41,0,0,0,172.16,34c-4.25-2.71-9.18-4-14-5a67.65,67.65,0,0,0-16-1.77,40.6,40.6,0,0,0-24.83,9.43,39.08,39.08,0,0,0-4.77,4.77C111.48,42.67,113.29,44.5,114.36,43.24Z"/><path d="M117.19,105.9c-1.4-10.24,1.32-20.7,5.81-29.84,4.16-8.46,9.66-16.94,19.56-18.86,4.79-.93,13.26-1.38,14.35,5,.25,1.51,2.55.87,2.29-.63-1-5.65-7.12-7.5-12.09-7.3a25.27,25.27,0,0,0-15.22,5.29c-4,3.23-6.94,7.68-9.36,12.17a67.54,67.54,0,0,0-6.48,16.09,51.33,51.33,0,0,0-1.15,18.68c.21,1.51,2.5.87,2.29-.63Z"/><path d="M156.42,65.84a4.74,4.74,0,0,1,2.1-1.86,2.1,2.1,0,0,1,2.56.35,11.65,11.65,0,0,1,3.41,4.92L166,67.79l-6.06-2.16a10.34,10.34,0,0,0-5.61-.85c-3.3.7-5.13,4-6.27,6.88-1.2,3-2.66,7.84,0,10.56s6.45.45,7.69-2.43a22,22,0,0,0,1.35-6,43.34,43.34,0,0,0,.33-7,1.19,1.19,0,0,0-2.38,0,40.94,40.94,0,0,1-.74,9.44A8.48,8.48,0,0,1,152.85,80c-.67.82-2,1.52-3,.76s-1-2.51-.84-3.72a21.1,21.1,0,0,1,1.22-4.55c.82-2.11,2.19-4.93,4.67-5.39,1.65-.3,3.38.51,4.9,1.05l5.5,2a1.19,1.19,0,0,0,1.47-1.46c-.95-2.62-2.76-5.54-5.29-6.91s-5.77.74-7.13,2.93c-.81,1.3,1.24,2.5,2,1.2Z"/><path d="M157.3,67.85a13.3,13.3,0,0,1,2.38,7.33c0,1.08,0,2.3-.88,3a5.89,5.89,0,0,1-3.56.88c-1.52,0-1.53,2.43,0,2.38A8.39,8.39,0,0,0,160,80.26a5.11,5.11,0,0,0,2-4.19,15.47,15.47,0,0,0-2.68-9.42c-.86-1.26-2.92-.07-2.06,1.2Z"/><path d="M154.8,80.76a99.74,99.74,0,0,0-2,17.58c-.29,6-.48,12.23.62,18.17.28,1.5,2.57.87,2.3-.63-1.07-5.72-.82-11.77-.54-17.54a95.43,95.43,0,0,1,1.9-17c.34-1.49-1.95-2.13-2.3-.63Z"/><path d="M148.21,60.51A1.77,1.77,0,0,0,146,61a4.42,4.42,0,0,0-.81,1.84,4.09,4.09,0,0,0,.62,3.56,2,2,0,0,0,1.89.65,2.12,2.12,0,0,0,1.43-1.1,4.24,4.24,0,0,0,.44-1.51,7.05,7.05,0,0,0,.07-2.1,2.34,2.34,0,0,0-1.12-1.7,1.94,1.94,0,0,0-2.29.23,2.69,2.69,0,0,0-.76,1.67,8.53,8.53,0,0,0-.12,2,5.41,5.41,0,0,0,.42,2,1.73,1.73,0,0,0,2.05.92c1.61-.48,1.39-2.48,1.43-3.8a4.35,4.35,0,0,0-.31-2.31,2,2,0,0,0-2.23-1,1.53,1.53,0,0,0-1,1.31,7.61,7.61,0,0,0,0,1.07v2.1a1.19,1.19,0,1,0,2.37,0V62.19a1.71,1.71,0,0,0,0-.32c0-.11,0,.12,0,.14-.06.18-.16.22-.33.35s-.24.23-.45.23-.21-.05-.11,0-.24-.12-.14,0-.15-.17-.07-.06.14.15,0,0,0,0,0,0,.09.17,0,0,0,0,0,0c0,.24,0-.06,0-.06a.57.57,0,0,0,0,.13,1.5,1.5,0,0,1,0,.3c0,.85-.06,1.7-.09,2.55,0,.13,0-.11,0-.12a.53.53,0,0,0,0,.12c0,.11,0-.08.05-.1-.09.17,0,0,.06-.06s-.13.09,0,0a.63.63,0,0,1,.21-.12.7.7,0,0,1,.69.17s.13.22.09.12l0-.08c-.08-.11.05-.06,0,.11a.24.24,0,0,0,0-.09c0-.19-.08-.37-.11-.56s0,.09,0,.09l0-.13c0-.11,0-.22,0-.32s0-.43,0-.64,0-.39,0-.59,0,.09,0,.09l0-.13c0-.12,0-.23.07-.35a2.1,2.1,0,0,1,.06-.24s.06-.15,0,0,0,0,0,0,.1-.13,0,0,.13-.07-.08.06,0,0,0,0-.26.09-.1,0-.29,0-.16,0-.27-.06-.13,0-.14-.07-.13-.06l.09,0c.1,0-.1-.08-.11-.09l.1.09s-.13-.21-.09-.11.09.19,0,0,0,0,0,0a.94.94,0,0,1,0,.16c.06.21,0-.21,0,0s0,.39,0,.59,0,.39-.06.58,0-.22,0,0,0,.09,0,.13a2.56,2.56,0,0,1,0,.27c0,.14-.07.27-.11.4s.13-.24,0,0a1.86,1.86,0,0,0-.11.19c.07-.22.15-.18.07-.11l-.06.06c-.07.09.13-.1.12-.1s0,0,.13,0l-.08,0,.17,0s-.16,0,0,0,0,0,0,0l.16.06s-.17-.11,0,0-.16-.21,0,0,0,0,0-.09,0-.15,0,.12a.5.5,0,0,0,0-.13,2.1,2.1,0,0,1-.06-.24s0-.07,0-.1,0,.26,0,.13,0-.42,0-.64c0-.05,0-.11,0-.17s0,0,0,.06a1,1,0,0,0,.06-.34,5,5,0,0,1,.19-.63.43.43,0,0,0,0-.12s-.11.21,0,.05,0-.08.07-.13,0,0-.06.07.25-.21.08-.1-.32.13-.2.11,0,0-.19,0a.55.55,0,0,1-.4-.07,1.22,1.22,0,0,0,1.63-.43,1.2,1.2,0,0,0-.43-1.63Z"/><path d="M135.78,58.1c-.26-3.74-.55-7.62.5-11.27.4-1.4,1.11-3.75,2.82-4a3.26,3.26,0,0,1,3.19,2.39c.33,1.05,2.05,1.21,2.3,0,.55-2.75,2.77-6.19,5.56-7.12a3.23,3.23,0,0,1,3.73,1.61,8.14,8.14,0,0,1,.83,5,1.2,1.2,0,0,0,2,.84,4.08,4.08,0,0,1,7,3.47c-.23,4.3-4.34,6.8-7.66,8.76a1.19,1.19,0,0,0,1.2,2c4.54-2.67,9.76-6.55,8.73-12.56a6.48,6.48,0,0,0-10.91-3.41l2,.85a10.05,10.05,0,0,0-1.36-6.47,5.68,5.68,0,0,0-5.15-2.6c-4.09.41-7.53,5.25-8.29,9h2.3c-1.31-4.18-6.64-5.68-9.19-1.72-2.82,4.36-2.34,10.32-2,15.24.1,1.52,2.48,1.53,2.38,0Z"/><path d="M115.33,100.91q-3.56-7.74-6.87-15.58a2.41,2.41,0,0,0-2.61-1.71A2.36,2.36,0,0,0,103.79,86,36.89,36.89,0,0,0,105.5,94a2.38,2.38,0,0,0,4.59-1.27c-3.51-16.46-6.27-37.23,8.3-49.42a47,47,0,0,1,13.39-7.62l-2.93-2.93a39.24,39.24,0,0,0-1.15,14.55c.29,2.57.9,5.07,1.36,7.62l.12.7c0,.07,0,.79.15.37s-.44.27-.64.41a24,24,0,0,0-2.63,2.31c-6.06,6.2-8.87,15-11.73,23-1.88,5.21-3.8,10.65-3.26,16.28l4.68-.63A111,111,0,0,1,115,52.29c.56-3-3.8-4.27-4.59-1.27a178.07,178.07,0,0,0-4.88,27h4.76A133.68,133.68,0,0,1,111.7,57L107,56.34q0,11.59-.56,23.17h4.75A91.75,91.75,0,0,1,113,61l-4.67-.63q-1.37,11.83-1.63,23.77c-.07,3.06,4.69,3.06,4.76,0A117.82,117.82,0,0,1,116.5,52.4l-4.68-.64c-.31,5.79-.87,11.56-1.72,17.3l4.68.63A93.26,93.26,0,0,1,120,46.85l-4.59-1.27a44,44,0,0,1-3.33,10.56L116.43,58a54.27,54.27,0,0,1,3.91-12L116,44.16a56.41,56.41,0,0,1-4,8.09c-1.59,2.67,2.39,4.89,4.11,2.4L121,47.51c1.34-1.93-1.32-4.6-3.25-3.26L111,48.91l3.25,3.26a43,43,0,0,1,8.77-11l-3.74-2.89L118,40.86a2.41,2.41,0,0,0,.61,3.07,2.36,2.36,0,0,0,3.13-.19,13.18,13.18,0,0,1,2.33-2.39l-3.5-1.42.36.9c.63,1.55,2.65,2.5,4,1.05l1.49-1.62-4-1a8.18,8.18,0,0,1,.48,3.53c-.2,2.5,3.24,3,4.43,1.2l1.83-2.83-4.35-1.83a59.35,59.35,0,0,0-1.25,8.61c-.16,2.34,3.38,3.27,4.44,1.2l1.68-3.3L125.35,44q-1.16,3.88-2.52,7.69c-.83,2.31,2.38,3.91,4,2.31l.72-.71-4-2.32a34.86,34.86,0,0,1-4.76,10.87l4.11,2.4,4.18-6.68L123,55.11l-4.06,8.62A2.38,2.38,0,0,0,123,66.14l3.26-5.07a2.38,2.38,0,1,0-4.11-2.4q-2.55,3.63-4.81,7.47l4.11,2.4,6.27-11.63a2.39,2.39,0,0,0-.61-3.07A2.37,2.37,0,0,0,124,54a135.1,135.1,0,0,0-9.1,12.69l4.11,2.4q2.38-4.42,4.92-8.78a2.38,2.38,0,1,0-4.11-2.4,111.76,111.76,0,0,0-10,16l4.35,1.84a141.61,141.61,0,0,0,6-22.65,2.38,2.38,0,0,0-4.59-1.26,62.34,62.34,0,0,0-3.24,19.57c0,2.82,3.77,3.06,4.67.63a98.72,98.72,0,0,0,5.31-21.83,2.35,2.35,0,0,0-2.06-2.34,2.4,2.4,0,0,0-2.61,1.7l-8.54,28.11c-.9,3,3.56,4.11,4.58,1.27a99.14,99.14,0,0,1,6.17-13.66l-4.43-1.2a65.47,65.47,0,0,1-2.34,12.73c-.85,3,3.65,4.17,4.59,1.26l4.47-13.87c.94-2.92-3.64-4.16-4.59-1.26q-2.46,7.44-5.27,14.76L116.94,79a76,76,0,0,1,3.24-8l-4.35-1.83a60.78,60.78,0,0,1-5.66,12.32l4.35,1.84c2-7.29,4.67-14.39,7.29-21.49.8-2.16-2.51-4.16-4-2.31L116.65,61l4,2.31q2.3-5.79,4.23-11.73l.87-2.74a10.59,10.59,0,0,0,.77-3.16A3,3,0,0,0,122,43l3.5,1.42a2.5,2.5,0,0,1,.14-1.08c.74-2.69-2.87-4-4.35-1.83l-1.17,1.71,4.11,2.4L125.41,43a2.47,2.47,0,0,0-.85-3.26,2.42,2.42,0,0,0-3.26.86c-.75,1.21-1.9,2.57-2.18,4a6.65,6.65,0,0,0,.63,4.2,6.72,6.72,0,0,0,2.54,2.77c.38.24,1.09.4,1.35.77a3.12,3.12,0,0,1,.24,1.22c.24,2.24,3.13,3.36,4.44,1.2l1.25-2.07-4.43-1.2.15,2.63a2.42,2.42,0,0,0,4.07,1.68l.16-.15-1.05.62.22,0h-1.26l-.45-.26-.61-1.05,0-.08H131l-.13-.88-.24,1.83.51-1c1.4-2.72-2.71-5.13-4.11-2.4a9,9,0,0,0-.75,1.56,5.4,5.4,0,0,0,.13,2.15c.34,2.29,4.21,2.25,4.59,0,.26-1.5.16-3.17-1.28-4.06a3.05,3.05,0,0,0-3.72.4l4.06,1.68-.15-2.63a2.41,2.41,0,0,0-4.44-1.21l-1.25,2.07,4.43,1.21a9,9,0,0,0-.88-3.58c-.72-1.26-1.76-1.71-2.92-2.43a2.23,2.23,0,0,1-1.07-1.6c-.06-.31.07-.49,0-.24a4,4,0,0,1,.47-.76L125.41,43l-4.11-2.4-1.18,2.65a2.38,2.38,0,0,0,4.11,2.4l1.17-1.71-4.35-1.83a8.3,8.3,0,0,0-.14,3.61c.23,1.54,2.3,2.13,3.5,1.42l.2-.13-1.2.33.25,0-1.2-.33.24.13-.86-.85-.14-.59-.21.69c-.09.31-.18.61-.28.92-.21.69-.43,1.37-.65,2.06q-.69,2.16-1.44,4.32Q117.68,57.9,116,62c-.85,2.16,2.53,4.14,4,2.31l1.18-1.49-4-2.31C114.6,67.62,112,74.73,109.93,82c-.74,2.61,3,4.14,4.35,1.84a67.55,67.55,0,0,0,6.14-13.46c.83-2.53-3.19-4.3-4.35-1.84a88.68,88.68,0,0,0-3.72,9.16A2.38,2.38,0,0,0,116.94,79q2.82-7.31,5.27-14.76L117.62,63l-4.47,13.87,4.59,1.26a72.92,72.92,0,0,0,2.51-14c.19-2.38-3.35-3.19-4.44-1.2a107.08,107.08,0,0,0-6.64,14.79L113.75,79l8.55-28.11-4.68-.63a93.63,93.63,0,0,1-5.14,20.57l4.68.63a57.94,57.94,0,0,1,3.07-18.31l-4.59-1.26a141.78,141.78,0,0,1-6,22.64c-.9,2.53,3.12,4.23,4.35,1.84a111.86,111.86,0,0,1,10-16l-4.11-2.4q-2.53,4.35-4.92,8.78a2.38,2.38,0,0,0,4.11,2.4,123.4,123.4,0,0,1,8.36-11.72l-3.74-2.88-6.27,11.63c-1.45,2.69,2.56,5,4.11,2.4s3.11-5.05,4.81-7.47l-4.11-2.4-3.26,5.06L123,66.14l4.06-8.63c1.29-2.73-2.46-5-4.11-2.4l-4.18,6.68c-1.63,2.62,2.44,4.95,4.11,2.4a39.07,39.07,0,0,0,5.24-12,2.4,2.4,0,0,0-4-2.32l-.72.72,4,2.31c.91-2.53,1.75-5.1,2.52-7.68s-3.11-4.27-4.35-1.83l-1.68,3.3,4.43,1.2a49.35,49.35,0,0,1,1.08-7.35,2.39,2.39,0,0,0-4.35-1.83l-1.83,2.83,4.43,1.2A11.48,11.48,0,0,0,127,38c-.57-1.59-2.68-2.47-4-1.05l-1.48,1.62,4,1-.36-.9c-.5-1.25-2.14-2.45-3.5-1.42a17.42,17.42,0,0,0-3.29,3.13l3.74,2.88,1.28-2.56a2.39,2.39,0,0,0-3.73-2.89,46.84,46.84,0,0,0-9.51,12c-1.1,1.95,1.2,4.67,3.25,3.25l6.74-4.66L116.9,45.1,112,52.25l4.11,2.4a64.41,64.41,0,0,0,4.5-9.22c1-2.49-3.21-4.28-4.35-1.84a60.25,60.25,0,0,0-4.39,13.12,2.39,2.39,0,0,0,1.38,2.8,2.35,2.35,0,0,0,3-1A49.07,49.07,0,0,0,120,46.85a2.38,2.38,0,0,0-4.59-1.27A98.59,98.59,0,0,0,110,69.69c-.26,2.64,4.28,3.29,4.67.63.91-6.15,1.56-12.34,1.89-18.56.15-2.74-3.91-3.13-4.67-.63a123.18,123.18,0,0,0-5.25,33h4.76q.26-11.93,1.62-23.77c.31-2.65-4.15-3.25-4.67-.63a97.62,97.62,0,0,0-1.9,19.82c0,3.07,4.61,3,4.75,0q.57-11.58.57-23.17A2.39,2.39,0,0,0,109.73,54a2.36,2.36,0,0,0-2.62,1.71A142.47,142.47,0,0,0,105.5,78a2.38,2.38,0,1,0,4.76,0A169.14,169.14,0,0,1,115,52.29L110.38,51a117.2,117.2,0,0,0,.78,47.59c.58,2.57,4.93,2.06,4.67-.64-.46-4.82,1.08-9.39,2.68-13.87,1.47-4.16,2.94-8.36,4.77-12.38a32.64,32.64,0,0,1,6.42-9.9c1.44-1.43,3.75-2.49,4.22-4.61a9.42,9.42,0,0,0-.27-3.54c-.23-1.25-.51-2.48-.76-3.73a35,35,0,0,1,.55-15.9c.44-1.62-1.17-3.59-2.93-2.93-9,3.44-17.74,8.89-22.65,17.45-4.76,8.31-6,18.17-5.22,27.59A138.34,138.34,0,0,0,105.5,94l4.59-1.27A30.85,30.85,0,0,1,108.55,86l-4.67.63q3.54,8.41,7.34,16.72a2.4,2.4,0,0,0,3.26.85,2.43,2.43,0,0,0,.85-3.25Z"/><path d="M125.32,38.1v.13l1.18-2.06-.15.08,1.83-.24-.14-.07,1.75,2.3,0-.25-.33,1.2c1-1.85,3.16-3.2,5-4a22.93,22.93,0,0,1,7.35-1.63,38,38,0,0,1,17.76,2.6l-.48-3.74a5.33,5.33,0,0,0-1.75,3.81c-.05.45-.06.94-.13,1.35s-.25.46,0,.41l2.92,2.93c1.65-4-1.84-8.5-6-8.53-2.23,0-3.41,3.4-1.2,4.43.5.23.33.16.33.16l4.06-1.68a9.69,9.69,0,0,0-16.78,4.48l4-1a7.85,7.85,0,0,0-10,.13c-3.17,2.5-4,6.75-4.06,10.58h4.76c-.17-2-.28-3.93-.31-5.9,0-1,0-2.06,0-3.08a3.2,3.2,0,0,1,.36-1.93c.71-.82,2.54-.85,3.51-1l6.35-.95-1.83-4.35a35.51,35.51,0,0,0-3.69,2.36c-1.26.92-1.82,3.33,0,4.11a7.47,7.47,0,0,0,6.12-.15,17.89,17.89,0,0,1,6-1.33,50.66,50.66,0,0,0,6.52-.46c.45-.08,3.88-1.27,4.11-.49L163,34A12.88,12.88,0,0,0,159.54,39,2.39,2.39,0,0,0,161.2,42c4,.78,7.22,4.81,6.49,9A2.38,2.38,0,0,0,172,52.75a8.05,8.05,0,0,0-1.16-9c-2-2.52-5.28-3.67-8.27-4.67L162,43.73c1.45.18,2.51,1.77,3,3,.77,2.15.49,4.58.32,6.81s3.34,3.2,4.44,1.2l2.09-3.82-4.34-1.83a12.48,12.48,0,0,1-8.26,8.17l2.31,4c3.76-3.3,7.58-6.9,9-11.88a13.38,13.38,0,0,0,0-7.29c-.69-2.41-1.87-4.65-2.4-7.11l-3.5,2.68a35.58,35.58,0,0,1,7.65,5l8.06,6.52a27.07,27.07,0,0,1,3.45,3,8.59,8.59,0,0,1,1.54,4.15,89.84,89.84,0,0,1,1.46,9.92A50.55,50.55,0,0,1,187,75.9c-.3,2.9-1.88,5.64-2.57,8.47a26.63,26.63,0,0,1-3,8.21,28.32,28.32,0,0,1-5.41,6.1,113.31,113.31,0,0,1-17.35,12.12c-2.63,1.57-.24,5.68,2.4,4.11a130.37,130.37,0,0,0,17.08-11.81c4.9-4.08,8.75-9,10.32-15.23.41-1.63.74-3.28,1.28-4.88s1.2-3,1.59-4.5c.88-3.47.48-7.29.21-10.81a104.75,104.75,0,0,0-1.38-10.74c-.63-3.45-1.31-6.62-4.06-9-3-2.69-6.32-5.14-9.47-7.69s-6.1-5.05-9.72-6.67a2.42,2.42,0,0,0-3.5,2.69c.85,4,3.63,7.67,2.45,11.87s-4.67,7.07-7.76,9.79c-1.81,1.58.1,4.64,2.31,4A17.41,17.41,0,0,0,172,50.37c.8-2.57-3-4.2-4.34-1.83l-2.1,3.82,4.43,1.2c.25-3.27.34-6.63-1.13-9.65A8.76,8.76,0,0,0,162,39,2.36,2.36,0,0,0,159.64,41a2.42,2.42,0,0,0,1.71,2.61c1.87.63,4,1.26,5.42,2.64,1.06,1,1.94,2.66,1.16,4.06l4.35,1.83c1.16-6.55-3.12-13.5-9.81-14.81l1.66,2.93a7.85,7.85,0,0,1,2.26-3A2.37,2.37,0,0,0,167,35a5.3,5.3,0,0,0-5.07-3.69c-2.34-.08-4.62.93-7,1a50.68,50.68,0,0,0-7.18.52,20.21,20.21,0,0,0-3.3,1.08c-.59.23-1.81.91-2.46.63v4.11a33.93,33.93,0,0,1,3.69-2.36,2.36,2.36,0,0,0,1-3,2.42,2.42,0,0,0-2.8-1.38c-2.4.36-4.81.68-7.2,1.08a7.79,7.79,0,0,0-5.3,2.78c-1.35,1.88-1.24,4.29-1.24,6.5,0,2.37.11,4.73.31,7.09.27,3,4.73,3.11,4.76,0,0-2.22.26-4.74,1.82-6.47.9-1,3-1.88,4.15-.88s3.58.85,4-1.05A5,5,0,0,1,154,38.67,2.4,2.4,0,0,0,158.06,37a4.85,4.85,0,0,0-2.69-4.27l-1.2,4.44a1.73,1.73,0,0,1,1.37,2.5c-.75,1.81,1.36,3.27,2.92,2.93a4.55,4.55,0,0,0,3.27-3.42c.25-.92-.08-2.75.72-3.37a2.38,2.38,0,0,0-.48-3.74,42.61,42.61,0,0,0-21.44-3.13,26.67,26.67,0,0,0-9.19,2.5A16.66,16.66,0,0,0,127.7,34c-1.15,1-2.79,2.63-2.66,4.29a2.54,2.54,0,0,0,3.87,2,2.34,2.34,0,0,0,1.18-2.05V38.1c-.09-3.05-4.85-3.07-4.76,0Z"/><path d="M172.42,102.52a27.09,27.09,0,0,1-15.48,9.94l3,2.29a142,142,0,0,1,.19-21.92c.15-1.78.34-3.56.57-5.33.1-.84.22-1.67.34-2.51,0-.24.08-.48.11-.72.15-.45.06-.45-.27,0-1,.45.26.1.56,0a8.77,8.77,0,0,0,4.62-7.53c.11-3.06-4.65-3-4.76,0a3.91,3.91,0,0,1-1.42,2.89c-1.09.91-2.39,1-3,2.49s-.69,3.72-.9,5.42-.41,3.55-.57,5.33a142,142,0,0,0-.19,21.92,2.42,2.42,0,0,0,3,2.3,32.1,32.1,0,0,0,18.33-12.13,2.4,2.4,0,0,0-.85-3.26,2.45,2.45,0,0,0-3.26.86Z"/><path d="M161.36,73.07a28.6,28.6,0,0,1,0,7.22l.08-.64-.06.44a2.61,2.61,0,0,0,.24,1.84A2.43,2.43,0,0,0,163,83a2.39,2.39,0,0,0,1.83-.24,2.3,2.3,0,0,0,1.1-1.42,30.7,30.7,0,0,0,.16-8.29,2.64,2.64,0,0,0-.69-1.69,2.4,2.4,0,0,0-3.37,0,2.3,2.3,0,0,0-.69,1.69Z"/><path d="M158.46,85l1.35,0h.44c.63,0,.6,0-.06-.11L159.1,83.5a7.55,7.55,0,0,1-.19,2.44c-.15,1-.34,2.07-.49,3.1a48.4,48.4,0,0,0-.5,6.13c-.07,4,.25,8.06-.3,12a2.47,2.47,0,0,0,1.67,2.93,2.4,2.4,0,0,0,2.92-1.66,1.52,1.52,0,0,1,.56-1.17l-3.58-2a3,3,0,0,1-.41,1.79c-1.39,2.42,1.75,4.64,3.74,2.89a63.11,63.11,0,0,1,6.14-4.78l-2.88-3.73-2.93,3.1c-2.1,2.23,1.19,5.54,3.36,3.37a43.54,43.54,0,0,1,8.41-6.58l-2.88-3.73a42.44,42.44,0,0,1-5.42,4.87l2.89,3.74a103,103,0,0,1,12.7-11.27L179,91.2l-5.57,5.14,3.36,3.37a43.4,43.4,0,0,0,4.2-4.48c1.35-1.66,2.66-3.45,2-5.7a2.4,2.4,0,0,0-3.49-1.42,3.67,3.67,0,0,0-1.82,2.26c-.91,2.68,2.91,4,4.35,1.84A20.75,20.75,0,0,0,185,85.56a2.39,2.39,0,0,0-4.35-1.84,19.18,19.18,0,0,0-3,8.57,2.35,2.35,0,0,0,2.06,2.33,2.43,2.43,0,0,0,2.61-1.7A81.53,81.53,0,0,0,187,75l-4.67-.64,0,2.61a2.38,2.38,0,0,0,4.76,0,129.17,129.17,0,0,0,.79-14.59c0-3.08-4.61-3-4.76,0a11.9,11.9,0,0,0,.24,2.85c.53,2.68,4.66,2,4.68-.64,0-5.63-.61-12-3.87-16.8a9.22,9.22,0,0,0-3.12-2.9,12.34,12.34,0,0,1-2.86-1.83c-1.95-2-4.31-4.43-7.39-3.18a2.42,2.42,0,0,0-1.75,2.29l.21,2.2a2.41,2.41,0,0,0,2.37,2.38,4,4,0,0,0,2-.6l-3.5-1.43a13.22,13.22,0,0,0,6.18,7.4c1.2.65,3.25.17,3.49-1.42a4.74,4.74,0,0,0-1.19-4.24,2.39,2.39,0,0,0-3.36,0,2.43,2.43,0,0,0,0,3.36,26.37,26.37,0,0,1,3,4.53,9.4,9.4,0,0,1,.78,4.91c-.17,4.45.17,8.89.14,13.34a36.51,36.51,0,0,1-1.62,11.57c-1.21,3.55-3.51,6.68-5.69,9.68-2.07,2.83-4.55,5.65-8.11,6.42l2.93,2.93c2.47-6.16,1.57-12.87,2.3-19.31a42.26,42.26,0,0,0,.57-4.74,11.43,11.43,0,0,0-1-4.5,16.37,16.37,0,0,0-5.81-6.62l-2.4,4.11c2,.86,3.77,2.29,6.06,2.25a5.34,5.34,0,0,0,4.9-3.86c.69-2.45-.68-4.43-2.05-6.32-.72-1-1.46-2-2.26-2.94-.38-.45-.78-.88-1.19-1.3-.15-.15-1-1.08-.94-.75v1.26l.1-.31-.61,1a15.3,15.3,0,0,1,2.71-2.14l3.12-2.3q3.12-2.28,6.28-4.53l-3.26-.85C175,55.51,175,60.22,175,64.56a74.31,74.31,0,0,1-1.34,13.14A76.15,76.15,0,0,1,164,102.63l4.11,2.4a81.05,81.05,0,0,1,8.58-12.1c2-2.3-1.34-5.67-3.37-3.36l-7.44,8.5,4,2.31.89-6.44a2.44,2.44,0,0,0-.85-2.5,2.38,2.38,0,0,0-2.64-.18,16.78,16.78,0,0,0-3.05,2.46l4.07,1.68a37.77,37.77,0,0,0-.45-11.33,2.4,2.4,0,0,0-4-1,6.76,6.76,0,0,0-1.73,5.2,2.4,2.4,0,0,0,2.06,2.33,2.36,2.36,0,0,0,2.61-1.7,22.52,22.52,0,0,0,.58-4.09c.14-2.63-4.24-3.3-4.67-.63q-1.55,9.62-2.59,19.31h4.76a26.71,26.71,0,0,1,1-9l-4.67-.63.12,2.52c.1,2.16,3.36,3.49,4.43,1.2A65.14,65.14,0,0,1,174,84.2l-2.32.62.23.08-1.05-.61c-.22-.9-.33-1.13-.31-.7v.09l-.22.87-.55,2.3-1.1,4.6c-.6,2.52,3.11,4.35,4.35,1.84a54.48,54.48,0,0,1,7-10.84l-4-2.32a24.27,24.27,0,0,1-4.53,8.69l3.74,2.88a56.5,56.5,0,0,1,5.82-9.16,2.44,2.44,0,0,0,0-3.36,2.39,2.39,0,0,0-3.36,0,28.17,28.17,0,0,1-5.58,5.27l3.25,3.26a33.28,33.28,0,0,1,4.76-7.57c1.95-2.31-1.13-5.53-3.37-3.36l-2.62,2.54,3.36,3.36a52.59,52.59,0,0,1,6.47-6.1l-3.36-3.36a18.68,18.68,0,0,1-6,5.09l3.26,3.25a41.2,41.2,0,0,1,4.53-5.68,2.38,2.38,0,1,0-3.36-3.36l-7.81,6.24L175,81.65a31,31,0,0,1,7-7L179.06,71a102.06,102.06,0,0,1-8.22,6.58l3.26,3.25a6.63,6.63,0,0,1,2.5-2.46l-2.89-3.74c-2.48,2.5-5.07,4.91-7.74,7.22l3.37,3.36A16.72,16.72,0,0,1,172.53,82l-3.26-3.25a2.42,2.42,0,0,1-.84,1L171.69,83c1.39-3,2.67-6,3.81-9.07.77-2.06-1.81-3.6-3.49-2.69a8,8,0,0,0-2.8,2.59l4.11,2.4,2-3.2c1.25-2-1.26-4.55-3.25-3.25a19.32,19.32,0,0,0-3.34,2.71l3.74,2.88,1.16-1.74c1.57-2.34-1.8-4.6-3.74-2.88a1.48,1.48,0,0,1-.43.31l2.69,3.5,3.21-6.34A2.4,2.4,0,0,0,172.11,65a7.24,7.24,0,0,0-2.32,2.19c-1.56,2.17,2.05,5,3.73,2.88a23.25,23.25,0,0,0,3.49-6c1-2.47-3.29-4.31-4.35-1.83a15.13,15.13,0,0,0-1.27,5.46A2.4,2.4,0,0,0,175,69.79a16.31,16.31,0,0,0,5.21-4.88l-4.11-2.41a40.91,40.91,0,0,0-3.81,7.38l4.58,1.26a34.07,34.07,0,0,0,1.34-7.07c.18-2,.55-4.83-.61-6.64-1.56-2.45-4.42-1.44-5.91.46a8.5,8.5,0,0,0-1.8,6c.17,1.82,2.62,3.43,4.06,1.68A14.8,14.8,0,0,0,177,52.71a2.4,2.4,0,0,0-3.49-1.42,11.84,11.84,0,0,0-5.25,7.44,2.4,2.4,0,0,0,4,2.31,5.76,5.76,0,0,0,1.63-5.47c-.31-1.63-2.22-2-3.49-1.42a8.8,8.8,0,0,0-4.87,6.49c-.26,1.7,1,3.48,2.93,2.92a4.63,4.63,0,0,0,3.4-4.47,2.39,2.39,0,0,0-2.38-2.38,5.39,5.39,0,0,0-5,3.89c-.65,2.12,1.73,3.54,3.49,2.69a3.82,3.82,0,0,0,1.56-5.22,2.42,2.42,0,0,0-3.26-.86,4,4,0,0,0-.6,6.41,6.66,6.66,0,0,0,2.34,1L167,64c-.2-.45-.25-.47-.13-.06a1.86,1.86,0,0,0,.15.56,3.53,3.53,0,0,0,.78,1.3,3.12,3.12,0,0,0,3,.85l-2.32-4-1.12,1.41a2.45,2.45,0,0,0,0,3.36,2.4,2.4,0,0,0,3.37,0l1.12-1.4a2.41,2.41,0,0,0-2.32-4l-.25,0h1.27l-.24-.1,1.05.62c.26.24.18.42,0-.1a3.38,3.38,0,0,0-.23-.7,3.11,3.11,0,0,0-1.59-1.68,3,3,0,0,0-.69-.26c-.65-.12-.29-.09,0,.2a.76.76,0,0,1-.18,1.22l-3.26-.85a1.19,1.19,0,0,1,.15-1.29l3.5,2.69c.06-.22.18-.39.42-.4l-2.37-2.38c0,.17.2-.15.08-.12l2.93,2.93a4.45,4.45,0,0,1,2.68-3.64l-3.5-1.42c.07.37-.16.6-.41.84l4,2.31A7.08,7.08,0,0,1,176,55.4L172.46,54a9.72,9.72,0,0,1-1.91,8.23l4.07,1.69c-.11-1.16.07-2.86,1.22-3.49l-1.2.33-.4-.15-.85-.86c.5.67.12,3.43,0,4.57a29.39,29.39,0,0,1-1.14,5.58,2.38,2.38,0,0,0,4.58,1.26,35.53,35.53,0,0,1,3.34-6.23,2.38,2.38,0,0,0-4.11-2.41,10.77,10.77,0,0,1-3.5,3.18l3.58,2a8.7,8.7,0,0,1,.62-3.06l-4.35-1.83a15.57,15.57,0,0,1-2.26,3.86l3.74,2.89a1.69,1.69,0,0,1,.61-.48l-3.25-3.26-3.21,6.34c-.83,1.63.6,4.34,2.69,3.49a8.2,8.2,0,0,0,2.53-1.53l-3.74-2.89L168.37,73c-1.52,2.26,1.87,4.79,3.73,2.88a13.94,13.94,0,0,1,2.38-2l-3.26-3.26-2,3.2c-1.65,2.63,2.38,4.88,4.11,2.4a2.76,2.76,0,0,1,1.09-.88l-3.5-2.68q-1.5,4-3.33,7.93a2.46,2.46,0,0,0,.37,2.88,2.39,2.39,0,0,0,2.88.37,7.12,7.12,0,0,0,2.55-2.76,2.45,2.45,0,0,0-.37-2.88,2.38,2.38,0,0,0-2.88-.37A20.77,20.77,0,0,0,166,81.82a2.38,2.38,0,0,0,3.37,3.36q4-3.47,7.74-7.22a2.39,2.39,0,0,0-2.88-3.73A11.69,11.69,0,0,0,170,78.4c-1.15,1.94,1.26,4.69,3.26,3.26a115.58,115.58,0,0,0,9.18-7.33c2-1.77-.68-5.33-2.89-3.74a37.9,37.9,0,0,0-8.67,8.66,2.34,2.34,0,0,0,.61,3.06,2.44,2.44,0,0,0,3.13-.18l7.8-6.25-3.36-3.36a47.5,47.5,0,0,0-5.28,6.64c-1.38,2.09,1.27,4.31,3.26,3.26a21.92,21.92,0,0,0,7-5.84,2.38,2.38,0,0,0-3.36-3.36,51.85,51.85,0,0,0-6.47,6.1c-2,2.27,1.14,5.51,3.36,3.36l2.63-2.54-3.37-3.36a37.35,37.35,0,0,0-5.5,8.53,2.48,2.48,0,0,0,.38,2.88,2.39,2.39,0,0,0,2.88.37,32.24,32.24,0,0,0,6.54-6l-3.36-3.36a61.75,61.75,0,0,0-6.57,10.12,2.39,2.39,0,0,0,3.74,2.89,30,30,0,0,0,5.75-10.79c.62-2.17-2.41-4.19-4-2.31a59.18,59.18,0,0,0-7.76,11.79l4.35,1.84L175,85.59c.53-2.21.43-4.47-2-5.36a2.32,2.32,0,0,0-2.32.61,69.76,69.76,0,0,0-9,14.31l4.44,1.2L166,93.83a2.39,2.39,0,0,0-4.68-.63,31.1,31.1,0,0,0-1.2,10.24,2.38,2.38,0,0,0,4.76,0q1-9,2.42-18l-4.68-.63a14.87,14.87,0,0,1-.41,2.82l4.67.64a2.26,2.26,0,0,1,.35-1.83l-4-1a33.59,33.59,0,0,1,.28,10.06c-.25,2.11,2.73,3,4.06,1.68a11.47,11.47,0,0,1,2.08-1.72l-3.5-2.68-.88,6.44a2.49,2.49,0,0,0,1.09,2.68,2.39,2.39,0,0,0,2.88-.37l7.45-8.5-3.37-3.36A88.06,88.06,0,0,0,164,102.63c-1.55,2.66,2.51,5,4.11,2.4a80,80,0,0,0,11.63-43.11A34.32,34.32,0,0,0,177.37,49a2.38,2.38,0,0,0-3.25-.86c-2.77,2-5.51,4-8.23,6-2.26,1.67-7.67,4.43-4.83,7.82,1,1.19,2.21,2.16,3.18,3.39a15.93,15.93,0,0,1,2.45,3.47c.2.5,0,.9-.59.84-1.11-.11-2.29-1.17-3.3-1.6a2.38,2.38,0,0,0-2.4,4.11,10.53,10.53,0,0,1,4.18,5.22c.77,2.51-.19,5.3-.39,7.85-.45,5.62.13,11.38-2,16.73-.72,1.8,1.34,3.27,2.93,2.92,3.84-.83,6.9-3.47,9.3-6.46a49.13,49.13,0,0,0,6.85-10.52c3.91-8.87,2.34-18.5,2.6-27.88a16,16,0,0,0-1.14-7.49,29.38,29.38,0,0,0-4.06-6l-3.36,3.36a.41.41,0,0,1,0-.39l3.5-1.42a8.23,8.23,0,0,1-4-4.55,2.41,2.41,0,0,0-3.5-1.42l.4,0,2.38,2.38-.2-2.2L172.1,44.5c.67-.27,1.07.17,1.55.66a21.35,21.35,0,0,0,2.57,2.46c.83.59,1.76,1,2.63,1.51a5.12,5.12,0,0,1,1.87,2.12c2.21,4.07,2.63,8.84,2.6,13.38L188,64a6.42,6.42,0,0,1-.07-1.58h-4.76A129.17,129.17,0,0,1,182.37,77h4.76l0-2.61A2.38,2.38,0,0,0,185,72.07a2.34,2.34,0,0,0-2.61,1.7,81.81,81.81,0,0,1-4.77,17.88l4.67.64a14.23,14.23,0,0,1,2.4-6.16l-4.35-1.84a16.7,16.7,0,0,1-2.45,5.52l4.34,1.83-.36.57-3.49-1.42c-.06-.18.18-.28,0,.08a6.77,6.77,0,0,1-.43.66c-.43.58-.93,1.13-1.41,1.68a41.09,41.09,0,0,1-3.06,3.13c-2.25,2.1,1.12,5.44,3.36,3.37l5.57-5.15c2-1.79-.68-5.37-2.88-3.74a111.48,111.48,0,0,0-13.67,12,2.38,2.38,0,0,0,2.88,3.73,49.44,49.44,0,0,0,6.39-5.62c1.82-1.92-.51-5.16-2.89-3.74a48.85,48.85,0,0,0-9.37,7.32l3.36,3.37,2.93-3.11c1.78-1.89-.56-5.32-2.88-3.74a74.5,74.5,0,0,0-7.1,5.52l3.73,2.89a7.57,7.57,0,0,0,1.06-4.2c-.07-1.68-2-3.13-3.58-2.06a6.13,6.13,0,0,0-2.75,4l4.59,1.27c.75-5.47.17-10.94.61-16.42.21-2.64.86-5.23,1-7.88a3.41,3.41,0,0,0-1.46-3.5c-1.11-.65-2.71-.42-3.94-.44-3.06-.06-3.06,4.7,0,4.75Z"/><path d="M169.6,74.4l-.36.12a1.87,1.87,0,0,0-.81.43,1.79,1.79,0,0,0-.61.67,1.73,1.73,0,0,0-.28.88,1.81,1.81,0,0,0,0,1l.24.57a2.47,2.47,0,0,0,.85.85l.57.24a2.48,2.48,0,0,0,1.27,0l.36-.12a1.87,1.87,0,0,0,.81-.43,1.79,1.79,0,0,0,.61-.67,1.67,1.67,0,0,0,.28-.88,1.81,1.81,0,0,0,0-1l-.24-.57a2.31,2.31,0,0,0-.85-.85l-.57-.24a2.29,2.29,0,0,0-1.27,0Z"/><path class="cls-1" d="M134.73,55.09l0,.07,1.34-.54-.13-.06.71.55a5.69,5.69,0,0,1-.33-2.41,14.24,14.24,0,0,1,.08-2.26,13.78,13.78,0,0,1,1.37-4.65c.27-.53.57-1.27,1.2-1.45a2.07,2.07,0,0,1,1.76.63c1,.85,1.75,3,3.36,2.6s1.4-2.55,1.86-3.68a6.87,6.87,0,0,1,2.7-3.29,5.57,5.57,0,0,1,2.2-.77c.2,0,.72-.12.89,0s.41.72.52,1a13.53,13.53,0,0,1,1.32,4.95c.11,1.52,2.49,1.53,2.37,0a16.5,16.5,0,0,0-1.56-6c-.41-.86-.87-1.85-1.85-2.16a5.41,5.41,0,0,0-2.74,0,8.15,8.15,0,0,0-4.61,2.94,11.08,11.08,0,0,0-1.92,3.91c0,.2-.09.41-.14.61s0,.29-.07.43,0,.16.12-.11l.91-.12c-.22,0-.69-.89-.83-1.06a7.76,7.76,0,0,0-1.09-1.13,4.76,4.76,0,0,0-2.69-1.14c-2.16-.14-3.33,1.62-4.11,3.38a16.84,16.84,0,0,0-1.42,6.09,15.79,15.79,0,0,0,.19,3.22c.15,1,.26,1.86,1.3,2.28a1.19,1.19,0,0,0,1.34-.54l0-.08c.81-1.31-1.25-2.5-2.05-1.2Z"/><path class="cls-1" d="M156.2,47.36a10.59,10.59,0,0,1,2.26-.94,3.19,3.19,0,0,1,2.11-.1,2.88,2.88,0,0,1,1.55,2.55c.06,3.19-3.2,5.29-5.35,7.11a1.2,1.2,0,0,0,0,1.68,1.21,1.21,0,0,0,1.68,0,26.19,26.19,0,0,0,4.42-4.19,7.29,7.29,0,0,0,1.52-5.61A5.13,5.13,0,0,0,161.13,44c-2-.68-4.41.36-6.13,1.3-1.34.74-.14,2.8,1.2,2.06Z"/><path class="cls-1" d="M158.21,55.94c-.32-1.82-3.37-2.47-4.86-2.84a34.8,34.8,0,0,0-6.43-.89c-4.16-.27-8.9-.66-11.71,3-.69.91.45,1.92,1.34,1.75,1.38-.26,2.69-.82,4.06-1.13a31.55,31.55,0,0,1,4.41-.68,87.31,87.31,0,0,1,8.86-.14,1.19,1.19,0,0,0,0-2.38,83.76,83.76,0,0,0-9.24.17,35.49,35.49,0,0,0-4.47.69c-1.44.32-2.81.9-4.25,1.17l1.34,1.75c2.06-2.71,6.35-2.06,9.29-1.88a37.84,37.84,0,0,1,4.76.51,20.36,20.36,0,0,1,2.45.6c.38.12,2.09.55,2.15.89.27,1.5,2.57.87,2.3-.63Z"/><path class="cls-1" d="M157.64,54.9a1.29,1.29,0,0,1-.37-.28,1.19,1.19,0,0,0-1.44-.18,1.22,1.22,0,0,0-.54,1.34,2.1,2.1,0,0,0,.68,1.16c.12.11.25.21.36.32l.16.15c-.14-.16,0,.13-.07-.09L158.17,56a21,21,0,0,0-9.87-3.4,1.19,1.19,0,1,0,0,2.38A18.52,18.52,0,0,1,157,58a1.2,1.2,0,0,0,1.75-1.34,2.44,2.44,0,0,0-.74-1.15,3.68,3.68,0,0,0-.37-.32c-.15-.12,0,0,0,0s-.07-.11,0,0,0,.06,0-.05l-2,1.15a3.56,3.56,0,0,0,.85.65c1.35.72,2.55-1.33,1.2-2.05Z"/><path class="cls-1" d="M158,57.44a2.39,2.39,0,0,0,1.23-.28,1.19,1.19,0,0,0,.49-1.49,1.16,1.16,0,0,0-1.4-.68l-.64.23a1.2,1.2,0,0,0-.53,2,1.54,1.54,0,0,0,1.24.49l-.32-2.33a1.45,1.45,0,0,0-1,1.84,1.51,1.51,0,0,0,1.91.93,2.48,2.48,0,0,0,1.31-1.28,5.6,5.6,0,0,1,.89-1.09c.36-.35.76-.65,1.09-1a5.2,5.2,0,0,0,.9-1.65,9.23,9.23,0,0,0,.57-3.41,1.2,1.2,0,0,0-2.34-.32,14.5,14.5,0,0,0-.2,2.63c0,.07,0,.32,0,.14a2,2,0,0,1-.05.24c0,.17-.1.34-.16.52s.07-.13,0,0-.08.18-.13.27-.18.32-.28.47l-.14.2c-.12.17.09-.1,0,.05s-.24.28-.37.41a5.33,5.33,0,0,1-.42.4l-.2.17s-.22.18-.11.1a15.88,15.88,0,0,1-2,1.26,1.2,1.2,0,0,0,.28,2.17A1.91,1.91,0,0,0,160,57.05a1.19,1.19,0,0,0-2.3-.63c0,.14,0,.13.06,0a.3.3,0,0,1,.18-.2.47.47,0,0,1,.35,0l.29,2.17A11.5,11.5,0,0,0,162.58,55a5.78,5.78,0,0,0,1-2.28,9.25,9.25,0,0,0,.1-1.49,4.64,4.64,0,0,1,.1-1.22l-2.34-.31a6.51,6.51,0,0,1-.23,2,6.92,6.92,0,0,1-.3.91,3.26,3.26,0,0,1-.37.63,18.11,18.11,0,0,0-1.41,1.36,9.93,9.93,0,0,0-.74,1c-.09.15-.19.29-.27.44s-.08.13,0,0a.79.79,0,0,1,1,0l.3.53-.24.8-.53.31.08,0a1.21,1.21,0,0,0,.85-1.3,1.18,1.18,0,0,0-1.17-1l.44.2-.52,2,.64-.23L158,55.11c.09,0,.18,0,0,0a1.19,1.19,0,0,0-1.19,1.19A1.23,1.23,0,0,0,158,57.44Z"/><path class="cls-1" d="M161.47,50.51a6.36,6.36,0,0,1,0,1.51l0-.32a2.78,2.78,0,0,1-.16.63l.12-.29a1.79,1.79,0,0,1-.22.38l.19-.24a2.24,2.24,0,0,1-.35.34l.24-.18c-.37.27-.77.49-1.13.79a1.23,1.23,0,0,0-.35.85,1.18,1.18,0,0,0,1.19,1.18,1.31,1.31,0,0,0,.84-.34l.09-.08-.24.19c.37-.28.78-.49,1.13-.8a2.85,2.85,0,0,0,.83-1.29,5.23,5.23,0,0,0,.12-2.33,1.32,1.32,0,0,0-.35-.84,1.2,1.2,0,0,0-1.69,0,1.17,1.17,0,0,0-.34.84Z"/><path class="cls-1" d="M157.89,58.33c1.48.43,2.8-1.07,3.69-2.06.45-.51.87-1,1.29-1.58A11.82,11.82,0,0,0,164,53.1a6.2,6.2,0,0,0,.59-1.92,9.91,9.91,0,0,0,.22-2.3,3.93,3.93,0,0,0-1.92-3.32c-1.36-.7-2.56,1.35-1.2,2.06a1.68,1.68,0,0,1,.75,1.66,6,6,0,0,1-.58,2.77,18.62,18.62,0,0,1-1.67,2.19c-.32.37-.65.73-1,1.07-.17.17-.35.33-.54.49a2.11,2.11,0,0,0-.23.19c-.21.2-.27-.05.09,0a1.19,1.19,0,0,0-.63,2.29Z"/><path class="cls-1" d="M157.37,66a10.56,10.56,0,0,1,1.57-.89.63.63,0,0,1,.66,0,5.07,5.07,0,0,1,.61.52,9.24,9.24,0,0,1,1.91,2.64c.25.52,1,.07.77-.45a9.66,9.66,0,0,0-2.32-3.06,1.75,1.75,0,0,0-1.75-.58,8.74,8.74,0,0,0-1.9,1c-.48.32,0,1.09.45.77Z"/><path class="cls-1" d="M162.75,67.72A14.64,14.64,0,0,0,160.32,66a6.85,6.85,0,0,0-3-.74.45.45,0,0,0-.23.83c.91.48,1.92.74,2.84,1.2a15.49,15.49,0,0,1,2.6,1.62.46.46,0,0,0,.66-.27c.21-.71-.47-1.45-.87-2A13.16,13.16,0,0,0,160.79,65c-.41-.4-1,.23-.63.63A13.23,13.23,0,0,1,161.4,67c.18.22.34.45.5.69s.45.52.39.74l.65-.27a15.49,15.49,0,0,0-2.6-1.62c-.46-.23-.93-.44-1.42-.63a13.15,13.15,0,0,1-1.42-.57l-.22.83a5.92,5.92,0,0,1,2.67.66,13.75,13.75,0,0,1,2.17,1.54.46.46,0,0,0,.63,0,.44.44,0,0,0,0-.63Z"/><path class="cls-1" d="M157.05,65.74c0-.07,0,0,0,0s0-.06,0-.08,0,0,0,0l.06-.1.14-.19c0,.05,0,0,0,0l.08-.09c.1-.12.21-.23.32-.34a1.78,1.78,0,0,1,.32-.24,1,1,0,0,1,.19-.12l.08,0,.06,0a2.25,2.25,0,0,1,.42-.13s.1,0,0,0h.11a.21.21,0,0,1,.11,0s.12,0,.08,0l.07,0,.07,0s.05,0,.06,0,0,0,0,0a.45.45,0,0,0,.63-.63c-.59-.7-1.76-.37-2.4.06a3.61,3.61,0,0,0-.91.83c-.29.36-.66.82-.48,1.31a.44.44,0,0,0,.54.31.46.46,0,0,0,.32-.55Z"/><path class="cls-1" d="M157,66.36a2.58,2.58,0,0,1,1.44.29c.53.22,1.06.47,1.59.7a.45.45,0,0,0,.45-.77c-.61-.27-1.22-.55-1.84-.8a3.3,3.3,0,0,0-1.88-.28.45.45,0,1,0,.24.86Z"/><path class="cls-1" d="M159.46,64.47h-.06s0,0,0,0a.3.3,0,0,1,.08.08l.06.07s0-.05,0,0l.12.18c.18.26.35.52.52.78.33.52.64,1,.93,1.6a.45.45,0,0,0,.61.16.46.46,0,0,0,.16-.61q-.51-.94-1.08-1.83c-.2-.3-.39-.61-.62-.89a1,1,0,0,0-1-.41.45.45,0,0,0-.32.55.47.47,0,0,0,.55.31Z"/><path class="cls-1" d="M157.37,64c-.53.08-1.14,1-.7,1.45.23.25.64.18,1,.17a1.91,1.91,0,0,1,1,.29l4.42,2.27a.45.45,0,0,0,.66-.5,2.74,2.74,0,0,0-1-1.51.44.44,0,0,0-.61.16.45.45,0,0,0,.16.61,1.78,1.78,0,0,1,.61,1l.65-.5-3.26-1.67c-.52-.27-1-.56-1.56-.8a2.41,2.41,0,0,0-.74-.21,4.7,4.7,0,0,1-.73,0l.2.26c.05.21,0,0,.07,0s0-.08.12-.1a.45.45,0,0,0,.31-.55.46.46,0,0,0-.54-.31Z"/><path class="cls-1" d="M157.13,64.86a2.08,2.08,0,0,0-1.1.94c-.23.42.38,1,.7.54a3.46,3.46,0,0,0,.5-.85c.16-.37-.35-.68-.66-.5a1.33,1.33,0,0,0-.61,1.38.44.44,0,0,0,.31.31A16.94,16.94,0,0,1,160,67.81a7.7,7.7,0,0,1,1.63.86,2.37,2.37,0,0,0,1.38.71.45.45,0,0,0,.43-.33,1.53,1.53,0,0,0-.42-1.34c-.33-.42-.67-.84-1-1.27-.65-.86-1.28-1.74-1.88-2.64l-.61.61a3.6,3.6,0,0,1,.87,1c.29.37.62.72.93,1.08a7.66,7.66,0,0,1,.86,1.11,6.5,6.5,0,0,1,.39,1.37c.18.55,1,.31.86-.23a8.55,8.55,0,0,0-.42-1.5,8.2,8.2,0,0,0-1-1.3c-.35-.39-.72-.78-1-1.2a3.78,3.78,0,0,0-1-1c-.37-.21-.87.23-.61.61.53.8,1.08,1.58,1.66,2.34l.83,1.08c.15.2.31.39.46.58s.31.36.26.57l.43-.33a1.06,1.06,0,0,1-.59-.33,4.79,4.79,0,0,0-.69-.49,14,14,0,0,0-1.61-.77,17.1,17.1,0,0,0-3.57-1.08l.31.31a.39.39,0,0,1,.21-.37l-.66-.5a2.07,2.07,0,0,1-.27.45l.7.54a1.15,1.15,0,0,1,.56-.53.45.45,0,0,0,.31-.55.44.44,0,0,0-.54-.31Z"/><path class="cls-1" d="M162.36,67.69l.13.07s.09.08.13.08-.07,0,0,0l0,0,0,0,.11.11.1.11s0,0,0,.05l0,0,0,0,.15.26a.67.67,0,0,0,.06.12c-.07-.1,0,0,0,0l0,.08a.65.65,0,0,0,0,.13s0,.09,0,.09v0h0s0,0,0,0l0-.05h0l.09,0h.13l.06,0,.05,0,0,0,0,.06-.08-.13a.45.45,0,0,0-.61-.16.45.45,0,0,0-.16.61.93.93,0,0,0,.36.4.65.65,0,0,0,.74-.09,1,1,0,0,0,.13-1.1,2.47,2.47,0,0,0-1.16-1.36.45.45,0,0,0-.61.16.46.46,0,0,0,.16.61Z"/><path class="cls-1" d="M162.4,68.91l.2.28a.3.3,0,0,0,.12.13.28.28,0,0,0,.15.08.37.37,0,0,0,.18,0,.31.31,0,0,0,.16-.06l.09-.07a.39.39,0,0,0,.12-.19V69a.46.46,0,0,0-.06-.23l-.2-.28a.34.34,0,0,0-.12-.12.28.28,0,0,0-.15-.08.37.37,0,0,0-.18,0,.3.3,0,0,0-.16,0l-.09.07a.41.41,0,0,0-.12.2v.12a.43.43,0,0,0,.06.22Z"/><path class="cls-1" d="M162.59,67.45l-.06,0c-.06,0,0,0,0,0s.1,0,0,0,0,0,0,0,0,0,0,0l0,0c.05,0,0,0,0,0a1.21,1.21,0,0,1,.16.16l.08.09s0,0,0,0h0l.12.19a.41.41,0,0,0,.05.09l0,0s0,0,0,0a1.17,1.17,0,0,1,.13.45v0c0,.07,0,0,0,0s0,.09,0,.1a1.93,1.93,0,0,1,0,.24.49.49,0,0,0,0,.12.43.43,0,0,1,0,0c0-.08,0-.09.12-.16s.15-.13.06-.1,0,0,0,0h-.05s.1,0,0,0h0s-.13-.08-.07,0,0,0,0,0l0,0-.1-.11,0,0s0,.06,0,0a.86.86,0,0,0-.07-.1l-.18-.25L162,67.21a.45.45,0,1,0-.77.45l.87,1.23c.3.42.64.88,1.21.87a.88.88,0,0,0,.42-.11.62.62,0,0,0,.27-.52,2.09,2.09,0,0,0,0-.66,2.55,2.55,0,0,0-.48-1.18,2,2,0,0,0-.59-.57.86.86,0,0,0-1,.1.45.45,0,0,0,0,.63.46.46,0,0,0,.63,0Z"/><path class="cls-1" d="M157.65,68.47l0-.06a.23.23,0,0,0,0-.11.24.24,0,0,0,0-.12.21.21,0,0,0-.06-.1.16.16,0,0,0-.08-.08l-.07,0a.43.43,0,0,0-.16,0l-.07,0a.38.38,0,0,0-.11.11l0,.06a.2.2,0,0,0,0,.11.24.24,0,0,0,0,.12.27.27,0,0,0,.06.1.18.18,0,0,0,.08.07l.07,0a.22.22,0,0,0,.16,0l.07,0a.35.35,0,0,0,.11-.1Z"/><path class="cls-1" d="M157.12,68.2c0,.87,0,1.74,0,2.62a13.3,13.3,0,0,1-.36,2.66l-1,5.2c-.08.37.49.53.57.16l1.07-5.41a13.29,13.29,0,0,0,.34-2.51c0-.91,0-1.81,0-2.72a.3.3,0,0,0-.6,0Z"/><path class="cls-1" d="M157.26,68.54a9.44,9.44,0,0,1,1.37,2.86,10.64,10.64,0,0,1,.63,3.2,8.22,8.22,0,0,1,0,3.09,1.86,1.86,0,0,1-1.3,1.06,4.11,4.11,0,0,1-.85.16c-.24,0-.48.12-.42-.21l-.43.17a1.44,1.44,0,0,0,1.32.19c.33-.12.9-.86,1.24-.74l-.21-.2c0,.14-1.17.49-1.32.54l-.61.2-.41.14a.92.92,0,0,0,.24-.31l-.56-.15,0,.35c0,.38.61.38.59,0v-.35a.3.3,0,0,0-.56-.15.91.91,0,0,0-.06,1c.26.35.68.09,1,0,.6-.2,2.42-.5,2.24-1.44a.28.28,0,0,0-.21-.21c-1-.34-1.37,1.31-2.41.61a.31.31,0,0,0-.44.18c-.07.36-.06.84.36,1a3.61,3.61,0,0,0,1.89-.27,2.6,2.6,0,0,0,1.61-2.88,17.32,17.32,0,0,0-.47-4.37,18.93,18.93,0,0,0-.8-2.1,7,7,0,0,0-1-1.77c-.25-.29-.67.13-.42.42Z"/><path class="cls-1" d="M142,102.82v-1.34a.3.3,0,0,0-.6,0v1.34a.3.3,0,0,0,.3.3.31.31,0,0,0,.3-.3Z"/><circle class="cls-1" cx="290.53" cy="76.62" r="42.12"/><path d="M257.9,43.24a38,38,0,0,1,21.19-12.7,44.85,44.85,0,0,1,14.44-.36,78.56,78.56,0,0,1,14.39,3,32.67,32.67,0,0,1,11.81,7.13A55.92,55.92,0,0,1,328.88,50c5.47,8,5.22,18.18,4.48,27.44-1.46,18.16-15.29,32.45-32.36,37.46-9.45,2.76-19.27,2.61-28.32-1.43-8.08-3.62-16.3-9.17-20.87-16.92-4.69-7.94-5.78-17.41-4.69-26.44a74.93,74.93,0,0,1,3.46-14.62,29.74,29.74,0,0,1,4.65-9.32,28.88,28.88,0,0,1,2.67-3c1.18-1.17-.64-3-1.82-1.82a28.63,28.63,0,0,0-5.84,7.89,65.48,65.48,0,0,0-4.35,13.25c-2.26,9.64-2.62,20,.9,29.38a35.17,35.17,0,0,0,7.27,11.89,53.31,53.31,0,0,0,11.55,8.87,49.44,49.44,0,0,0,13.21,5.64,40.83,40.83,0,0,0,15.26.68c18.63-2.52,35.82-15.45,40.63-34.07a63,63,0,0,0,1.51-15.26c0-5-.24-10.14-2-14.87a33.45,33.45,0,0,0-7.63-11.49A62.35,62.35,0,0,0,315.71,34c-4.25-2.71-9.18-4-14.06-5a67.65,67.65,0,0,0-16-1.77,40.57,40.57,0,0,0-24.82,9.43,39.88,39.88,0,0,0-4.78,4.77C255,42.67,256.83,44.5,257.9,43.24Z"/><path d="M260.73,105.9c-1.4-10.24,1.32-20.7,5.81-29.84,4.16-8.46,9.66-16.94,19.57-18.86,4.78-.93,13.25-1.38,14.34,5,.25,1.51,2.55.87,2.29-.63-1-5.65-7.12-7.5-12.09-7.3a25.27,25.27,0,0,0-15.22,5.29c-4,3.23-6.94,7.68-9.35,12.17a67.16,67.16,0,0,0-6.49,16.09,51.55,51.55,0,0,0-1.15,18.68c.21,1.51,2.5.87,2.29-.63Z"/><path d="M300,65.84A4.71,4.71,0,0,1,302.06,64a2.12,2.12,0,0,1,2.57.35A11.83,11.83,0,0,1,308,69.25l1.46-1.46-6.05-2.16a10.38,10.38,0,0,0-5.62-.85c-3.3.7-5.13,4-6.26,6.88-1.21,3-2.67,7.84-.05,10.56s6.45.45,7.69-2.43a22,22,0,0,0,1.35-6,44.51,44.51,0,0,0,.34-7c0-1.53-2.43-1.54-2.38,0a41.51,41.51,0,0,1-.75,9.44A8.48,8.48,0,0,1,296.39,80c-.67.82-2,1.52-3,.76s-1-2.51-.84-3.72a21.69,21.69,0,0,1,1.22-4.55c.82-2.11,2.19-4.93,4.68-5.39,1.64-.3,3.38.51,4.89,1.05l5.51,2a1.19,1.19,0,0,0,1.46-1.46c-.95-2.62-2.75-5.54-5.28-6.91s-5.78.74-7.14,2.93c-.81,1.3,1.25,2.5,2.06,1.2Z"/><path d="M300.85,67.85a13.37,13.37,0,0,1,2.37,7.33c0,1.08,0,2.3-.88,3a5.86,5.86,0,0,1-3.55.88c-1.53,0-1.54,2.43,0,2.38a8.38,8.38,0,0,0,4.77-1.21,5.08,5.08,0,0,0,2-4.19,15.47,15.47,0,0,0-2.68-9.42c-.86-1.26-2.92-.07-2,1.2Z"/><path d="M298.35,80.76a98.82,98.82,0,0,0-2,17.58c-.28,6-.48,12.23.62,18.17.28,1.5,2.58.87,2.3-.63-1.06-5.72-.81-11.77-.54-17.54a95.43,95.43,0,0,1,1.9-17c.34-1.49-1.95-2.13-2.29-.63Z"/><path d="M291.76,60.51a1.78,1.78,0,0,0-2.23.5,4.42,4.42,0,0,0-.81,1.84,4.09,4.09,0,0,0,.62,3.56,2,2,0,0,0,1.9.65,2.11,2.11,0,0,0,1.42-1.1,4.47,4.47,0,0,0,.45-1.51,7,7,0,0,0,.06-2.1,2.34,2.34,0,0,0-1.12-1.7,1.94,1.94,0,0,0-2.29.23,2.75,2.75,0,0,0-.76,1.67,8.52,8.52,0,0,0-.11,2,5,5,0,0,0,.42,2,1.72,1.72,0,0,0,2,.92c1.61-.48,1.39-2.48,1.43-3.8a4.34,4.34,0,0,0-.3-2.31,2,2,0,0,0-2.23-1,1.53,1.53,0,0,0-1.05,1.31,7.61,7.61,0,0,0,0,1.07v2.1A1.2,1.2,0,0,0,290.37,66a1.21,1.21,0,0,0,1.19-1.19V62.19a1.71,1.71,0,0,0,0-.32c0-.11,0,.12,0,.14-.06.18-.16.22-.33.35s-.23.23-.44.23-.21-.05-.12,0-.24-.12-.13,0-.16-.17-.08-.06.14.15,0,0,0,0,0,0,.09.17,0,0,0,0,0,0c0,.24,0-.06,0-.06a.57.57,0,0,0,0,.13c0,.1,0,.2,0,.3,0,.85-.07,1.7-.09,2.55,0,.13,0-.11,0-.12s0,.1,0,.12.05-.08.05-.1c-.08.17,0,0,.06-.06s-.12.09,0,0a.63.63,0,0,1,.21-.12.7.7,0,0,1,.69.17s.13.22.1.12l-.05-.08c-.07-.11.06-.06,0,.11a.24.24,0,0,0,0-.09c0-.19-.07-.37-.11-.56s0,.09,0,.09v-.13l0-.32c0-.21,0-.43,0-.64s0-.39,0-.59,0,.09,0,.09l0-.13c0-.12,0-.23.07-.35l.06-.24s.06-.15,0,0,0,0,0,0,.1-.13,0,0,.13-.07-.08.06,0,0,0,0-.26.09-.1,0-.29,0-.16,0-.27-.06-.13,0-.14-.07-.13-.06l.09,0c.1,0-.1-.08-.11-.09l.1.09s-.13-.21-.08-.11.08.19,0,0,0,0,0,0a.94.94,0,0,1,0,.16c.06.21,0-.21,0,0a5.81,5.81,0,0,1,0,.59c0,.19,0,.39,0,.58s0-.22,0,0a.59.59,0,0,1,0,.13c0,.09,0,.18,0,.27s-.08.27-.12.4.14-.24,0,0a1.86,1.86,0,0,0-.11.19c.08-.22.16-.18.07-.11l-.06.06c-.07.09.13-.1.13-.1s0,0,.13,0l-.09,0,.17,0c-.05,0-.16,0,0,0s0,0,0,0l.16.06s-.17-.11,0,0-.16-.21,0,0,0,0,0-.09,0-.15,0,.12c0,0,0-.09,0-.13a2.17,2.17,0,0,1-.07-.24s0-.07,0-.1,0,.26,0,.13,0-.42,0-.64c0-.05,0-.11,0-.17s0,0,0,.06a1.28,1.28,0,0,0,.07-.34,5,5,0,0,1,.18-.63s.06-.1,0-.12-.1.21,0,.05a.54.54,0,0,0,.07-.13c.07-.13,0,0-.06.07s.25-.21.09-.1-.32.13-.21.11,0,0-.19,0a.53.53,0,0,1-.39-.07,1.19,1.19,0,0,0,1.2-2.06Z"/><path d="M279.32,58.1c-.26-3.74-.55-7.62.5-11.27.41-1.4,1.11-3.75,2.82-4a3.26,3.26,0,0,1,3.2,2.39c.33,1.05,2.05,1.21,2.29,0,.55-2.75,2.78-6.19,5.57-7.12a3.22,3.22,0,0,1,3.72,1.61,8.14,8.14,0,0,1,.83,5,1.21,1.21,0,0,0,2,.84,4.08,4.08,0,0,1,7,3.47c-.24,4.3-4.34,6.8-7.67,8.76a1.19,1.19,0,0,0,1.2,2c4.54-2.67,9.77-6.55,8.73-12.56a6.48,6.48,0,0,0-10.91-3.41l2,.85a10.05,10.05,0,0,0-1.36-6.47,5.67,5.67,0,0,0-5.15-2.6c-4.09.41-7.53,5.25-8.28,9h2.29c-1.31-4.18-6.64-5.68-9.19-1.72-2.82,4.36-2.34,10.32-2,15.24.1,1.52,2.48,1.53,2.38,0Z"/><path d="M258.88,100.91q-3.57-7.74-6.87-15.58a2.42,2.42,0,0,0-2.61-1.71A2.36,2.36,0,0,0,247.33,86,36.91,36.91,0,0,0,249.05,94a2.38,2.38,0,0,0,4.59-1.27c-3.51-16.46-6.27-37.23,8.29-49.42a47,47,0,0,1,13.39-7.62l-2.92-2.93a39,39,0,0,0-1.16,14.55c.3,2.57.9,5.07,1.36,7.62,0,.23.09.47.12.7,0,.07,0,.79.15.37s-.44.27-.63.41a24.12,24.12,0,0,0-2.64,2.31c-6.06,6.2-8.87,15-11.73,23C256,86.9,254.07,92.34,254.61,98l4.68-.63a111,111,0,0,1-.78-45.05c.57-3-3.8-4.27-4.59-1.27a176.82,176.82,0,0,0-4.87,27h4.75A133.68,133.68,0,0,1,255.25,57l-4.68-.63q0,11.59-.56,23.17h4.76A91,91,0,0,1,256.5,61l-4.67-.63q-1.37,11.83-1.63,23.77c-.07,3.06,4.69,3.06,4.76,0A118.21,118.21,0,0,1,260,52.4l-4.67-.64c-.32,5.79-.88,11.56-1.72,17.3l4.67.63a93.26,93.26,0,0,1,5.22-22.84L259,45.58a44,44,0,0,1-3.33,10.56L260,58a54.27,54.27,0,0,1,3.91-12l-4.35-1.84a56.41,56.41,0,0,1-4,8.09c-1.59,2.67,2.39,4.89,4.11,2.4l4.94-7.14c1.33-1.93-1.33-4.6-3.26-3.26l-6.74,4.66,3.26,3.26a42.75,42.75,0,0,1,8.76-11l-3.73-2.89-1.29,2.57a2.41,2.41,0,0,0,.61,3.07,2.35,2.35,0,0,0,3.13-.19,13.18,13.18,0,0,1,2.33-2.39l-3.5-1.42.37.9c.62,1.55,2.64,2.5,4,1.05L270,40.26l-4-1a8,8,0,0,1,.48,3.53c-.2,2.5,3.24,3,4.43,1.2l1.84-2.83-4.35-1.83a56.72,56.72,0,0,0-1.25,8.61c-.17,2.34,3.38,3.27,4.43,1.2l1.68-3.3L268.9,44c-.77,2.59-1.62,5.15-2.53,7.69-.83,2.31,2.38,3.91,4,2.31l.72-.71-4-2.32a34.63,34.63,0,0,1-4.76,10.87l4.11,2.4,4.18-6.68-4.11-2.4-4.06,8.62a2.38,2.38,0,0,0,4.11,2.41l3.26-5.07a2.38,2.38,0,1,0-4.1-2.4q-2.57,3.63-4.81,7.47l4.11,2.4,6.26-11.63a2.39,2.39,0,0,0-.61-3.07,2.37,2.37,0,0,0-3.13.18,135.1,135.1,0,0,0-9.1,12.69l4.11,2.4q2.38-4.42,4.92-8.78a2.38,2.38,0,1,0-4.11-2.4,112.66,112.66,0,0,0-10,16l4.35,1.84a141.61,141.61,0,0,0,6-22.65,2.38,2.38,0,0,0-4.59-1.26,62.63,62.63,0,0,0-3.24,19.57c0,2.82,3.77,3.06,4.67.63a98.72,98.72,0,0,0,5.31-21.83,2.35,2.35,0,0,0-2.06-2.34,2.4,2.4,0,0,0-2.61,1.7l-8.54,28.11c-.9,3,3.56,4.11,4.59,1.27a99.09,99.09,0,0,1,6.16-13.66L259,64.09a65.47,65.47,0,0,1-2.34,12.73c-.85,3,3.65,4.17,4.59,1.26l4.47-13.87c.94-2.92-3.64-4.16-4.59-1.26q-2.45,7.44-5.26,14.76L260.48,79a80.48,80.48,0,0,1,3.24-8l-4.35-1.83a60.78,60.78,0,0,1-5.66,12.32l4.35,1.84c2.06-7.29,4.67-14.39,7.29-21.49.8-2.16-2.51-4.16-4-2.31L260.2,61l4,2.31q2.29-5.79,4.23-11.73c.3-.91.59-1.82.87-2.74a10.61,10.61,0,0,0,.78-3.16,3,3,0,0,0-4.5-2.63L269,44.44a2.66,2.66,0,0,1,.14-1.08c.74-2.69-2.86-4-4.35-1.83l-1.17,1.71,4.11,2.4L269,43a2.47,2.47,0,0,0-.85-3.26,2.42,2.42,0,0,0-3.26.86c-.75,1.21-1.89,2.57-2.18,4a6.85,6.85,0,0,0,3.17,7c.39.24,1.1.4,1.36.77a3.31,3.31,0,0,1,.24,1.22c.23,2.24,3.12,3.36,4.43,1.2l1.26-2.07-4.44-1.2.16,2.63a2.41,2.41,0,0,0,4.06,1.68l.17-.15-1.05.62.22,0H271l-.45-.26-.61-1.05,0-.08h4.58l-.13-.88-.24,1.83.51-1c1.4-2.72-2.7-5.13-4.11-2.4a9,9,0,0,0-.75,1.56,5.22,5.22,0,0,0,.14,2.15c.34,2.29,4.2,2.25,4.58,0,.26-1.5.17-3.17-1.28-4.06a3.05,3.05,0,0,0-3.72.4l4.07,1.68-.16-2.63A2.4,2.4,0,0,0,269,50.24l-1.26,2.07,4.43,1.21a8.83,8.83,0,0,0-.88-3.58c-.72-1.26-1.76-1.71-2.92-2.43a2.26,2.26,0,0,1-1.07-1.6c-.06-.31.07-.49,0-.24a4.58,4.58,0,0,1,.47-.76L269,43l-4.11-2.4-1.18,2.65a2.38,2.38,0,0,0,4.11,2.4l1.17-1.71-4.35-1.83a8.46,8.46,0,0,0-.14,3.61c.24,1.54,2.31,2.13,3.5,1.42l.21-.13-1.2.33.25,0L266,47l.23.13-.85-.85-.15-.59-.21.69c-.09.31-.18.61-.28.92-.21.69-.42,1.37-.64,2.06q-.71,2.16-1.44,4.32-1.46,4.2-3.09,8.32c-.85,2.16,2.53,4.14,4,2.31l1.18-1.49-4-2.31c-2.62,7.09-5.23,14.2-7.29,21.48-.74,2.61,3,4.14,4.35,1.84A67.55,67.55,0,0,0,264,70.39c.83-2.53-3.19-4.3-4.35-1.84a86.44,86.44,0,0,0-3.71,9.16,2.39,2.39,0,0,0,1.66,2.92A2.42,2.42,0,0,0,260.48,79q2.82-7.31,5.27-14.76L261.16,63l-4.47,13.87,4.59,1.26a72.92,72.92,0,0,0,2.51-14c.19-2.38-3.35-3.19-4.44-1.2a107.08,107.08,0,0,0-6.64,14.79L257.3,79l8.54-28.11-4.67-.63A93.65,93.65,0,0,1,256,70.78l4.68.63a58.23,58.23,0,0,1,3.07-18.31l-4.59-1.26a140.73,140.73,0,0,1-6,22.64c-.9,2.53,3.12,4.23,4.35,1.84a111.86,111.86,0,0,1,10-16l-4.11-2.4q-2.53,4.35-4.92,8.78a2.38,2.38,0,0,0,4.11,2.4,123.4,123.4,0,0,1,8.36-11.72l-3.74-2.88-6.26,11.63c-1.45,2.69,2.55,5,4.11,2.4s3.1-5.05,4.8-7.47l-4.1-2.4-3.27,5.06,4.11,2.41,4.06-8.63c1.29-2.73-2.46-5-4.11-2.4l-4.18,6.68c-1.63,2.62,2.44,4.95,4.11,2.4a39.07,39.07,0,0,0,5.24-12,2.4,2.4,0,0,0-4-2.32l-.72.72,4,2.31c.91-2.53,1.75-5.1,2.52-7.68s-3.1-4.27-4.34-1.83l-1.69,3.3,4.43,1.2A49.37,49.37,0,0,1,273,40.54a2.39,2.39,0,0,0-4.35-1.83l-1.84,2.83,4.44,1.2a11.65,11.65,0,0,0-.65-4.79c-.57-1.59-2.68-2.47-4-1.05l-1.48,1.62,4,1-.36-.9c-.5-1.25-2.14-2.45-3.49-1.42a17.18,17.18,0,0,0-3.3,3.13l3.74,2.88L267,40.7a2.39,2.39,0,0,0-3.74-2.89,46.84,46.84,0,0,0-9.51,12c-1.09,1.95,1.21,4.67,3.25,3.25l6.74-4.66-3.25-3.26-4.94,7.15,4.11,2.4a63.37,63.37,0,0,0,4.5-9.22c1-2.49-3.21-4.28-4.35-1.84a60.25,60.25,0,0,0-4.39,13.12,2.39,2.39,0,0,0,1.38,2.8,2.35,2.35,0,0,0,3-1,48.63,48.63,0,0,0,3.81-11.69A2.38,2.38,0,0,0,259,45.58a98.59,98.59,0,0,0-5.39,24.11c-.25,2.64,4.28,3.29,4.67.63.91-6.15,1.56-12.34,1.9-18.56.14-2.74-3.92-3.13-4.68-.63a123.18,123.18,0,0,0-5.25,33H255q.25-11.93,1.63-23.77c.3-2.65-4.15-3.25-4.68-.63A97.62,97.62,0,0,0,250,79.51c0,3.07,4.61,3,4.76,0q.55-11.58.56-23.17A2.38,2.38,0,0,0,253.27,54a2.35,2.35,0,0,0-2.61,1.71A140.1,140.1,0,0,0,249.05,78a2.38,2.38,0,1,0,4.75,0,170.37,170.37,0,0,1,4.71-25.74L253.92,51a117.2,117.2,0,0,0,.78,47.59c.58,2.57,4.93,2.06,4.67-.64-.46-4.82,1.09-9.39,2.68-13.87,1.48-4.16,2.95-8.36,4.78-12.38a32.61,32.61,0,0,1,6.41-9.9c1.45-1.43,3.75-2.49,4.22-4.61a9.42,9.42,0,0,0-.27-3.54c-.23-1.25-.51-2.48-.75-3.73A34.88,34.88,0,0,1,277,34c.44-1.62-1.17-3.59-2.92-2.93-9,3.44-17.75,8.89-22.66,17.45-4.76,8.31-6,18.17-5.22,27.59A136.66,136.66,0,0,0,249.05,94l4.59-1.27A31.46,31.46,0,0,1,252.09,86l-4.67.63Q251,95,254.77,103.31a2.38,2.38,0,0,0,3.25.85,2.44,2.44,0,0,0,.86-3.25Z"/><path d="M268.87,38.1v.13l1.18-2.06-.15.08,1.84-.24-.15-.07,1.75,2.3,0-.25-.33,1.2c1-1.85,3.16-3.2,5-4a22.87,22.87,0,0,1,7.34-1.63c5.93-.42,12.28.19,17.76,2.6l-.48-3.74a5.37,5.37,0,0,0-1.75,3.81c-.05.45-.06.94-.12,1.35s-.25.46,0,.41l2.93,2.93c1.64-4-1.84-8.5-6-8.53-2.23,0-3.4,3.4-1.2,4.43.5.23.33.16.33.16l4.06-1.68a9.69,9.69,0,0,0-16.78,4.48l4-1a7.86,7.86,0,0,0-10,.13c-3.17,2.5-4,6.75-4.05,10.58h4.76c-.18-2-.28-3.93-.31-5.9,0-1,0-2.06,0-3.08a3.27,3.27,0,0,1,.36-1.93c.72-.82,2.54-.85,3.51-1l6.35-.95-1.83-4.35a35.51,35.51,0,0,0-3.69,2.36c-1.26.92-1.82,3.33,0,4.11a7.47,7.47,0,0,0,6.12-.15,17.89,17.89,0,0,1,6-1.33,50.63,50.63,0,0,0,6.51-.46c.45-.08,3.88-1.27,4.11-.49l.61-2.32A12.88,12.88,0,0,0,303.08,39,2.39,2.39,0,0,0,304.74,42c4,.78,7.23,4.81,6.49,9a2.4,2.4,0,0,0,1.38,2.8,2.37,2.37,0,0,0,3-1,8.05,8.05,0,0,0-1.16-9c-2.05-2.52-5.28-3.67-8.27-4.67l-.63,4.67c1.45.18,2.51,1.77,3,3,.77,2.15.49,4.58.33,6.81s3.33,3.2,4.43,1.2l2.1-3.82L311,49.11a12.48,12.48,0,0,1-8.26,8.17l2.31,4c3.76-3.3,7.59-6.9,9-11.88a13.38,13.38,0,0,0,0-7.29c-.69-2.41-1.87-4.65-2.4-7.11l-3.49,2.68a35.76,35.76,0,0,1,7.64,5l8.06,6.52a26.4,26.4,0,0,1,3.45,3,8.6,8.6,0,0,1,1.55,4.15,92.25,92.25,0,0,1,1.45,9.92,50.55,50.55,0,0,1,.32,9.68c-.3,2.9-1.87,5.64-2.57,8.47a26.63,26.63,0,0,1-3,8.21,28.32,28.32,0,0,1-5.41,6.1,113.22,113.22,0,0,1-17.34,12.12c-2.63,1.57-.24,5.68,2.4,4.11a131.72,131.72,0,0,0,17.08-11.81c4.89-4.08,8.74-9,10.31-15.23.41-1.63.75-3.28,1.28-4.88s1.2-3,1.59-4.5c.88-3.47.48-7.29.21-10.81a104.75,104.75,0,0,0-1.38-10.74c-.63-3.45-1.31-6.62-4.06-9-3-2.69-6.32-5.14-9.47-7.69s-6.1-5.05-9.72-6.67a2.42,2.42,0,0,0-3.5,2.69c.85,4,3.63,7.67,2.45,11.87s-4.66,7.07-7.76,9.79c-1.8,1.58.1,4.64,2.31,4a17.44,17.44,0,0,0,11.59-11.5c.8-2.57-3.05-4.2-4.35-1.83l-2.1,3.82,4.43,1.2c.25-3.27.34-6.63-1.13-9.65a8.75,8.75,0,0,0-6.9-4.94A2.35,2.35,0,0,0,303.19,41a2.4,2.4,0,0,0,1.7,2.61c1.87.63,3.95,1.26,5.43,2.64,1.05,1,1.93,2.66,1.15,4.06l4.35,1.83c1.16-6.55-3.12-13.5-9.81-14.81l1.66,2.93a7.85,7.85,0,0,1,2.26-3,2.34,2.34,0,0,0,.61-2.32,5.29,5.29,0,0,0-5.07-3.69c-2.34-.08-4.61.93-7,1a50.54,50.54,0,0,0-7.17.52A20,20,0,0,0,288,34c-.59.23-1.81.91-2.46.63v4.11a33.93,33.93,0,0,1,3.69-2.36,2.38,2.38,0,0,0,1-3A2.44,2.44,0,0,0,287.43,32c-2.4.36-4.81.68-7.2,1.08a7.77,7.77,0,0,0-5.29,2.78c-1.36,1.88-1.25,4.29-1.25,6.5q0,3.55.32,7.09c.26,3,4.73,3.11,4.76,0,0-2.22.25-4.74,1.81-6.47.9-1,3-1.88,4.15-.88s3.58.85,4-1.05a5,5,0,0,1,8.83-2.38A2.4,2.4,0,0,0,301.6,37a4.86,4.86,0,0,0-2.68-4.27l-1.21,4.44a1.73,1.73,0,0,1,1.37,2.5c-.75,1.81,1.36,3.27,2.92,2.93a4.55,4.55,0,0,0,3.27-3.42c.25-.92-.07-2.75.73-3.37a2.39,2.39,0,0,0-.48-3.74,42.67,42.67,0,0,0-21.45-3.13,26.62,26.62,0,0,0-9.18,2.5A17,17,0,0,0,271.24,34c-1.15,1-2.79,2.63-2.66,4.29a2.51,2.51,0,0,0,1.75,2.29,2.48,2.48,0,0,0,2.12-.25,2.34,2.34,0,0,0,1.18-2.05V38.1c-.1-3.05-4.86-3.07-4.76,0Z"/><path d="M316,102.52a27.09,27.09,0,0,1-15.48,9.94l3,2.29a143.22,143.22,0,0,1,.19-21.92c.16-1.78.35-3.56.57-5.33.11-.84.22-1.67.35-2.51,0-.24.07-.48.11-.72.14-.45.05-.45-.28,0-1,.45.27.1.56,0a8.77,8.77,0,0,0,4.62-7.53c.11-3.06-4.65-3-4.76,0a3.87,3.87,0,0,1-1.42,2.89c-1.09.91-2.39,1-3,2.49s-.68,3.72-.9,5.42-.41,3.55-.57,5.33a143.22,143.22,0,0,0-.19,21.92,2.42,2.42,0,0,0,3,2.3,32.1,32.1,0,0,0,18.33-12.13,2.4,2.4,0,0,0-.85-3.26,2.45,2.45,0,0,0-3.26.86Z"/><path d="M304.9,73.07a28.6,28.6,0,0,1,0,7.22l.08-.64-.06.44a2.67,2.67,0,0,0,.24,1.84A2.46,2.46,0,0,0,306.56,83a2.41,2.41,0,0,0,1.84-.24,2.32,2.32,0,0,0,1.09-1.42,31.11,31.11,0,0,0,.17-8.29,2.7,2.7,0,0,0-.7-1.69,2.4,2.4,0,0,0-3.37,0,2.3,2.3,0,0,0-.69,1.69Z"/><path d="M302,85l1.35,0h.45c.62,0,.6,0-.07-.11l-1.09-1.42a7.28,7.28,0,0,1-.19,2.44c-.15,1-.34,2.07-.49,3.1a50.32,50.32,0,0,0-.5,6.13c-.07,4,.25,8.06-.29,12a2.45,2.45,0,0,0,1.66,2.93,2.41,2.41,0,0,0,2.93-1.66,1.52,1.52,0,0,1,.56-1.17l-3.58-2a3,3,0,0,1-.41,1.79c-1.4,2.42,1.74,4.64,3.73,2.89a63.11,63.11,0,0,1,6.14-4.78l-2.88-3.73-2.93,3.1c-2.1,2.23,1.19,5.54,3.37,3.37a43.24,43.24,0,0,1,8.41-6.58l-2.89-3.73a42.44,42.44,0,0,1-5.42,4.87l2.89,3.74a103,103,0,0,1,12.71-11.27l-2.89-3.73L317,96.34l3.37,3.37a43.3,43.3,0,0,0,4.19-4.48c1.35-1.66,2.66-3.45,2-5.7a2.41,2.41,0,0,0-3.5-1.42,3.71,3.71,0,0,0-1.82,2.26c-.91,2.68,2.91,4,4.35,1.84a20.75,20.75,0,0,0,2.93-6.65,2.39,2.39,0,0,0-4.35-1.84,19.18,19.18,0,0,0-3,8.57,2.35,2.35,0,0,0,2.06,2.33,2.42,2.42,0,0,0,2.61-1.7A82.11,82.11,0,0,0,330.55,75l-4.68-.64.05,2.61a2.38,2.38,0,1,0,4.75,0,129.17,129.17,0,0,0,.79-14.59c0-3.08-4.6-3-4.76,0a11.91,11.91,0,0,0,.25,2.85c.52,2.68,4.65,2,4.67-.64,0-5.63-.61-12-3.87-16.8a9.22,9.22,0,0,0-3.12-2.9,12.55,12.55,0,0,1-2.86-1.83c-1.95-2-4.31-4.43-7.39-3.18a2.44,2.44,0,0,0-1.75,2.29l.21,2.2a2.41,2.41,0,0,0,2.38,2.38,4,4,0,0,0,2-.6l-3.5-1.43a13.22,13.22,0,0,0,6.18,7.4c1.21.65,3.25.17,3.49-1.42a4.76,4.76,0,0,0-1.18-4.24,2.4,2.4,0,0,0-3.37,0,2.44,2.44,0,0,0,0,3.36,27,27,0,0,1,3.05,4.53,9.4,9.4,0,0,1,.78,4.91c-.18,4.45.16,8.89.13,13.34a36.51,36.51,0,0,1-1.62,11.57c-1.21,3.55-3.51,6.68-5.69,9.68-2.06,2.83-4.54,5.65-8.1,6.42l2.92,2.93c2.47-6.16,1.58-12.87,2.3-19.31a40.06,40.06,0,0,0,.57-4.74,11.26,11.26,0,0,0-1-4.5,16.3,16.3,0,0,0-5.81-6.62l-2.4,4.11c2,.86,3.77,2.29,6.07,2.25a5.34,5.34,0,0,0,4.89-3.86c.69-2.45-.67-4.43-2-6.32-.73-1-1.47-2-2.27-2.94-.38-.45-.77-.88-1.19-1.3-.15-.15-1-1.08-.93-.75v1.26l.09-.31-.61,1a15.74,15.74,0,0,1,2.72-2.14l3.11-2.3c2.08-1.52,4.18-3,6.28-4.53l-3.26-.85c1.73,4.07,1.79,8.78,1.73,13.12a74.31,74.31,0,0,1-1.34,13.14,75.93,75.93,0,0,1-9.66,24.93l4.11,2.4a81.78,81.78,0,0,1,8.58-12.1c2-2.3-1.34-5.67-3.36-3.36l-7.45,8.5,4,2.31.89-6.44a2.44,2.44,0,0,0-.86-2.5,2.38,2.38,0,0,0-2.64-.18,16.38,16.38,0,0,0-3,2.46l4.06,1.68a37.77,37.77,0,0,0-.45-11.33,2.39,2.39,0,0,0-4-1,6.73,6.73,0,0,0-1.74,5.2,2.4,2.4,0,0,0,2.06,2.33,2.36,2.36,0,0,0,2.61-1.7,23.45,23.45,0,0,0,.59-4.09c.14-2.63-4.25-3.3-4.68-.63q-1.55,9.62-2.59,19.31h4.76a26.71,26.71,0,0,1,1-9l-4.67-.63.12,2.52c.11,2.16,3.37,3.49,4.44,1.2a65.1,65.1,0,0,1,8.25-13.35l-2.32.62.23.08-1.05-.61c-.22-.9-.32-1.13-.31-.7v.09s-.17.68-.21.87l-.55,2.3-1.1,4.6c-.61,2.52,3.1,4.35,4.34,1.84a54.08,54.08,0,0,1,7-10.84l-4-2.32a24,24,0,0,1-4.53,8.69l3.74,2.88a55.89,55.89,0,0,1,5.83-9.16,2.46,2.46,0,0,0,0-3.36,2.4,2.4,0,0,0-3.37,0,27.9,27.9,0,0,1-5.58,5.27L319,87.71a32.9,32.9,0,0,1,4.75-7.57c2-2.31-1.13-5.53-3.36-3.36l-2.63,2.54,3.36,3.36a53.32,53.32,0,0,1,6.47-6.1l-3.36-3.36a18.75,18.75,0,0,1-6,5.09l3.25,3.25A42,42,0,0,1,326,75.88a2.38,2.38,0,1,0-3.36-3.36l-7.81,6.24,3.74,2.89a31.06,31.06,0,0,1,7-7L322.6,71a103.7,103.7,0,0,1-8.21,6.58l3.25,3.25a6.71,6.71,0,0,1,2.5-2.46l-2.88-3.74q-3.74,3.75-7.75,7.22l3.37,3.36A16.72,16.72,0,0,1,316.07,82l-3.25-3.25a2.44,2.44,0,0,1-.85,1L315.23,83c1.39-3,2.67-6,3.81-9.07.77-2.06-1.8-3.6-3.49-2.69a8,8,0,0,0-2.8,2.59l4.11,2.4,2-3.2c1.25-2-1.26-4.55-3.25-3.25a19.32,19.32,0,0,0-3.34,2.71L316,75.4l1.16-1.74c1.58-2.34-1.8-4.6-3.73-2.88a1.62,1.62,0,0,1-.43.31l2.68,3.5,3.21-6.34A2.4,2.4,0,0,0,315.65,65a7.24,7.24,0,0,0-2.32,2.19c-1.56,2.17,2.05,5,3.74,2.88a23.5,23.5,0,0,0,3.48-6c1-2.47-3.29-4.31-4.34-1.83a14.72,14.72,0,0,0-1.27,5.46,2.4,2.4,0,0,0,3.58,2.06,16.38,16.38,0,0,0,5.2-4.88l-4.11-2.41a40.91,40.91,0,0,0-3.81,7.38l4.59,1.26a35.43,35.43,0,0,0,1.34-7.07c.17-2,.54-4.83-.61-6.64-1.57-2.45-4.42-1.44-5.92.46a8.5,8.5,0,0,0-1.8,6c.17,1.82,2.62,3.43,4.06,1.68a14.84,14.84,0,0,0,3.13-12.87,2.4,2.4,0,0,0-3.5-1.42,11.88,11.88,0,0,0-5.25,7.44,2.4,2.4,0,0,0,4,2.31,5.76,5.76,0,0,0,1.63-5.47c-.3-1.63-2.22-2-3.49-1.42a8.82,8.82,0,0,0-4.87,6.49c-.26,1.7,1,3.48,2.93,2.92a4.64,4.64,0,0,0,3.41-4.47,2.4,2.4,0,0,0-2.38-2.38,5.4,5.4,0,0,0-5,3.89c-.65,2.12,1.73,3.54,3.5,2.69a3.82,3.82,0,0,0,1.55-5.22,2.41,2.41,0,0,0-3.25-.86,4,4,0,0,0-1.78,4.46,4,4,0,0,0,1.17,1.95,6.63,6.63,0,0,0,2.35,1L310.52,64c-.21-.45-.26-.47-.14-.06a2.21,2.21,0,0,0,.15.56,3.67,3.67,0,0,0,.78,1.3,3.13,3.13,0,0,0,3,.85l-2.31-4-1.12,1.41a2.44,2.44,0,0,0,0,3.36,2.39,2.39,0,0,0,3.36,0l1.12-1.4a2.4,2.4,0,0,0-2.31-4l-.26,0h1.27l-.24-.1,1.05.62c.26.24.18.42.06-.1a4.13,4.13,0,0,0-.24-.7,3.13,3.13,0,0,0-1.58-1.68,3,3,0,0,0-.7-.26c-.65-.12-.29-.09,0,.2a.76.76,0,0,1-.18,1.22L309,60.47a1.23,1.23,0,0,1,.15-1.29l3.5,2.69c.07-.22.18-.39.43-.4l-2.38-2.38c0,.17.2-.15.08-.12l2.93,2.93a4.46,4.46,0,0,1,2.68-3.64l-3.49-1.42c.07.37-.17.6-.41.84l4,2.31a7.08,7.08,0,0,1,3.06-4.59L316,54a9.75,9.75,0,0,1-1.9,8.23l4.06,1.69c-.11-1.16.07-2.86,1.22-3.49l-1.2.33-.4-.15-.85-.86c.51.67.12,3.43,0,4.57a29.41,29.41,0,0,1-1.15,5.58,2.4,2.4,0,0,0,1.66,2.92,2.43,2.43,0,0,0,2.93-1.66,34.83,34.83,0,0,1,3.33-6.23,2.38,2.38,0,1,0-4.11-2.41,10.77,10.77,0,0,1-3.5,3.18l3.58,2a8.7,8.7,0,0,1,.62-3.06L316,62.84a15.92,15.92,0,0,1-2.27,3.86l3.74,2.89a1.69,1.69,0,0,1,.61-.48l-3.25-3.26-3.21,6.34c-.82,1.63.6,4.34,2.69,3.49a8.08,8.08,0,0,0,2.53-1.53l-3.73-2.89L311.91,73c-1.52,2.26,1.87,4.79,3.74,2.88a13.5,13.5,0,0,1,2.37-2l-3.26-3.26-2,3.2c-1.65,2.63,2.38,4.88,4.11,2.4a2.84,2.84,0,0,1,1.09-.88l-3.49-2.68q-1.51,4-3.34,7.93a2.48,2.48,0,0,0,.37,2.88,2.41,2.41,0,0,0,2.89.37,7.17,7.17,0,0,0,2.54-2.76,2.45,2.45,0,0,0-.37-2.88,2.38,2.38,0,0,0-2.88-.37,20.77,20.77,0,0,0-4.16,3.95,2.38,2.38,0,0,0,3.37,3.36q4-3.47,7.74-7.22a2.39,2.39,0,0,0-2.88-3.73,11.69,11.69,0,0,0-4.21,4.17c-1.15,1.94,1.26,4.69,3.26,3.26A115.58,115.58,0,0,0,326,74.33c2-1.77-.68-5.33-2.89-3.74a38.1,38.1,0,0,0-8.67,8.66,2.36,2.36,0,0,0,.61,3.06,2.44,2.44,0,0,0,3.13-.18l7.8-6.25-3.36-3.36a49,49,0,0,0-5.28,6.64c-1.38,2.09,1.27,4.31,3.26,3.26a21.92,21.92,0,0,0,7-5.84,2.38,2.38,0,0,0-3.36-3.36,51.85,51.85,0,0,0-6.47,6.1c-2,2.27,1.15,5.51,3.36,3.36l2.63-2.54-3.36-3.36a37,37,0,0,0-5.5,8.53,2.46,2.46,0,0,0,.37,2.88,2.39,2.39,0,0,0,2.88.37,32.3,32.3,0,0,0,6.55-6l-3.37-3.36a61.75,61.75,0,0,0-6.57,10.12,2.41,2.41,0,0,0,.61,3.07,2.38,2.38,0,0,0,3.13-.18,29.86,29.86,0,0,0,5.75-10.79c.63-2.17-2.41-4.19-4-2.31a58.71,58.71,0,0,0-7.75,11.79l4.34,1.84,1.71-7.13c.53-2.21.43-4.47-2-5.36a2.32,2.32,0,0,0-2.32.61,70.15,70.15,0,0,0-9,14.31l4.43,1.2-.12-2.52a2.39,2.39,0,0,0-4.68-.63,31.1,31.1,0,0,0-1.2,10.24,2.38,2.38,0,0,0,4.76,0q1-9,2.42-18l-4.67-.63a14.88,14.88,0,0,1-.42,2.82l4.68.64a2.22,2.22,0,0,1,.34-1.83l-4-1A33.59,33.59,0,0,1,307,95.4c-.25,2.11,2.73,3,4.06,1.68a11.82,11.82,0,0,1,2.08-1.72l-3.49-2.68-.89,6.44a2.49,2.49,0,0,0,1.09,2.68,2.4,2.4,0,0,0,2.89-.37l7.44-8.5-3.36-3.36a88.12,88.12,0,0,0-9.33,13.06c-1.55,2.66,2.52,5,4.11,2.4a80.09,80.09,0,0,0,11.64-43.11A34.33,34.33,0,0,0,320.91,49a2.38,2.38,0,0,0-3.25-.86c-2.76,2-5.51,4-8.23,6-2.25,1.67-7.67,4.43-4.83,7.82,1,1.19,2.22,2.16,3.19,3.39a16.64,16.64,0,0,1,2.45,3.47c.19.5,0,.9-.6.84-1.1-.11-2.29-1.17-3.3-1.6a2.38,2.38,0,0,0-2.4,4.11,10.47,10.47,0,0,1,4.18,5.22c.77,2.51-.19,5.3-.39,7.85-.44,5.62.13,11.38-2,16.73-.72,1.8,1.35,3.27,2.93,2.92,3.84-.83,6.9-3.47,9.31-6.46a49.47,49.47,0,0,0,6.84-10.52c3.92-8.87,2.34-18.5,2.6-27.88a16,16,0,0,0-1.14-7.49,29.74,29.74,0,0,0-4.05-6l-3.37,3.36a.39.39,0,0,1,0-.39l3.49-1.42a8.26,8.26,0,0,1-4-4.55,2.4,2.4,0,0,0-3.49-1.42l.4,0,2.38,2.38-.21-2.2-1.75,2.29c.67-.27,1.07.17,1.55.66a21.35,21.35,0,0,0,2.57,2.46c.83.59,1.76,1,2.63,1.51a5.12,5.12,0,0,1,1.87,2.12c2.21,4.07,2.64,8.84,2.6,13.38l4.67-.63a6.42,6.42,0,0,1-.07-1.58H326.7A131.54,131.54,0,0,1,325.92,77h4.75l0-2.61a2.38,2.38,0,0,0-2.06-2.33,2.34,2.34,0,0,0-2.61,1.7,81.25,81.25,0,0,1-4.77,17.88l4.68.64a14.09,14.09,0,0,1,2.39-6.16l-4.35-1.84a16.7,16.7,0,0,1-2.45,5.52l4.35,1.83-.37.57L322,90.79c-.06-.18.18-.28,0,.08s-.28.45-.44.66c-.43.58-.92,1.13-1.4,1.68A43.2,43.2,0,0,1,317,96.34c-2.25,2.1,1.12,5.44,3.37,3.37l5.57-5.15c1.94-1.79-.69-5.37-2.89-3.74a111.48,111.48,0,0,0-13.67,12,2.39,2.39,0,0,0-.18,3.12,2.35,2.35,0,0,0,3.07.61,49.35,49.35,0,0,0,6.38-5.62c1.82-1.92-.51-5.16-2.89-3.74a48.85,48.85,0,0,0-9.37,7.32l3.37,3.37,2.92-3.11c1.78-1.89-.56-5.32-2.88-3.74a74.5,74.5,0,0,0-7.1,5.52l3.73,2.89a7.66,7.66,0,0,0,1.07-4.2c-.07-1.68-2-3.13-3.58-2.06a6.1,6.1,0,0,0-2.75,4l4.59,1.27c.75-5.47.16-10.94.6-16.42.22-2.64.86-5.23,1-7.88a3.39,3.39,0,0,0-1.46-3.5c-1.11-.65-2.71-.42-3.94-.44-3.06-.06-3.06,4.7,0,4.75Z"/><path d="M313.15,74.4l-.37.12a2.66,2.66,0,0,0-1.42,1.1,1.73,1.73,0,0,0-.28.88,1.81,1.81,0,0,0,0,1l.24.57a2.42,2.42,0,0,0,.86.85l.56.24a2.48,2.48,0,0,0,1.27,0l.36-.12a1.87,1.87,0,0,0,.81-.43,1.79,1.79,0,0,0,.61-.67,1.77,1.77,0,0,0,.29-.88,1.81,1.81,0,0,0-.05-1l-.24-.57a2.31,2.31,0,0,0-.85-.85l-.57-.24a2.25,2.25,0,0,0-1.26,0Z"/><path class="cls-1" d="M278.27,55.09l0,.07,1.34-.54-.13-.06.71.55a5.69,5.69,0,0,1-.33-2.41,15.53,15.53,0,0,1,.08-2.26,14,14,0,0,1,1.37-4.65c.27-.53.57-1.27,1.2-1.45a2.07,2.07,0,0,1,1.76.63c1,.85,1.75,3,3.37,2.6S289,45,289.45,43.89a6.87,6.87,0,0,1,2.7-3.29,5.57,5.57,0,0,1,2.2-.77c.21,0,.73-.12.89,0s.41.72.53,1a13.52,13.52,0,0,1,1.31,4.95c.11,1.52,2.49,1.53,2.38,0a16.51,16.51,0,0,0-1.57-6c-.41-.86-.86-1.85-1.84-2.16a5.45,5.45,0,0,0-2.75,0,8.18,8.18,0,0,0-4.61,2.94A9.76,9.76,0,0,0,287.28,43a10.9,10.9,0,0,0-.51,1.49c0,.2-.09.41-.13.61s-.05.29-.08.43,0,.16.12-.11l.92-.12c-.23,0-.7-.89-.84-1.06a8.25,8.25,0,0,0-1.08-1.13A4.81,4.81,0,0,0,283,41.94c-2.17-.14-3.34,1.62-4.11,3.38a16.85,16.85,0,0,0-1.43,6.09,16.54,16.54,0,0,0,.19,3.22c.15,1,.27,1.86,1.3,2.28a1.18,1.18,0,0,0,1.34-.54l.05-.08c.8-1.31-1.26-2.5-2.06-1.2Z"/><path class="cls-1" d="M299.75,47.36a10.3,10.3,0,0,1,2.25-.94,3.19,3.19,0,0,1,2.11-.1,2.88,2.88,0,0,1,1.55,2.55c.06,3.19-3.2,5.29-5.35,7.11a1.2,1.2,0,0,0,0,1.68,1.21,1.21,0,0,0,1.68,0,25.81,25.81,0,0,0,4.42-4.19,7.29,7.29,0,0,0,1.52-5.61A5.13,5.13,0,0,0,304.67,44c-2-.68-4.41.36-6.12,1.3-1.35.74-.15,2.8,1.2,2.06Z"/><path class="cls-1" d="M301.75,55.94c-.32-1.82-3.37-2.47-4.86-2.84a34.8,34.8,0,0,0-6.43-.89c-4.15-.27-8.9-.66-11.71,3-.69.91.45,1.92,1.34,1.75,1.38-.26,2.7-.82,4.07-1.13a31.19,31.19,0,0,1,4.4-.68,87.31,87.31,0,0,1,8.86-.14,1.19,1.19,0,0,0,0-2.38,83.76,83.76,0,0,0-9.24.17,35.49,35.49,0,0,0-4.47.69c-1.43.32-2.81.9-4.25,1.17l1.35,1.75c2.06-2.71,6.35-2.06,9.29-1.88a37.89,37.89,0,0,1,4.75.51,20.36,20.36,0,0,1,2.45.6c.38.12,2.1.55,2.16.89.26,1.5,2.56.87,2.29-.63Z"/><path class="cls-1" d="M301.18,54.9a1.25,1.25,0,0,1-.36-.28,1.21,1.21,0,0,0-1.45-.18,1.23,1.23,0,0,0-.54,1.34,2.16,2.16,0,0,0,.68,1.16l.37.32.15.15c-.14-.16,0,.13-.06-.09L301.71,56a21,21,0,0,0-9.87-3.4,1.19,1.19,0,1,0,0,2.38A18.52,18.52,0,0,1,300.51,58a1.2,1.2,0,0,0,1.75-1.34,2.44,2.44,0,0,0-.74-1.15,3.68,3.68,0,0,0-.37-.32c-.15-.12,0,0,0,0s-.07-.11,0,0,0,.06,0-.05l-2,1.15A3.56,3.56,0,0,0,300,57c1.35.72,2.55-1.33,1.2-2.05Z"/><path class="cls-1" d="M301.55,57.44a2.43,2.43,0,0,0,1.24-.28,1.18,1.18,0,0,0,.48-1.49,1.16,1.16,0,0,0-1.4-.68l-.64.23a1.2,1.2,0,0,0-.53,2,1.54,1.54,0,0,0,1.24.49l-.31-2.33a1.45,1.45,0,0,0-1,1.84,1.51,1.51,0,0,0,1.91.93,2.48,2.48,0,0,0,1.31-1.28,5.32,5.32,0,0,1,.9-1.09c.35-.35.76-.65,1.08-1a5.43,5.43,0,0,0,.91-1.65,9.43,9.43,0,0,0,.56-3.41,1.2,1.2,0,0,0-2.34-.32A13.64,13.64,0,0,0,304.8,52c0,.07-.05.32,0,.14,0,.08,0,.16,0,.24s-.1.34-.16.52.06-.13,0,0l-.14.27a4.48,4.48,0,0,1-.28.47c-.05.07-.09.14-.14.2s.09-.1,0,.05-.24.28-.37.41-.27.27-.41.4l-.2.17s-.23.18-.12.1a15.88,15.88,0,0,1-2,1.26,1.2,1.2,0,0,0,.28,2.17,1.91,1.91,0,0,0,2.34-1.38,1.21,1.21,0,0,0-.83-1.46,1.2,1.2,0,0,0-1.46.83c0,.14,0,.13.06,0a.27.27,0,0,1,.17-.2.48.48,0,0,1,.35,0l.29,2.17A11.42,11.42,0,0,0,306.12,55a5.78,5.78,0,0,0,1-2.28,9.25,9.25,0,0,0,.1-1.49,4.64,4.64,0,0,1,.1-1.22L305,49.67a6.51,6.51,0,0,1-.23,2,5.7,5.7,0,0,1-.3.91,2.82,2.82,0,0,1-.37.63c-.47.45-1,.86-1.41,1.36a11.81,11.81,0,0,0-.74,1c-.09.15-.18.29-.26.44l0,0a.79.79,0,0,1,1,0l.3.53-.24.8-.52.31.07,0a1.2,1.2,0,0,0,.85-1.3,1.17,1.17,0,0,0-1.17-1l.45.2-.53,2,.64-.23-.91-2.17c.08,0,.17,0,0,0a1.2,1.2,0,0,0-1.19,1.19,1.23,1.23,0,0,0,1.19,1.19Z"/><path class="cls-1" d="M305,50.51a6.36,6.36,0,0,1,0,1.51l0-.32a2.78,2.78,0,0,1-.16.63l.12-.29a1.79,1.79,0,0,1-.22.38l.19-.24a1.88,1.88,0,0,1-.35.34l.24-.18c-.37.27-.77.49-1.13.79a1.23,1.23,0,0,0-.35.85,1.18,1.18,0,0,0,1.19,1.18,1.31,1.31,0,0,0,.84-.34l.09-.08-.24.19c.37-.28.78-.49,1.13-.8a2.85,2.85,0,0,0,.83-1.29,5.23,5.23,0,0,0,.12-2.33,1.32,1.32,0,0,0-.35-.84,1.27,1.27,0,0,0-.84-.35,1.23,1.23,0,0,0-.84.35,1.14,1.14,0,0,0-.35.84Z"/><path class="cls-1" d="M301.43,58.33c1.48.43,2.8-1.07,3.69-2.06.46-.51.88-1,1.29-1.58a11.82,11.82,0,0,0,1.14-1.59,6.2,6.2,0,0,0,.59-1.92,9.91,9.91,0,0,0,.22-2.3,3.93,3.93,0,0,0-1.92-3.32c-1.36-.7-2.56,1.35-1.2,2.06a1.68,1.68,0,0,1,.75,1.66,5.85,5.85,0,0,1-.58,2.77,16.67,16.67,0,0,1-1.67,2.19c-.32.37-.65.73-1,1.07-.17.17-.35.33-.54.49s-.16.12-.23.19-.27-.05.09,0a1.19,1.19,0,0,0-.63,2.29Z"/><path class="cls-1" d="M300.91,66a10.56,10.56,0,0,1,1.57-.89.63.63,0,0,1,.66,0,5.07,5.07,0,0,1,.61.52,9.24,9.24,0,0,1,1.91,2.64c.25.52,1,.07.77-.45a9.78,9.78,0,0,0-2.31-3.06,1.76,1.76,0,0,0-1.75-.58,8.59,8.59,0,0,0-1.91,1c-.48.32,0,1.09.45.77Z"/><path class="cls-1" d="M306.29,67.72A14.64,14.64,0,0,0,303.86,66a6.82,6.82,0,0,0-3-.74.45.45,0,0,0-.22.83c.9.48,1.91.74,2.84,1.2A15.82,15.82,0,0,1,306,68.91a.46.46,0,0,0,.66-.27c.22-.71-.47-1.45-.87-2A13.09,13.09,0,0,0,304.34,65c-.42-.4-1,.23-.64.63A12.17,12.17,0,0,1,304.94,67q.27.33.51.69c.11.17.44.52.38.74l.65-.27a15.82,15.82,0,0,0-2.59-1.62c-.47-.23-.94-.44-1.43-.63a12.23,12.23,0,0,1-1.41-.57l-.23.83a5.86,5.86,0,0,1,2.67.66,13.75,13.75,0,0,1,2.17,1.54.46.46,0,0,0,.63,0,.44.44,0,0,0,0-.63Z"/><path class="cls-1" d="M300.59,65.74c0-.07,0,0,0,0s0-.06,0-.08,0,0,0,0l.07-.1.13-.19c0,.05,0,0,0,0l.08-.09a3.51,3.51,0,0,1,.33-.34,1.72,1.72,0,0,1,.31-.24,1,1,0,0,1,.19-.12l.09,0,.06,0a2,2,0,0,1,.41-.13s.1,0,0,0h.11a.2.2,0,0,1,.11,0s.12,0,.08,0l.07,0,.07,0,.06,0c-.06,0,0,0,0,0a.45.45,0,0,0,.63,0,.46.46,0,0,0,0-.63c-.6-.7-1.76-.37-2.41.06a3.78,3.78,0,0,0-.91.83c-.29.36-.66.82-.48,1.31a.45.45,0,0,0,.86-.24Z"/><path class="cls-1" d="M300.53,66.36a2.58,2.58,0,0,1,1.44.29c.54.22,1.06.47,1.59.7a.45.45,0,0,0,.45-.77c-.61-.27-1.22-.55-1.83-.8a3.33,3.33,0,0,0-1.89-.28.46.46,0,0,0-.31.55.45.45,0,0,0,.55.31Z"/><path class="cls-1" d="M303,64.47h-.06s.06,0,0,0l.09.08.06.07s0-.05,0,0l.12.18c.18.26.35.52.52.78.33.52.64,1,.93,1.6a.45.45,0,0,0,.77-.45q-.51-.94-1.08-1.83c-.2-.3-.39-.61-.61-.89a1,1,0,0,0-1-.41.45.45,0,0,0-.31.55.46.46,0,0,0,.54.31Z"/><path class="cls-1" d="M300.91,64c-.52.08-1.13,1-.7,1.45.23.25.65.18,1,.17a1.91,1.91,0,0,1,1,.29l4.42,2.27a.45.45,0,0,0,.66-.5,2.74,2.74,0,0,0-1-1.51.45.45,0,0,0-.61.16.45.45,0,0,0,.16.61,1.78,1.78,0,0,1,.61,1l.65-.5-3.26-1.67c-.51-.27-1-.56-1.56-.8a2.33,2.33,0,0,0-.74-.21,4.7,4.7,0,0,1-.73,0L301,65c0,.21,0,0,.07,0s0-.08.11-.1a.46.46,0,0,0,.32-.55.47.47,0,0,0-.55-.31Z"/><path class="cls-1" d="M300.67,64.86a2.11,2.11,0,0,0-1.1.94c-.23.42.38,1,.7.54a3.46,3.46,0,0,0,.5-.85c.16-.37-.35-.68-.65-.5a1.32,1.32,0,0,0-.62,1.38.44.44,0,0,0,.31.31,16.94,16.94,0,0,1,3.69,1.13,8,8,0,0,1,1.64.86,2.34,2.34,0,0,0,1.37.71.45.45,0,0,0,.43-.33,1.55,1.55,0,0,0-.41-1.34c-.33-.42-.68-.84-1-1.27q-1-1.29-1.89-2.64l-.61.61a3.44,3.44,0,0,1,.87,1c.29.37.62.72.93,1.08a7.73,7.73,0,0,1,.87,1.11,7.13,7.13,0,0,1,.38,1.37c.18.55,1,.31.86-.23a8.55,8.55,0,0,0-.42-1.5,8.2,8.2,0,0,0-1-1.3c-.35-.39-.72-.78-1-1.2a3.65,3.65,0,0,0-1-1c-.37-.21-.87.23-.61.61.53.8,1.09,1.58,1.66,2.34l.83,1.08c.15.2.31.39.47.58s.3.36.25.57l.43-.33a1.09,1.09,0,0,1-.59-.33,4.79,4.79,0,0,0-.69-.49,13.22,13.22,0,0,0-1.61-.77,17.1,17.1,0,0,0-3.57-1.08l.31.31a.39.39,0,0,1,.21-.37l-.66-.5a1.74,1.74,0,0,1-.27.45l.7.54a1.2,1.2,0,0,1,.56-.53.47.47,0,0,0,.32-.55.45.45,0,0,0-.55-.31Z"/><path class="cls-1" d="M305.91,67.69l.13.07s.08.08.12.08-.07,0,0,0l0,0,.05,0,.11.11.1.11,0,.05,0,0,0,0a1.74,1.74,0,0,1,.15.26l.06.12c-.06-.1,0,0,0,0l0,.08,0,.13s0,.09,0,.09v0s0,0,0,0,0,0,0,0l0-.05s0,0,0,0l.08,0H307s0,0,.05,0l.05,0,0,0,0,.06a.57.57,0,0,0-.08-.13.44.44,0,0,0-.61-.16.46.46,0,0,0-.16.61.93.93,0,0,0,.36.4.65.65,0,0,0,.74-.09,1,1,0,0,0,.13-1.1,2.49,2.49,0,0,0-1.15-1.36.45.45,0,0,0-.61.16.45.45,0,0,0,.16.61Z"/><path class="cls-1" d="M305.94,68.91l.21.28a.24.24,0,0,0,.11.13.28.28,0,0,0,.15.08.37.37,0,0,0,.18,0,.39.39,0,0,0,.17-.06l.09-.07a.45.45,0,0,0,.11-.19l0-.12a.46.46,0,0,0-.06-.23l-.21-.28a.34.34,0,0,0-.12-.12.28.28,0,0,0-.15-.08.51.51,0,0,0-.34,0l-.09.07a.51.51,0,0,0-.12.2v.12a.43.43,0,0,0,.06.22Z"/><path class="cls-1" d="M306.14,67.45l-.07,0c-.06,0,0,0,0,0s.1,0,0,0,0,0,0,0,0,0,0,0l0,0c.06,0,0,0,0,0l.17.16.08.09,0,0h0l.12.19,0,.09,0,0s0,0,0,0a1.67,1.67,0,0,1,.13.45v0c0,.07,0,0,0,0s0,.09,0,.1a1.93,1.93,0,0,1,0,.24s0,.08,0,.12a.43.43,0,0,1,0,0c0-.08.05-.09.12-.16s.15-.13.06-.1,0,0,0,0h-.05c-.05,0,.09,0,0,0h0s-.13-.08-.07,0,0,0,0,0l0,0-.1-.11,0,0s0,.06,0,0a.36.36,0,0,0-.07-.1l-.17-.25-.78-1.09a.45.45,0,0,0-.77.45l.88,1.23c.29.42.63.88,1.2.87a.88.88,0,0,0,.42-.11.65.65,0,0,0,.28-.52,2.92,2.92,0,0,0,0-.66,2.57,2.57,0,0,0-.49-1.18,2,2,0,0,0-.59-.57.84.84,0,0,0-1,.1.44.44,0,0,0,0,.63.46.46,0,0,0,.63,0Z"/><path class="cls-1" d="M301.19,68.47l0-.06a.28.28,0,0,0,0-.23.31.31,0,0,0-.05-.1.18.18,0,0,0-.09-.08L301,68a.43.43,0,0,0-.16,0l-.07,0a.27.27,0,0,0-.1.11l0,.06a.15.15,0,0,0,0,.11.17.17,0,0,0,0,.12.16.16,0,0,0,.05.1.18.18,0,0,0,.08.07l.07,0a.22.22,0,0,0,.16,0l.07,0a.27.27,0,0,0,.11-.1Z"/><path class="cls-1" d="M300.67,68.2c0,.87,0,1.74,0,2.62a13.28,13.28,0,0,1-.35,2.66l-1,5.2c-.08.37.5.53.57.16L301,73.43a12.53,12.53,0,0,0,.34-2.51c0-.91,0-1.81,0-2.72a.3.3,0,0,0-.59,0Z"/><path class="cls-1" d="M300.8,68.54a9.7,9.7,0,0,1,1.38,2.86,10.94,10.94,0,0,1,.62,3.2,8,8,0,0,1-.05,3.09,1.86,1.86,0,0,1-1.3,1.06,4.11,4.11,0,0,1-.85.16c-.24,0-.48.12-.41-.21l-.44.17a1.45,1.45,0,0,0,1.32.19c.33-.12.9-.86,1.24-.74l-.21-.2c0,.14-1.16.49-1.31.54l-.62.2-.4.14a.9.9,0,0,0,.23-.31l-.55-.15v.35c0,.38.61.38.59,0v-.35a.3.3,0,0,0-.55-.15.89.89,0,0,0-.07,1c.26.35.69.09,1,0,.6-.2,2.42-.5,2.24-1.44a.28.28,0,0,0-.2-.21c-1-.34-1.38,1.31-2.42.61a.31.31,0,0,0-.44.18c-.07.36-.06.84.37,1a3.64,3.64,0,0,0,1.89-.27,2.62,2.62,0,0,0,1.61-2.88A17.33,17.33,0,0,0,303,72a17.14,17.14,0,0,0-.8-2.1,7,7,0,0,0-1-1.77c-.24-.29-.66.13-.42.42Z"/><path class="cls-1" d="M285.53,102.82v-1.34a.3.3,0,0,0-.3-.29.29.29,0,0,0-.29.29v1.34a.29.29,0,0,0,.29.3.31.31,0,0,0,.3-.3Z"/></g></g></svg>