<svg id="Layer_1" data-name="Layer 1" xmlns="http://www.w3.org/2000/svg" viewBox="0 0 519.93 207.56"><path d="M94.06,78.44l5.72,1.45q-1.8,7-6.47,10.73a17.76,17.76,0,0,1-11.41,3.7q-7,0-11.36-2.84a17.77,17.77,0,0,1-6.65-8.24A29.21,29.21,0,0,1,61.6,71.67,25.43,25.43,0,0,1,64.18,59.9a17.67,17.67,0,0,1,7.33-7.63A21.46,21.46,0,0,1,82,49.66,17.71,17.71,0,0,1,92.89,53,17.15,17.15,0,0,1,99,62.24l-5.62,1.33a13.45,13.45,0,0,0-4.36-6.87,11.65,11.65,0,0,0-7.19-2.15,14,14,0,0,0-8.32,2.39,12.59,12.59,0,0,0-4.7,6.41,25.86,25.86,0,0,0-1.36,8.29,26.38,26.38,0,0,0,1.61,9.62,12,12,0,0,0,5,6.14,14.07,14.07,0,0,0,7.34,2,12.27,12.27,0,0,0,8.13-2.77A14.09,14.09,0,0,0,94.06,78.44Z"/><path d="M105.08,72.55q0-10.76,5.77-16.83a19.63,19.63,0,0,1,14.91-6.09,20.71,20.71,0,0,1,10.78,2.86,18.69,18.69,0,0,1,7.32,8,25.87,25.87,0,0,1,2.52,11.59,25.38,25.38,0,0,1-2.65,11.75,18.05,18.05,0,0,1-7.51,7.85,21.45,21.45,0,0,1-10.49,2.67,20.38,20.38,0,0,1-10.9-2.95,18.91,18.91,0,0,1-7.27-8A24.34,24.34,0,0,1,105.08,72.55Zm5.89.09q0,7.8,4.2,12.3a14.64,14.64,0,0,0,21.15,0q4.17-4.53,4.17-12.87a22.24,22.24,0,0,0-1.78-9.2,13.65,13.65,0,0,0-5.22-6.1,14.07,14.07,0,0,0-7.7-2.17,14.58,14.58,0,0,0-10.44,4.17Q111,62.89,111,72.64Zm11.14-24.89L126,39.5H133l-6.48,8.25Z"/><path d="M151,80.62V75.29h16.29v5.33Z"/><path d="M204.65,78.44l5.71,1.45q-1.8,7-6.47,10.73a17.76,17.76,0,0,1-11.41,3.7q-7,0-11.36-2.84a17.77,17.77,0,0,1-6.65-8.24,29.38,29.38,0,0,1-2.29-11.57,25.43,25.43,0,0,1,2.58-11.77,17.69,17.69,0,0,1,7.34-7.63,21.4,21.4,0,0,1,10.47-2.61,17.71,17.71,0,0,1,10.9,3.3,17.1,17.1,0,0,1,6.15,9.28L204,63.57a13.38,13.38,0,0,0-4.36-6.87,11.65,11.65,0,0,0-7.19-2.15,14,14,0,0,0-8.32,2.39,12.59,12.59,0,0,0-4.7,6.41,25.85,25.85,0,0,0-1.35,8.29,26.38,26.38,0,0,0,1.6,9.62,12,12,0,0,0,5,6.14,14.07,14.07,0,0,0,7.34,2,12.27,12.27,0,0,0,8.13-2.77A14.16,14.16,0,0,0,204.65,78.44Z"/><path d="M215.66,72.55q0-10.76,5.78-16.83a19.6,19.6,0,0,1,14.9-6.09,20.71,20.71,0,0,1,10.78,2.86,18.63,18.63,0,0,1,7.32,8A25.87,25.87,0,0,1,257,72.05a25.38,25.38,0,0,1-2.65,11.75,18.05,18.05,0,0,1-7.51,7.85,21.45,21.45,0,0,1-10.49,2.67,20.38,20.38,0,0,1-10.9-2.95,18.91,18.91,0,0,1-7.27-8A24.34,24.34,0,0,1,215.66,72.55Zm5.89.09q0,7.8,4.2,12.3a14.64,14.64,0,0,0,21.15,0q4.17-4.53,4.17-12.87a22.08,22.08,0,0,0-1.78-9.2,13.65,13.65,0,0,0-5.22-6.1,14,14,0,0,0-7.7-2.17,14.62,14.62,0,0,0-10.44,4.17Q221.55,62.89,221.55,72.64Zm11.14-24.89,3.92-8.25h6.95l-6.48,8.25Z"/><path d="M261.59,80.62V75.29h16.29v5.33Z"/><path d="M284.5,93.58V50.4h19.15a25.63,25.63,0,0,1,8.78,1.16,9.66,9.66,0,0,1,4.8,4.11,12.27,12.27,0,0,1,1.8,6.51,10.83,10.83,0,0,1-3,7.75q-3,3.15-9.19,4a14.68,14.68,0,0,1,3.45,2.15,29.41,29.41,0,0,1,4.74,5.74l7.51,11.75h-7.18l-5.72-9c-1.67-2.59-3-4.58-4.12-5.95a13,13,0,0,0-2.9-2.89A8.8,8.8,0,0,0,300,74.61a18,18,0,0,0-3.18-.2h-6.63V93.58Zm5.72-24.12H302.5a18.44,18.44,0,0,0,6.13-.81A6.59,6.59,0,0,0,312,66.06a7.07,7.07,0,0,0,1.15-3.88,6.43,6.43,0,0,0-2.23-5q-2.22-2-7-2H290.22Z"/><path d="M326.24,72.55q0-10.76,5.78-16.83a19.62,19.62,0,0,1,14.9-6.09,20.71,20.71,0,0,1,10.78,2.86,18.57,18.57,0,0,1,7.32,8,25.87,25.87,0,0,1,2.52,11.59,25.38,25.38,0,0,1-2.65,11.75,18.05,18.05,0,0,1-7.51,7.85,21.45,21.45,0,0,1-10.49,2.67A20.4,20.4,0,0,1,336,91.37a18.91,18.91,0,0,1-7.27-8A24.34,24.34,0,0,1,326.24,72.55Zm5.9.09q0,7.8,4.19,12.3a14.64,14.64,0,0,0,21.15,0q4.17-4.53,4.17-12.87a22.08,22.08,0,0,0-1.78-9.2,13.69,13.69,0,0,0-5.21-6.1A14.11,14.11,0,0,0,347,54.55a14.62,14.62,0,0,0-10.44,4.17Q332.15,62.89,332.14,72.64Zm11.13-24.89,3.92-8.25h6.95l-6.48,8.25Z"/><path d="M372.17,80.62V75.29h16.29v5.33Z"/><path d="M425.81,78.44l5.71,1.45a19.18,19.18,0,0,1-6.46,10.73,17.81,17.81,0,0,1-11.42,3.7q-7,0-11.35-2.84a17.73,17.73,0,0,1-6.66-8.24,29.38,29.38,0,0,1-2.28-11.57,25.56,25.56,0,0,1,2.57-11.77,17.69,17.69,0,0,1,7.34-7.63,21.4,21.4,0,0,1,10.47-2.61,17.69,17.69,0,0,1,10.9,3.3,17.11,17.11,0,0,1,6.16,9.28l-5.63,1.33a13.32,13.32,0,0,0-4.36-6.87,11.63,11.63,0,0,0-7.19-2.15,14,14,0,0,0-8.32,2.39,12.64,12.64,0,0,0-4.7,6.41,25.85,25.85,0,0,0-1.35,8.29,26.17,26.17,0,0,0,1.61,9.62,11.91,11.91,0,0,0,5,6.14,14,14,0,0,0,7.33,2,12.27,12.27,0,0,0,8.13-2.77A14.16,14.16,0,0,0,425.81,78.44Z"/><path d="M436.83,72.55q0-10.76,5.77-16.83a19.63,19.63,0,0,1,14.91-6.09,20.74,20.74,0,0,1,10.78,2.86,18.69,18.69,0,0,1,7.32,8,25.87,25.87,0,0,1,2.52,11.59,25.38,25.38,0,0,1-2.66,11.75A18,18,0,0,1,468,91.65a21.41,21.41,0,0,1-10.48,2.67,20.36,20.36,0,0,1-10.9-2.95,18.93,18.93,0,0,1-7.28-8A24.33,24.33,0,0,1,436.83,72.55Zm5.89.09q0,7.8,4.19,12.3a14.64,14.64,0,0,0,21.15,0q4.17-4.53,4.17-12.87a22.08,22.08,0,0,0-1.78-9.2,13.69,13.69,0,0,0-5.21-6.1,14.11,14.11,0,0,0-7.71-2.17,14.62,14.62,0,0,0-10.44,4.17Q442.73,62.89,442.72,72.64Zm11.13-24.89,3.92-8.25h7l-6.48,8.25Z"/><path d="M108.3,134.67c0-2.89.8-5,2.41-6.43a7.29,7.29,0,0,1,4.92-1.74,7,7,0,0,1,5.27,2.11,8,8,0,0,1,2,5.84,10.37,10.37,0,0,1-.9,4.75,6.46,6.46,0,0,1-2.64,2.69,7.64,7.64,0,0,1-3.78,1,7,7,0,0,1-5.31-2.11A8.4,8.4,0,0,1,108.3,134.67Zm2.72,0a6.66,6.66,0,0,0,1.31,4.5,4.37,4.37,0,0,0,6.59,0,6.84,6.84,0,0,0,1.31-4.58,6.46,6.46,0,0,0-1.32-4.4,4.19,4.19,0,0,0-3.28-1.5,4.24,4.24,0,0,0-3.3,1.49A6.65,6.65,0,0,0,111,134.67Z"/><path d="M134.44,142.5V126.85h2.37v2.2a5.61,5.61,0,0,1,2-1.85,5.47,5.47,0,0,1,2.78-.7,5.15,5.15,0,0,1,2.85.72,3.87,3.87,0,0,1,1.57,2,5.61,5.61,0,0,1,4.83-2.74,4.76,4.76,0,0,1,3.58,1.29,5.48,5.48,0,0,1,1.25,4V142.5H153v-9.86a7.31,7.31,0,0,0-.26-2.29,2.17,2.17,0,0,0-.94-1.12,2.87,2.87,0,0,0-1.59-.43,3.68,3.68,0,0,0-2.74,1.1,4.85,4.85,0,0,0-1.09,3.51v9.09h-2.65V132.33a4.48,4.48,0,0,0-.64-2.65,2.47,2.47,0,0,0-2.13-.88,3.82,3.82,0,0,0-2.07.59,3.29,3.29,0,0,0-1.37,1.72,9.59,9.59,0,0,0-.43,3.27v8.12Z"/><path d="M170.27,137.46l2.74.34a6.64,6.64,0,0,1-2.4,3.72,8.13,8.13,0,0,1-9.92-.78,8.27,8.27,0,0,1-2-5.93,8.63,8.63,0,0,1,2-6.13A6.88,6.88,0,0,1,166,126.5a6.65,6.65,0,0,1,5.12,2.14,8.45,8.45,0,0,1,2,6c0,.15,0,.39,0,.7H161.42a6,6,0,0,0,1.46,4,4.34,4.34,0,0,0,3.27,1.37,4.08,4.08,0,0,0,2.49-.77A5,5,0,0,0,170.27,137.46Zm-8.7-4.29h8.73a5.26,5.26,0,0,0-1-3,4.06,4.06,0,0,0-3.28-1.53A4.22,4.22,0,0,0,163,129.9,4.87,4.87,0,0,0,161.57,133.17Z"/><path d="M176.31,142.5V126.85h2.39v2.38a6.42,6.42,0,0,1,1.69-2.2,3,3,0,0,1,1.7-.53,5.24,5.24,0,0,1,2.72.85l-.91,2.46a3.83,3.83,0,0,0-2-.57,2.51,2.51,0,0,0-1.56.52,2.79,2.79,0,0,0-1,1.45,10.23,10.23,0,0,0-.45,3.1v8.19Z"/><path d="M196.6,136.77l2.6.33a6.78,6.78,0,0,1-2.18,4.23,6.43,6.43,0,0,1-4.33,1.52,6.71,6.71,0,0,1-5.16-2.1,8.52,8.52,0,0,1-1.95-6,10.87,10.87,0,0,1,.84-4.43,5.83,5.83,0,0,1,2.55-2.85,7.65,7.65,0,0,1,3.74-1,6.48,6.48,0,0,1,4.16,1.29,5.9,5.9,0,0,1,2.08,3.66l-2.58.4a4.26,4.26,0,0,0-1.3-2.37,3.38,3.38,0,0,0-2.26-.8,4.12,4.12,0,0,0-3.26,1.44,6.82,6.82,0,0,0-1.25,4.54,7,7,0,0,0,1.21,4.58,4,4,0,0,0,3.15,1.43,3.72,3.72,0,0,0,2.61-1A4.76,4.76,0,0,0,196.6,136.77Z"/><path d="M211.68,140.57a9.82,9.82,0,0,1-2.84,1.76,8,8,0,0,1-2.92.52,5.67,5.67,0,0,1-4-1.26,4.14,4.14,0,0,1-1.39-3.22,4.41,4.41,0,0,1,.52-2.1,4.31,4.31,0,0,1,1.38-1.52,6.6,6.6,0,0,1,1.9-.87,18.91,18.91,0,0,1,2.36-.4,24.32,24.32,0,0,0,4.73-.91c0-.36,0-.6,0-.69a3,3,0,0,0-.75-2.29,4.43,4.43,0,0,0-3-.9,4.64,4.64,0,0,0-2.76.66,4,4,0,0,0-1.32,2.32l-2.59-.35a6.47,6.47,0,0,1,1.16-2.69,5.14,5.14,0,0,1,2.34-1.58,10.42,10.42,0,0,1,3.55-.55,9.53,9.53,0,0,1,3.26.47,4.32,4.32,0,0,1,1.84,1.19A4,4,0,0,1,214,130a14.55,14.55,0,0,1,.14,2.45v3.53a36,36,0,0,0,.17,4.68,5.73,5.73,0,0,0,.67,1.88h-2.77A5.59,5.59,0,0,1,211.68,140.57Zm-.22-5.92a20.1,20.1,0,0,1-4.33,1,9.66,9.66,0,0,0-2.32.53,2.27,2.27,0,0,0-1.41,2.12,2.3,2.3,0,0,0,.8,1.77,3.47,3.47,0,0,0,2.35.7,5.47,5.47,0,0,0,2.73-.67,4.12,4.12,0,0,0,1.75-1.83,6.47,6.47,0,0,0,.43-2.65Z"/><path d="M228.39,142.5v-2a4.87,4.87,0,0,1-4.37,2.33,6.12,6.12,0,0,1-3.44-1,6.75,6.75,0,0,1-2.43-2.88,9.87,9.87,0,0,1-.86-4.25,11.13,11.13,0,0,1,.78-4.25,6.12,6.12,0,0,1,2.34-2.92,6.23,6.23,0,0,1,3.49-1,5.21,5.21,0,0,1,2.52.6,5.12,5.12,0,0,1,1.8,1.55V120.9h2.63v21.6ZM220,134.69a6.76,6.76,0,0,0,1.27,4.49,3.82,3.82,0,0,0,3,1.49,3.73,3.73,0,0,0,2.95-1.42,6.57,6.57,0,0,0,1.22-4.34,7.37,7.37,0,0,0-1.24-4.71,3.82,3.82,0,0,0-3-1.51,3.68,3.68,0,0,0-3,1.45A7.12,7.12,0,0,0,220,134.69Z"/><path d="M235,124v-3h2.66v3Zm0,18.55V126.85h2.66V142.5Z"/><path d="M241.72,142.5V126.85h2.39v2.23a5.6,5.6,0,0,1,5-2.58,6.49,6.49,0,0,1,2.6.51,4,4,0,0,1,1.78,1.33,5,5,0,0,1,.82,2,14.92,14.92,0,0,1,.15,2.58v9.62h-2.65V133a7,7,0,0,0-.31-2.42,2.53,2.53,0,0,0-1.1-1.28,3.46,3.46,0,0,0-1.84-.48,4.34,4.34,0,0,0-2.93,1.07q-1.23,1.08-1.23,4.08v8.55Z"/><path d="M258.49,142.5V120.9h2.66v7.75a5.92,5.92,0,0,1,4.68-2.15,6.26,6.26,0,0,1,3,.69,4,4,0,0,1,1.83,1.89,8.63,8.63,0,0,1,.56,3.5v9.92h-2.66v-9.92a4.06,4.06,0,0,0-.86-2.89,3.16,3.16,0,0,0-2.43-.91,4.36,4.36,0,0,0-2.22.61,3.45,3.45,0,0,0-1.48,1.66,7.53,7.53,0,0,0-.44,2.89v8.56Z"/><path d="M274.28,134.67c0-2.89.81-5,2.42-6.43a7.26,7.26,0,0,1,4.92-1.74,7,7,0,0,1,5.27,2.11,8,8,0,0,1,2.05,5.84,10.23,10.23,0,0,1-.91,4.75,6.38,6.38,0,0,1-2.63,2.69,7.7,7.7,0,0,1-3.78,1,7,7,0,0,1-5.31-2.11A8.4,8.4,0,0,1,274.28,134.67Zm2.73,0a6.66,6.66,0,0,0,1.31,4.5,4.36,4.36,0,0,0,6.58,0,6.79,6.79,0,0,0,1.31-4.58,6.51,6.51,0,0,0-1.31-4.4,4.37,4.37,0,0,0-6.58,0A6.65,6.65,0,0,0,277,134.67Z"/><path d="M300.43,148.49V126.85h2.41v2a5.8,5.8,0,0,1,1.93-1.79,5.3,5.3,0,0,1,2.61-.6,6.15,6.15,0,0,1,3.53,1,6.37,6.37,0,0,1,2.32,2.91,11.28,11.28,0,0,1-.08,8.44,6.57,6.57,0,0,1-2.51,3,6.44,6.44,0,0,1-3.45,1,5,5,0,0,1-2.38-.56,5.49,5.49,0,0,1-1.73-1.41v7.61Zm2.4-13.73a6.8,6.8,0,0,0,1.22,4.47,3.74,3.74,0,0,0,3,1.44,3.83,3.83,0,0,0,3-1.5,7.07,7.07,0,0,0,1.26-4.63,6.94,6.94,0,0,0-1.23-4.48,3.7,3.7,0,0,0-2.94-1.48,3.84,3.84,0,0,0-3,1.58A7.08,7.08,0,0,0,302.83,134.76Z"/><path d="M316.21,134.67c0-2.89.81-5,2.42-6.43a7.29,7.29,0,0,1,4.92-1.74,7,7,0,0,1,5.27,2.11,8,8,0,0,1,2.05,5.84,10.23,10.23,0,0,1-.91,4.75,6.38,6.38,0,0,1-2.63,2.69,7.7,7.7,0,0,1-3.78,1,7,7,0,0,1-5.31-2.11A8.4,8.4,0,0,1,316.21,134.67Zm2.73,0a6.66,6.66,0,0,0,1.31,4.5,4.36,4.36,0,0,0,6.58,0,6.79,6.79,0,0,0,1.31-4.58,6.51,6.51,0,0,0-1.31-4.4,4.37,4.37,0,0,0-6.58,0A6.65,6.65,0,0,0,318.94,134.67Z"/><path d="M334,142.5V126.85h2.38v2.38A6.42,6.42,0,0,1,338,127a3,3,0,0,1,1.7-.53,5.3,5.3,0,0,1,2.73.85l-.92,2.46a3.8,3.8,0,0,0-1.94-.57,2.51,2.51,0,0,0-1.56.52,2.87,2.87,0,0,0-1,1.45,10.23,10.23,0,0,0-.44,3.1v8.19Z"/><path d="M349.81,140.12l.38,2.35a10.23,10.23,0,0,1-2,.23,4.6,4.6,0,0,1-2.24-.45,2.61,2.61,0,0,1-1.12-1.21,9.64,9.64,0,0,1-.32-3.13v-9h-1.95v-2.07h1.95V123l2.63-1.59v5.46h2.67v2.07h-2.67v9.14a4.74,4.74,0,0,0,.14,1.46,1.16,1.16,0,0,0,.46.52,1.84,1.84,0,0,0,.91.19A8.62,8.62,0,0,0,349.81,140.12Z"/><path d="M362.65,142.5v-2.3a5.72,5.72,0,0,1-5,2.65,6.42,6.42,0,0,1-2.59-.53,4.27,4.27,0,0,1-1.78-1.33,5,5,0,0,1-.82-2,14.29,14.29,0,0,1-.16-2.47v-9.7H355v8.68a16.39,16.39,0,0,0,.16,2.8,2.82,2.82,0,0,0,1.07,1.64,3.25,3.25,0,0,0,2,.6,4.37,4.37,0,0,0,2.24-.62,3.4,3.4,0,0,0,1.48-1.66,8.36,8.36,0,0,0,.43-3.06v-8.38H365V142.5Z"/><path d="M368.69,143.79l2.58.38a2.39,2.39,0,0,0,.9,1.74,4.39,4.39,0,0,0,2.69.74,4.71,4.71,0,0,0,2.84-.74,3.65,3.65,0,0,0,1.36-2.06,16.72,16.72,0,0,0,.19-3.4,5.47,5.47,0,0,1-4.33,2.05,5.89,5.89,0,0,1-5-2.33,8.94,8.94,0,0,1-1.77-5.58,10.35,10.35,0,0,1,.81-4.13,6.45,6.45,0,0,1,2.35-2.93,6.3,6.3,0,0,1,3.61-1,5.62,5.62,0,0,1,4.57,2.24v-1.89H382v13.52a12.71,12.71,0,0,1-.75,5.18,5.38,5.38,0,0,1-2.36,2.41,8.11,8.11,0,0,1-4,.88,7.5,7.5,0,0,1-4.53-1.26A4.26,4.26,0,0,1,368.69,143.79Zm2.19-9.4a6.78,6.78,0,0,0,1.23,4.5,4,4,0,0,0,6.12,0,6.51,6.51,0,0,0,1.24-4.41,6.43,6.43,0,0,0-1.27-4.33,4,4,0,0,0-3.08-1.46,3.82,3.82,0,0,0-3,1.44A6.41,6.41,0,0,0,370.88,134.39Z"/><path d="M396.2,142.5v-2.3a5.72,5.72,0,0,1-5,2.65,6.38,6.38,0,0,1-2.59-.53,4.27,4.27,0,0,1-1.78-1.33,5,5,0,0,1-.82-2,14.29,14.29,0,0,1-.16-2.47v-9.7h2.65v8.68a16.39,16.39,0,0,0,.16,2.8,2.8,2.8,0,0,0,1.06,1.64,3.28,3.28,0,0,0,2,.6A4.37,4.37,0,0,0,394,140a3.4,3.4,0,0,0,1.48-1.66,8.36,8.36,0,0,0,.43-3.06v-8.38h2.65V142.5Z"/><path d="M413.43,137.46l2.74.34a6.64,6.64,0,0,1-2.4,3.72,8.13,8.13,0,0,1-9.92-.78,8.27,8.27,0,0,1-2-5.93,8.67,8.67,0,0,1,2-6.13,6.91,6.91,0,0,1,5.28-2.18,6.65,6.65,0,0,1,5.12,2.14,8.45,8.45,0,0,1,2,6c0,.15,0,.39,0,.7H404.58a6,6,0,0,0,1.46,4,4.34,4.34,0,0,0,3.27,1.37,4.08,4.08,0,0,0,2.49-.77A5.09,5.09,0,0,0,413.43,137.46Zm-4.34-15.05-1.67,2.5h-3l3.18-4.12h2.83l3.31,4.12h-3Zm-4.36,10.76h8.73a5.34,5.34,0,0,0-1-3,4.06,4.06,0,0,0-3.28-1.53,4.21,4.21,0,0,0-3.07,1.22A4.87,4.87,0,0,0,404.73,133.17Z"/><path d="M418.44,137.83l2.62-.42a3.7,3.7,0,0,0,1.23,2.42,4.27,4.27,0,0,0,2.82.84,4.12,4.12,0,0,0,2.71-.75,2.21,2.21,0,0,0,.89-1.74,1.61,1.61,0,0,0-.79-1.41,11,11,0,0,0-2.71-.9,24.37,24.37,0,0,1-4-1.28,3.89,3.89,0,0,1-1.71-1.48,4,4,0,0,1-.58-2.1,4,4,0,0,1,.48-1.94,4.3,4.3,0,0,1,1.3-1.48,5.68,5.68,0,0,1,1.69-.77,8.07,8.07,0,0,1,2.29-.32,9.07,9.07,0,0,1,3.23.53,4.33,4.33,0,0,1,2.06,1.44,5.65,5.65,0,0,1,.91,2.42l-2.59.35a2.82,2.82,0,0,0-1-1.88,3.74,3.74,0,0,0-2.39-.68,4.38,4.38,0,0,0-2.61.6,1.78,1.78,0,0,0-.78,1.42,1.47,1.47,0,0,0,.33.93,2.27,2.27,0,0,0,1,.7c.27.1,1.05.33,2.35.68a32.37,32.37,0,0,1,3.92,1.23,4,4,0,0,1,1.75,1.39,3.92,3.92,0,0,1,.63,2.27,4.51,4.51,0,0,1-.77,2.5,5.05,5.05,0,0,1-2.23,1.81,8.3,8.3,0,0,1-3.3.64,7.32,7.32,0,0,1-4.65-1.27A5.82,5.82,0,0,1,418.44,137.83Z"/></svg>