<?xml version="1.0" encoding="utf-8"?>
<!-- Generator: Adobe Illustrator 24.0.0, SVG Export Plug-In . SVG Version: 6.00 Build 0)  -->
<svg version="1.1" id="Layer_1" xmlns="http://www.w3.org/2000/svg" xmlns:xlink="http://www.w3.org/1999/xlink" x="0px" y="0px"
	 viewBox="0 0 1224.3 448.2" style="enable-background:new 0 0 1224.3 448.2;" xml:space="preserve">
<style type="text/css">
	.st0{fill:#16141A;}
	.st1{fill:#3B2314;}
	.st2{fill:#252625;}
	.st3{fill:#272628;}
	.st4{fill:#FFB600;}
	.st5{fill:#EDCAB2;}
	.st6{fill:#E9C1A6;}
	.st7{fill:#25170D;}
	.st8{fill:#EEA19E;}
	.st9{fill:none;}
	.st10{fill:#FFFFFF;}
	.st11{font-family:'Bauhaus93';}
	.st12{font-size:100px;}
</style>
<g>
	<circle cx="236.1" cy="224.6" r="198.6"/>
	<path class="st10" d="M111.9,362.6c0,0-9.1-50.3,18.3-108.7s72.8-98,110.8-95.5s36.4,19.5,38.7,24.8c-5,4.1-7.5,6.1-8.5,8.9
		c-5.7,1.2-22.8,5.8-30.9,33.7c-8.2,27.9-3.1,56.9,29.4,36.9c-3.9,24.7-13.5,92.8-5.5,144.9C215.7,411.2,156.8,404.4,111.9,362.6z"
		/>
	<path class="st10" d="M240,151.9c14.6,0.6,30.4,4.7,40.9,11.7c10.4,7,24.6-17.5,28.7-23.7s8.4-50.7-35.2-31.7
		c-1.7-8.4-4.4-30.8-19.5-31.2c-15.1-0.4-27,9.3-33.4,30.1c-7-7.6-10-10.4-19.9-9.2s-18.9,25.2-17,42.9c1.4,13.4,3.5,22.8,24.8,16.7
		S230.8,151.6,240,151.9z"/>
	<path class="st10" d="M271.1,202.2c4-0.2,2,61.2-18.5,58.8C232.1,258.5,254.2,202.9,271.1,202.2z"/>
	<path class="st10" d="M280.1,206.9c-0.5,6.9-2.9,27-4.3,35.8s-3.5,15.4,7.3,11.3c10.8-4.1,8.3-11.3,7.1-22.6
		S280.7,197.7,280.1,206.9z"/>
	<path class="st10" d="M283.1,188c1.1-0.5,8.7-3.4,15.3,4.2c6.5,7.6,14.6,17.3,10.1,20.5c-4.6,3.3-6.5-3.5-17-7.8
		c-10.5-4.4-11.3-4.2-13.1-4.7c-1.8-0.6-4.4-4.1-0.6-8.1C281.5,188,283.1,188,283.1,188z"/>
	<path d="M231.2,181.8c-2.3,9.3-1.9,20.2,5.4,21.6c7.2,1.4,11.9-7,12.2-14.5c0.4-7.5-0.4-14.5-7.6-14.6
		C235.2,174.2,231.7,179.6,231.2,181.8z"/>
</g>
<rect x="460.4" y="130.2" class="st9" width="727.1" height="149.1"/>
<text transform="matrix(1 0 0 1 460.4044 196.8808)" class="st10 st11 st12">CO-CO-RO-CO</text>
</svg>
