<?xml version="1.0" encoding="utf-8"?>
<!-- Generator: Adobe Illustrator 24.0.0, SVG Export Plug-In . SVG Version: 6.00 Build 0)  -->
<svg version="1.1" id="Capa_1" xmlns="http://www.w3.org/2000/svg" xmlns:xlink="http://www.w3.org/1999/xlink" x="0px" y="0px"
	 viewBox="0 0 481 512" style="enable-background:new 0 0 481 512;" xml:space="preserve">
<style type="text/css">
	.st0{fill:#FFFFFF;}
</style>
<g>
	<path d="M235.9,502.8c28.7,0,56.6-4.6,82.7-15.4c76.7-31.4,123.6-88.2,141.6-168.7c7.8-34.2,5.9-68.9-3.6-102.7
		c-13.9-49.7-41-91.1-83-121.7c-6.7-4.8-16-8.4-23.9-8.4c-16.6,0-29.6,9.2-34.9,25.2c-4.6,14.1-2.9,28.4,9,39.3
		c3.8,3.6,7.9,7,11.9,10.3c25.8,22.2,42.9,50.1,49.4,83.5c8.6,44.4-0.8,85.1-27.6,122c-41.3,56.7-124,76.7-186.5,45
		c-44-22.5-71.9-57.3-82.2-105.8c-6.2-28.8-3.8-57,6.8-84.6s28.5-49.4,51.5-67.6c17-13.5,19-36.1,5.9-52.9
		c-13-16.5-35-19.3-52.3-6.5C50.7,131.3,20.6,181.3,11.6,243c-6,41.7-0.3,82.1,16.2,121.5C63.2,449.1,147.8,502.5,235.9,502.8z
		 M198.3,142.4c0,31.7-0.2,63.4,0,95.1c0.2,20.8,18.1,38.3,38.5,38.3c20.8,0,37.4-16.8,37.5-39.6c0.3-61.9,0.2-124,0-186
		c0-5.7-0.8-11.9-3-17c-7.3-16.5-25.8-26.5-41-23c-19.2,4.3-32.2,20.1-32.2,39.8C198.2,80.6,198.3,111.5,198.3,142.4z"/>
	<path class="st0" d="M235.9,502.8c-88.1-0.3-172.7-53.7-208.2-138.3C11.2,325.2,5.4,284.6,11.6,243c9-61.6,39.1-111.7,89.2-149.2
		c17.1-12.8,39.3-10,52.3,6.5c13.1,16.8,11.1,39.6-5.9,52.9c-23,18.2-40.9,39.9-51.5,67.6c-10.6,27.6-12.8,55.9-6.8,84.6
		c10.3,48.5,38.2,83.3,82.2,105.8c62.4,31.7,145.1,11.7,186.5-45c26.9-36.8,36.3-77.5,27.6-122c-6.5-33.4-23.4-61.2-49.4-83.5
		c-4-3.5-8.1-6.8-11.9-10.3c-11.9-11.1-13.6-25.3-9-39.3c5.2-16,18.1-25.2,34.9-25.2c8.1,0,17.4,3.5,23.9,8.4
		c42,30.6,69.1,71.9,83,121.7c9.5,33.7,11.4,68.4,3.6,102.7c-18.1,80.5-65,137.4-141.6,168.7C292.4,498,264.6,502.8,235.9,502.8z"/>
	<path class="st0" d="M198.3,142.4c0-30.9,0-61.8,0-92.7c0-19.5,13-35.3,32.2-39.8c15.2-3.5,33.6,6.5,41,23c2.2,5.1,3,11.2,3,17
		c0.2,61.9,0.3,124,0,186c-0.2,22.8-16.8,39.6-37.5,39.6c-20.4,0-38.3-17.6-38.5-38.3C198.2,205.6,198.3,174,198.3,142.4z"/>
</g>
</svg>
