<?xml version="1.0" encoding="utf-8"?>
<!-- Generator: Adobe Illustrator 24.0.0, SVG Export Plug-In . SVG Version: 6.00 Build 0)  -->
<svg version="1.1" id="Capa_1" xmlns="http://www.w3.org/2000/svg" xmlns:xlink="http://www.w3.org/1999/xlink" x="0px" y="0px"
	 viewBox="0 0 512 512" style="enable-background:new 0 0 512 512;" xml:space="preserve">
<style type="text/css">
	.st0{fill:#FFFFFF;}
</style>
<g>
	<path d="M255.3,419c18.1,0,35.7-2.9,52.2-9.7c48.4-19.8,78-55.7,89.4-106.5c4.9-21.6,3.7-43.5-2.3-64.8
		c-8.8-31.4-25.9-57.5-52.4-76.8c-4.2-3-10.1-5.3-15.1-5.3c-10.5,0-18.7,5.8-22,15.9c-2.9,8.9-1.8,17.9,5.7,24.8
		c2.4,2.3,5,4.4,7.5,6.5c16.3,14,27.1,31.6,31.2,52.7c5.4,28-0.5,53.7-17.4,77c-26.1,35.8-78.3,48.4-117.7,28.4
		c-27.8-14.2-45.4-36.2-51.9-66.8c-3.9-18.2-2.4-36,4.3-53.4c6.7-17.4,18-31.2,32.5-42.7c10.7-8.5,12-22.8,3.7-33.4
		c-8.2-10.4-22.1-12.2-33-4.1c-31.6,23.7-50.6,55.3-56.3,94.2c-3.8,26.3-0.2,51.8,10.2,76.7C146.3,385.1,199.7,418.8,255.3,419z
		 M231.6,191.5c0,20-0.1,40,0,60c0.1,13.1,11.4,24.2,24.3,24.2c13.1,0,23.6-10.6,23.7-25c0.2-39.1,0.1-78.3,0-117.4
		c0-3.6-0.5-7.5-1.9-10.7c-4.6-10.4-16.3-16.7-25.9-14.5c-12.1,2.7-20.3,12.7-20.3,25.1C231.5,152.5,231.6,172,231.6,191.5z"/>
	<path class="st0" d="M255.3,419c-55.6-0.2-109-33.9-131.4-87.3c-10.4-24.8-14.1-50.4-10.2-76.7c5.7-38.9,24.7-70.5,56.3-94.2
		c10.8-8.1,24.8-6.3,33,4.1c8.3,10.6,7,25-3.7,33.4c-14.5,11.5-25.8,25.2-32.5,42.7c-6.7,17.4-8.1,35.3-4.3,53.4
		c6.5,30.6,24.1,52.6,51.9,66.8c39.4,20,91.6,7.4,117.7-28.4c17-23.2,22.9-48.9,17.4-77c-4.1-21.1-14.8-38.6-31.2-52.7
		c-2.5-2.2-5.1-4.3-7.5-6.5c-7.5-7-8.6-16-5.7-24.8c3.3-10.1,11.4-15.9,22-15.9c5.1,0,11,2.2,15.1,5.3
		c26.5,19.3,43.6,45.4,52.4,76.8c6,21.3,7.2,43.2,2.3,64.8c-11.4,50.8-41,86.7-89.4,106.5C291,416,273.4,419,255.3,419z"/>
	<path class="st0" d="M231.6,191.5c0-19.5,0-39,0-58.5c0-12.3,8.2-22.3,20.3-25.1c9.6-2.2,21.2,4.1,25.9,14.5
		c1.4,3.2,1.9,7.1,1.9,10.7c0.1,39.1,0.2,78.3,0,117.4c-0.1,14.4-10.6,25-23.7,25c-12.9,0-24.2-11.1-24.3-24.2
		C231.5,231.4,231.6,211.5,231.6,191.5z"/>
</g>
</svg>
