<?xml version="1.0" encoding="utf-8"?>
<!-- Generator: Adobe Illustrator 24.0.0, SVG Export Plug-In . SVG Version: 6.00 Build 0)  -->
<svg version="1.1" id="Capa_1" xmlns="http://www.w3.org/2000/svg" xmlns:xlink="http://www.w3.org/1999/xlink" x="0px" y="0px"
	 viewBox="0 0 512 512" style="enable-background:new 0 0 512 512;" xml:space="preserve">
<style type="text/css">
	.st0{fill:#FFFFFF;}
</style>
<g>
	<path d="M254.8,511.2c29.6,0,58.4-4.7,85.4-15.9c79.2-32.4,127.7-91.2,146.3-174.3c8-35.4,6.1-71.2-3.8-106.1
		c-14.4-51.4-42.4-94.1-85.8-125.7c-6.9-4.9-16.5-8.7-24.7-8.7c-17.2,0-30.6,9.5-36,26c-4.7,14.6-2.9,29.3,9.3,40.6
		c3.9,3.8,8.2,7.2,12.3,10.6c26.7,22.9,44.4,51.7,51.1,86.3c8.8,45.8-0.8,87.9-28.5,126c-42.7,58.6-128.2,79.2-192.6,46.5
		c-45.5-23.2-74.3-59.3-84.9-109.3c-6.4-29.8-3.9-58.9,7-87.4s29.5-51.1,53.2-69.9c17.5-13.9,19.6-37.3,6.1-54.7
		c-13.4-17-36.2-20-54-6.7C63.5,127.4,32.4,179.1,23,242.8c-6.2,43-0.3,84.8,16.7,125.5C76.4,455.7,163.8,510.9,254.8,511.2z
		 M216,138.8c0,32.7-0.2,65.5,0,98.2c0.2,21.4,18.7,39.6,39.8,39.6c21.4,0,38.6-17.3,38.8-40.9c0.3-64,0.2-128.2,0-192.2
		c0-5.9-0.8-12.3-3.1-17.5c-7.5-17-26.7-27.3-42.4-23.7c-19.8,4.4-33.2,20.8-33.2,41.1C215.9,75,216,106.9,216,138.8z"/>
	<path class="st0" d="M254.8,511.2c-91-0.3-178.4-55.5-215.1-142.9c-17-40.6-23.1-82.5-16.7-125.5c9.3-63.7,40.4-115.4,92.1-154.2
		c17.7-13.3,40.6-10.3,54,6.7c13.6,17.3,11.5,40.9-6.1,54.7c-23.7,18.8-42.2,41.2-53.2,69.9c-11,28.5-13.3,57.8-7,87.4
		c10.6,50.1,39.4,86.1,84.9,109.3c64.5,32.7,149.9,12.1,192.6-46.5c27.8-38,37.5-80,28.5-126c-6.7-34.5-24.2-63.2-51.1-86.3
		c-4.1-3.6-8.3-7-12.3-10.6c-12.3-11.5-14.1-26.2-9.3-40.6c5.4-16.5,18.7-26,36-26c8.3,0,18,3.6,24.7,8.7
		c43.4,31.6,71.4,74.3,85.8,125.7c9.8,34.9,11.8,70.7,3.8,106.1c-18.7,83.1-67.1,141.9-146.3,174.3
		C313.2,506.3,284.4,511.2,254.8,511.2z"/>
	<path class="st0" d="M216,138.8c0-31.9,0-63.8,0-95.8c0-20.1,13.4-36.5,33.2-41.1c15.7-3.6,34.7,6.7,42.4,23.7
		c2.3,5.2,3.1,11.6,3.1,17.5c0.2,64,0.3,128.2,0,192.2c-0.2,23.6-17.3,40.9-38.8,40.9c-21.1,0-39.6-18.2-39.8-39.6
		C215.9,204.1,216,171.6,216,138.8z"/>
</g>
</svg>
