<?xml version="1.0" encoding="utf-8"?>
<!-- Generator: Adobe Illustrator 24.0.0, SVG Export Plug-In . SVG Version: 6.00 Build 0)  -->
<svg version="1.1" id="Capa_1" xmlns="http://www.w3.org/2000/svg" xmlns:xlink="http://www.w3.org/1999/xlink" x="0px" y="0px"
	 viewBox="0 0 314.7 314.7" style="enable-background:new 0 0 314.7 314.7;" xml:space="preserve">
<style type="text/css">
	.st0{fill:#FFFFFF;}
</style>
<g>
	<path d="M157.3,296.7C80.5,296.7,18,234.1,18,157.3S80.5,18,157.3,18s139.3,62.5,139.3,139.3S234.2,296.7,157.3,296.7z"/>
	<path class="st0" d="M193.8,72h-21.3c-17.5,0-31.7,14.2-31.7,31.7v24h-19.9c-5,0-9,4-9,9s4,9,9,9h19.9V229c0,5,4,9,9,9s9-4,9-9
		v-83.3h30.8c5,0,9-4,9-9s-4-9-9-9h-30.8v-24c0-7.5,6.1-13.7,13.7-13.7h21.3c5,0,9-4,9-9S198.7,72,193.8,72z"/>
</g>
</svg>
