<?xml version="1.0" encoding="utf-8"?>
<!-- Generator: Adobe Illustrator 24.0.0, SVG Export Plug-In . SVG Version: 6.00 Build 0)  -->
<svg version="1.1" id="Capa_1" xmlns="http://www.w3.org/2000/svg" xmlns:xlink="http://www.w3.org/1999/xlink" x="0px" y="0px"
	 viewBox="0 0 512 512" style="enable-background:new 0 0 512 512;" xml:space="preserve">
<style type="text/css">
	.st0{fill:#FFFFFF;}
	.st1{fill:none;stroke:#000000;stroke-width:11;stroke-miterlimit:10;}
</style>
<g>
	<path d="M103.9,425.7c0,0-12.7-70.1,25.4-151.5s101.5-136.6,154.5-133.1s50.8,27.2,54,34.6c-7,5.7-10.5,8.6-11.9,12.4
		c-7.9,1.7-31.7,8.1-43.1,47s-4.3,79.3,41,51.5c-5.4,34.4-18.8,129.4-7.6,202C248.6,493.4,166.6,484,103.9,425.7z"/>
	<path d="M282.5,132c20.4,0.8,42.4,6.5,57,16.3c14.5,9.8,34.3-24.4,40-33c5.6-8.6,11.8-70.7-49.1-44.2c-2.4-11.7-6.1-42.9-27.1-43.4
		s-37.6,13-46.5,41.9c-9.8-10.5-13.9-14.5-27.8-12.8c-13.9,1.7-26.3,35.1-23.7,59.9c2,18.7,4.9,31.7,34.6,23.3
		S269.6,131.5,282.5,132z"/>
	<path d="M325.7,202.1c6.1-0.3,3,92.7-28,89S300,203.1,325.7,202.1z"/>
	<path d="M339.4,209.2c-0.8,10.9-4.6,42.7-6.8,56.5c-2.2,13.9-5.6,24.4,11.5,17.8c17.1-6.5,13.1-17.8,11.2-35.7
		C353.5,230,340.4,194.5,339.4,209.2z"/>
	<path d="M344.2,182.5c1.8-0.8,14-5.4,24.5,6.7s23.5,27.7,16.2,33s-10.4-5.6-27.3-12.6c-16.9-7.1-18.2-6.7-21-7.6
		c-2.8-0.9-7.1-6.6-1-13C341.6,182.5,344.2,182.5,344.2,182.5z"/>
	<path class="st0" d="M270.2,173.7c-3.2,13-2.6,28.2,7.5,30.1c10.1,1.9,16.6-9.8,17.1-20.2c0.5-10.4-0.5-20.2-10.5-20.4
		C275.8,163,271,170.6,270.2,173.7z"/>
	<ellipse transform="matrix(0.1745 -0.9847 0.9847 0.1745 52.8371 428.0753)" cx="281.7" cy="182.5" rx="12.7" ry="7.7"/>
</g>
<circle class="st1" cx="268.5" cy="255" r="235.2"/>
</svg>
