<svg id="Layer_1" data-name="Layer 1" xmlns="http://www.w3.org/2000/svg" viewBox="0 0 42 42"><defs><style>.cls-1{fill:#fdfdfd;}.cls-2{fill:#fafafa;}</style></defs><path d="M21,1.24a20,20,0,1,1-20,20A20,20,0,0,1,21,1.24Z"/><path class="cls-1" d="M21.91,29.49c.92-.53,1.65-1,2.39-1.37.9-.5,1.79-.62,2.37.43s0,1.63-.85,2.12c-1.4.83-2.79,1.67-4.22,2.47S19,33.38,19,31.57c0-3.11,0-6.22,0-9.33v-2L17.5,21a1.47,1.47,0,0,1-2.22-.55,1.4,1.4,0,0,1,.8-2c1.09-.56,2.16-1.16,3.25-1.7,1.63-.8,2.56-.24,2.57,1.57,0,3.26,0,6.53,0,9.79Z"/><path class="cls-2" d="M20.43,14.46a2,2,0,0,1-2-2.11,1.85,1.85,0,0,1,2-1.92,2,2,0,0,1,2.08,2A2.12,2.12,0,0,1,20.43,14.46Z"/></svg>