<?xml version="1.0" encoding="utf-8"?>
<!-- Generator: Adobe Illustrator 24.0.0, SVG Export Plug-In . SVG Version: 6.00 Build 0)  -->
<svg version="1.1" id="Layer_1" xmlns="http://www.w3.org/2000/svg" xmlns:xlink="http://www.w3.org/1999/xlink" x="0px" y="0px"
	 viewBox="0 0 512 512" style="enable-background:new 0 0 512 512;" xml:space="preserve">
<g>
	<path d="M188.7,479.4c-43.4,0-86.8,0-130.2,0c-2.5,0-4.2-0.3-4.1-5c0.1-15.2,48.9-184.7,87.3-201.3c31.8-13.8,63.9-13.5,95.7,0.5
		c30,13.3,86.9,189.1,87.3,199.6c0.2,5.3-2.8,6.2-6.2,6.2C275.1,479.4,231.9,479.4,188.7,479.4z"/>
	<path d="M279.7,376.3C304,365.1,355.6,308.3,397,336c23.3,15.6,53.4,86.7,69.8,138.3c0.1,3.8-1.2,5-4.5,5
		c-39.6-0.1-79.2-0.1-118.8-0.2c-10.7,0-21.4-0.2-32,0.1c-4.3,0.1-12.3-3.5-12.3-7.7C299.4,459.3,295.9,398.8,279.7,376.3z"/>
	<path d="M479.7,223.7c-2.7,54.1-47.5,89.5-94.7,87.1c-54.8-2.8-89.7-49-86.5-95.2c3.7-53.7,46.7-90.5,99.6-85.9
		C445.5,133.9,482,176.4,479.7,223.7z"/>
	<path d="M181.3,32.6c54.9-0.8,104.4,43.8,106.9,102.5c2.4,58.9-46.7,109.7-105.8,110c-56.7,0.3-107.1-45.9-106.9-107.5
		C75.6,81.8,122.8,32.6,181.3,32.6z"/>
</g>
</svg>
