<?xml version="1.0" encoding="utf-8"?>
<!-- Generator: Adobe Illustrator 24.0.0, SVG Export Plug-In . SVG Version: 6.00 Build 0)  -->
<svg version="1.1" id="Capa_1" xmlns="http://www.w3.org/2000/svg" xmlns:xlink="http://www.w3.org/1999/xlink" x="0px" y="0px"
	 viewBox="0 0 314.7 314.7" style="enable-background:new 0 0 314.7 314.7;" xml:space="preserve">
<style type="text/css">
	.st0{fill:#FFFFFF;}
</style>
<g>
	<path d="M157.3,296.7C80.5,296.7,18,234.1,18,157.3S80.5,18,157.3,18s139.3,62.5,139.3,139.3S234.1,296.7,157.3,296.7z"/>
	<path class="st0" d="M200.5,76.6C166,50.3,118.7,54.1,94.9,85.2c-18,23.6-17.9,57.4,0.4,84.3c2.8,4.1,8.4,5.2,12.5,2.4
		c4.1-2.8,5.2-8.4,2.4-12.5c-13.9-20.4-14.3-45.8-1-63.2c17.8-23.2,53.8-25.5,80.4-5.2c26.6,20.3,33.7,55.7,16,79
		c-13.7,17.9-38.7,23.8-62.2,15.2l11.7-55.4c1-4.9-2.1-9.6-7-10.7c-4.9-1-9.6,2.1-10.7,7l-24,114c-1,4.9,2.1,9.6,7,10.7
		c0.6,0.1,1.2,0.2,1.9,0.2c4.2,0,7.9-2.9,8.8-7.1l8.6-40.8c8.4,2.8,17,4.2,25.3,4.2c21.6,0,41.9-9.1,54.9-26.2
		C243.6,149.7,234.9,103,200.5,76.6z"/>
</g>
</svg>
