<?xml version="1.0" encoding="utf-8"?>
<!-- Generator: Adobe Illustrator 24.0.0, SVG Export Plug-In . SVG Version: 6.00 Build 0)  -->
<svg version="1.1" id="Layer_1" xmlns="http://www.w3.org/2000/svg" xmlns:xlink="http://www.w3.org/1999/xlink" x="0px" y="0px"
	 viewBox="0 0 512 512" style="enable-background:new 0 0 512 512;" xml:space="preserve">
<style type="text/css">
	.st0{fill:#FFFFFF;}
</style>
<path class="st0" d="M153.8,423.6c-47.2,0-94.4,0-141.6,0c-2.7,0-4.6-0.2-4.5-3.8c0.1-11.6-0.2-23.3,0.1-34.9
	c0.1-3.8,0.6-8,2.3-11.3c20.2-38.4,50.7-65,92.4-77.6c34.6-10.5,69.5-10.3,104.1,0.4c32.6,10.1,58.7,29.5,78.6,57.1
	c1.1,1.5,2.2,3,3.3,4.5c8,10.9,13.2,22.5,11.4,36.6c-1,7.9-0.4,16.1,0,24.1c0.2,4-1.3,4.9-5,4.9
	C247.9,423.6,200.9,423.6,153.8,423.6z"/>
<path class="st0" d="M275.2,308.5c7.6-3.4,14.5-7.2,21.8-9.7c50.8-16.9,100.1-14,146.6,13.7c26.2,15.6,45.1,38.4,59.8,64.9
	c0.6,1.1,0.8,2.6,0.8,3.9c0.1,12.5-0.1,25,0.1,37.5c0.1,3.8-1.3,5-5,5c-44.5-0.1-88.9-0.1-133.4-0.2c-12,0-24-0.2-35.9,0.1
	c-4.8,0.1-5.7-1.7-5.7-5.9c0.2-13.5,0.1-27,0-40.5c0-2.3-0.6-4.8-1.7-6.8c-11.8-22-25.9-42.2-44.7-58.9
	C277.1,310.8,276.6,310,275.2,308.5z"/>
<path class="st0" d="M434.6,193.8c-2.3,46.9-41.2,77.6-82.1,75.5c-47.5-2.4-77.7-42.5-75-82.5c3.2-46.5,40.5-78.4,86.3-74.4
	C405,116,436.6,152.8,434.6,193.8z"/>
<path class="st0" d="M153.5,112.1c40.6-0.6,77.3,32.4,79.1,75.9c1.8,43.6-34.6,81.2-78.3,81.4c-42,0.2-79.3-34-79.1-79.6
	C75.3,148.5,110.2,112.1,153.5,112.1z"/>
</svg>
