<?xml version="1.0" encoding="utf-8"?>
<!-- Generator: Adobe Illustrator 24.0.0, SVG Export Plug-In . SVG Version: 6.00 Build 0)  -->
<svg version="1.1" id="Capa_1" xmlns="http://www.w3.org/2000/svg" xmlns:xlink="http://www.w3.org/1999/xlink" x="0px" y="0px"
	 viewBox="0 0 764.2 512" style="enable-background:new 0 0 764.2 512;" xml:space="preserve">
<style type="text/css">
	.st0{fill:#FFFFFF;}
	.st1{font-family:'Baloo-Regular';}
	.st2{font-size:103px;}
</style>
<path class="st0" d="M49.6,426.7c0,0-10.5-57.7,20.9-124.7s83.6-112.4,127.2-109.5c43.6,2.9,41.8,22.4,44.4,28.5
	c-5.8,4.7-8.6,7.1-9.8,10.2c-6.5,1.4-26.1,6.6-35.5,38.7c-9.4,32-3.6,65.2,33.8,42.4c-4.5,28.3-15.5,106.5-6.3,166.2
	C168.6,482.4,101.1,474.6,49.6,426.7z"/>
<path class="st0" d="M196.5,185c16.8,0.7,34.9,5.3,46.9,13.4c12,8,28.3-20.1,32.9-27.2c4.6-7.1,9.7-58.2-40.4-36.3
	c-2-9.6-5-35.3-22.3-35.7s-31,10.7-38.3,34.5c-8-8.7-11.5-11.9-22.9-10.5c-11.4,1.4-21.6,28.9-19.5,49.3
	c1.6,15.4,4.1,26.1,28.5,19.2S185.9,184.6,196.5,185z"/>
<path class="st0" d="M232.2,242.7c4.6-0.2,2.3,70.2-21.2,67.4S212.8,243.5,232.2,242.7z"/>
<path class="st0" d="M242.5,248.2c-0.6,7.9-3.3,31-4.9,41c-1.6,10.1-4,17.7,8.4,13c12.4-4.7,9.5-12.9,8.1-25.9
	C252.7,263.3,243.3,237.5,242.5,248.2z"/>
<path class="st0" d="M246,226.4c1.3-0.6,10-3.9,17.5,4.8s16.8,19.8,11.6,23.6c-5.2,3.8-7.5-4-19.5-9c-12-5-13-4.8-15-5.4
	s-5.1-4.7-0.7-9.3C244.2,226.4,246,226.4,246,226.4z"/>
<path d="M186.4,219.3c-2.6,10.7-2.1,23.2,6.2,24.8c8.3,1.6,13.6-8,14-16.6c0.4-8.6-0.4-16.7-8.7-16.8
	C191,210.5,187,216.7,186.4,219.3z"/>
<text transform="matrix(1 0 0 1 276.5897 469.0975)" class="st0 st1 st2">VOUCHER</text>
</svg>
