<?xml version="1.0" encoding="utf-8"?>
<!-- Generator: Adobe Illustrator 24.0.0, SVG Export Plug-In . SVG Version: 6.00 Build 0)  -->
<svg version="1.1" id="Capa_1" xmlns="http://www.w3.org/2000/svg" xmlns:xlink="http://www.w3.org/1999/xlink" x="0px" y="0px"
	 viewBox="0 0 1468.9 512" style="enable-background:new 0 0 1468.9 512;" xml:space="preserve">
<style type="text/css">
	.st0{fill:#FFFFFF;}
</style>
<g>
	<path class="st0" d="M175,410.6c-3,3.7-7.7,7-14,9.8c-6.3,2.8-13.2,4.2-20.7,4.2c-9,0-16.7-1.9-23.1-5.8
		c-6.4-3.9-10.8-9.2-13.2-16.1c-2.4-7.1-5.2-16.4-8.7-27.8c-3.4-11.3-7-24-10.8-38c-3.7-14-7.6-28.8-11.6-44.5
		c-4-15.7-7.8-31.6-11.4-47.8c-3.6-16.2-7.1-32-10.3-47.6c-3.2-15.5-6-30.2-8.3-43.8c3-4.4,7.3-8.3,13-11.9
		c5.7-3.6,11.7-5.4,18.1-5.4c7.9,0,14.4,2.4,19.4,7.2c5,4.8,8.7,13.8,11.1,26.8c5.8,30.5,11.6,59.6,17.5,87.4
		c5.9,27.8,12,56.8,18.5,87h1.9c5.8-29.2,11.7-61.1,17.8-95.6s11.9-68.9,17.5-103.1c3.9-2.8,8-5.1,12.4-7c4.4-1.9,9.4-2.8,14.9-2.8
		c7.9,0,14.7,2.6,20.2,7.7c5.6,5.1,8.3,13.6,8.3,25.4c0,6.8-1.1,16.8-3.4,29.8c-2.2,13.1-5.1,27.8-8.7,44.1s-7.5,33.3-11.9,51.1
		c-4.4,17.7-8.8,34.4-13.2,50.1c-4.4,15.7-8.5,29.5-12.4,41.5C180.5,397.6,177.4,405.9,175,410.6z"/>
	<path class="st0" d="M250.2,278.1c0-24.3,2.6-45.7,7.9-64.4c5.2-18.7,12.4-34.3,21.5-46.9c9.1-12.6,19.8-22.2,32.1-28.7
		c12.3-6.5,25.6-9.8,40-9.8c14.3,0,27.7,3.3,40,9.8c12.3,6.5,23.1,16.1,32.3,28.7c9.2,12.6,16.4,28.2,21.7,46.9
		c5.2,18.7,7.9,40.1,7.9,64.4s-2.6,45.8-7.7,64.6c-5.1,18.8-12.3,34.5-21.4,47.1c-9.1,12.6-19.9,22.2-32.3,28.7
		c-12.4,6.5-25.9,9.8-40.5,9.8c-14.6,0-28-3.3-40.5-10c-12.4-6.7-23.1-16.4-32.1-29.1c-9-12.7-16.1-28.5-21.2-47.1
		C252.7,323.4,250.2,302.1,250.2,278.1z M308,278.1c0,28.3,4,49.4,11.9,63.4c7.9,14,18.5,21,31.8,21c13.5,0,24.2-7,32.1-21
		c7.9-14,11.9-35.1,11.9-63.4c0-28-3.9-49-11.7-63c-7.8-14-18.5-21-31.9-21c-13.3,0-23.9,6.9-31.9,20.8
		C312,228.8,308,249.8,308,278.1z"/>
	<path class="st0" d="M658,315.4c0,16.8-2,32.1-5.9,45.9c-4,13.8-9.7,25.7-17.2,35.4c-7.5,9.8-16.6,17.3-27.3,22.6
		c-10.7,5.3-22.8,7.9-36.3,7.9s-25.6-2.6-36.3-7.9c-10.7-5.3-19.8-12.8-27.3-22.6c-7.5-9.8-13.2-21.6-17.2-35.4
		c-4-13.8-5.9-29.1-5.9-45.9V137.3c2.4-0.6,6.1-1.5,11.2-2.6c5.1-1.1,10.1-1.6,14.8-1.6c4.9,0,9.3,0.5,13,1.6c3.7,1.1,6.9,3,9.5,5.8
		c2.6,2.8,4.5,6.7,5.8,11.7c1.3,5,1.9,11.5,1.9,19.6V314c0,14.9,2.8,26.6,8.5,35c5.7,8.4,13,12.6,22,12.6c9.2,0,16.6-4.2,22.2-12.6
		c5.6-8.4,8.3-20.1,8.3-35V137.3c2.4-0.6,6.1-1.5,11.2-2.6c5.1-1.1,10.1-1.6,14.8-1.6c4.9,0,9.3,0.5,13,1.6c3.7,1.1,6.9,3,9.5,5.8
		c2.6,2.8,4.5,6.7,5.8,11.7c1.3,5,1.9,11.5,1.9,19.6V315.4z"/>
	<path class="st0" d="M798,194.2c-16.5,0-29.1,7.3-37.9,21.9c-8.8,14.6-13.2,35.3-13.2,62c0,27.1,4.9,47.9,14.6,62.5
		c9.7,14.6,22.8,21.9,39.3,21.9c8.8,0,16.2-1.7,22.3-5.1c6.1-3.4,11.9-7.3,17.5-11.7c3.6,4.4,6.5,9.6,8.5,15.6c2,6.1,3,13.1,3,21.2
		c0,12.8-4.9,23.6-14.6,32.4c-9.7,8.9-24.6,13.3-44.5,13.3c-14.3,0-27.8-3-40.5-8.9c-12.6-5.9-23.7-15-33.1-27.3
		c-9.4-12.3-16.9-27.8-22.3-46.6c-5.5-18.8-8.2-41.3-8.2-67.4c0-24.3,2.6-45.6,7.9-64.1c5.2-18.5,12.4-34.1,21.5-46.9
		c9.1-12.7,19.7-22.4,31.9-28.9c12.2-6.5,25.3-9.8,39.2-9.8c19.7,0,34.9,4.7,45.8,14c10.8,9.3,16.2,21.3,16.2,35.9
		c0,8.1-1.4,15.1-4.2,21c-2.8,5.9-6,10.6-9.6,14c-5.6-5.3-11.5-9.8-17.8-13.5C813.6,196,806.3,194.2,798,194.2z"/>
	<path class="st0" d="M1056.1,418c-2.4,0.9-6,1.9-11.1,2.8c-5,0.9-10,1.4-14.9,1.4c-4.9,0-9.3-0.5-13-1.6c-3.7-1.1-6.9-3-9.5-5.8
		c-2.6-2.8-4.5-6.7-5.8-11.7c-1.3-5-1.9-11.5-1.9-19.6v-72.8h-61.7V418c-2.4,0.9-6.1,1.9-11.1,2.8c-5,0.9-10,1.4-14.9,1.4
		c-4.9,0-9.3-0.5-13-1.6c-3.7-1.1-6.9-3-9.5-5.8c-2.6-2.8-4.5-6.7-5.8-11.7c-1.3-5-1.9-11.5-1.9-19.6V137.3
		c2.4-0.6,6.1-1.5,11.2-2.6c5.1-1.1,10.1-1.6,14.8-1.6c4.9,0,9.3,0.5,13,1.6c3.7,1.1,6.9,3,9.5,5.8c2.6,2.8,4.5,6.7,5.8,11.7
		c1.3,5,1.9,11.5,1.9,19.6v74.6h61.7V137.3c2.4-0.6,6.1-1.5,11.2-2.6c5.1-1.1,10.1-1.6,14.8-1.6c4.9,0,9.3,0.5,13,1.6
		c3.7,1.1,6.9,3,9.5,5.8c2.6,2.8,4.5,6.7,5.8,11.7c1.3,5,1.9,11.5,1.9,19.6V418z"/>
	<path class="st0" d="M1097.9,180.6c0-13.4,2.7-23.9,8-31.7c5.3-7.8,12.6-11.7,21.8-11.7h106c1.5,3.4,2.8,7.9,4,13.5
		c1.2,5.6,1.8,11.5,1.8,17.7c0,11.8-1.8,20.2-5.3,25.2c-3.5,5-8.2,7.5-14,7.5h-67.8v43.4h72.2c1.5,3.4,2.8,7.9,4,13.3
		c1.2,5.4,1.8,11.3,1.8,17.5c0,11.8-1.7,20.2-5.1,25.2c-3.4,5-8,7.5-13.8,7.5h-59.1v49h82.5c1.5,3.4,2.8,7.9,4,13.5
		c1.2,5.6,1.8,11.5,1.8,17.7c0,11.8-1.8,20.3-5.3,25.4c-3.5,5.1-8.2,7.7-14,7.7h-93.8c-9.2,0-16.5-3.9-21.8-11.7
		c-5.4-7.8-8-18.3-8-31.7V180.6z"/>
	<path class="st0" d="M1329.7,328.5V418c-2.4,0.9-6.1,1.9-11.1,2.8c-5,0.9-10,1.4-14.9,1.4c-4.9,0-9.3-0.5-13-1.6
		c-3.7-1.1-6.9-3-9.3-5.8c-2.5-2.8-4.3-6.7-5.6-11.7c-1.3-5-1.9-11.5-1.9-19.6V163.8c0-6.5,1.2-11.6,3.7-15.2
		c2.5-3.6,5.8-6.4,10.1-8.6c7.3-3.7,15.7-6.4,25.4-8.2c9.6-1.7,19.9-2.6,30.8-2.6c29.5,0,51.8,9,66.8,27.1
		c15,18,22.5,42.4,22.5,73.2c0,19.3-3.4,35.8-10.3,49.4c-6.9,13.7-15,24.3-24.4,31.7c7.7,15.2,15.3,29.5,22.8,42.9
		c7.5,13.4,13.4,25.5,17.7,36.4c-2.1,10.9-6.1,19.2-11.7,25c-5.7,5.8-12,8.6-19.1,8.6c-4.7,0-8.8-0.8-12.2-2.3
		c-3.4-1.6-6.4-3.7-9-6.5c-2.6-2.8-4.9-6.2-7.1-10.3c-2.1-4-4.2-8.4-6.1-13.1l-27-63H1329.7z M1349.9,266.5c8.1,0,14.6-3,19.3-9.1
		c4.7-6.1,7.1-15,7.1-26.8c0-11.8-2.6-20.8-7.9-26.8c-5.2-6.1-13.5-9.1-24.9-9.1c-3.2,0-5.8,0.2-7.7,0.5c-1.9,0.3-4.1,0.8-6.4,1.4
		v70H1349.9z"/>
</g>
</svg>
