<svg id="Layer_1" data-name="Layer 1" xmlns="http://www.w3.org/2000/svg" viewBox="0 0 634 573"><defs><style>.cls-1{fill:#0a4154;}.cls-2{fill:#fff;}</style></defs><title>voucherAzul</title><path class="cls-1" d="M532,201.27c0,14.9-11.74,26.4-26.85,26.36A26.64,26.64,0,0,1,478.76,201a26.6,26.6,0,1,1,53.2.27ZM515.08,201a9.32,9.32,0,0,0-9.87-9.53,9.48,9.48,0,0,0-9.6,9.88,9.66,9.66,0,0,0,9.7,9.48A9.82,9.82,0,0,0,515.08,201Z"/><path class="cls-1" d="M532,404.92a26.26,26.26,0,0,1-26,26.52c-15,.06-27.14-11.55-27.21-26.12a26.6,26.6,0,1,1,53.19-.4Zm-16.86,0a9.32,9.32,0,0,0-9.83-9.57,9.48,9.48,0,0,0-9.65,9.83,9.66,9.66,0,0,0,9.66,9.53A9.85,9.85,0,0,0,515.1,404.88Z"/><path class="cls-1" d="M505.28,286.94a26.61,26.61,0,0,1-26.48-26.48,26.6,26.6,0,1,1,53.2,0A26.25,26.25,0,0,1,505.28,286.94Zm-9.57-26.39a9.51,9.51,0,0,0,9.49,9.62,9.8,9.8,0,0,0,9.87-9.7,9.26,9.26,0,0,0-9.7-9.67A9.39,9.39,0,0,0,495.71,260.55Z"/><path class="cls-1" d="M505.28,352.77a26.61,26.61,0,0,1-26.5-26.46,26.6,26.6,0,1,1,53.2-.07A26.26,26.26,0,0,1,505.28,352.77Zm9.77-26.6a9.68,9.68,0,1,0-19.36.34,9.55,9.55,0,0,0,9.62,9.49A9.74,9.74,0,0,0,515.05,326.17Z"/><path class="cls-1" d="M451.27,220.82c-15.85-.06-27.38-11.74-27.1-26.75.28-14.49,12.63-25.9,27.52-25.26a25.85,25.85,0,0,1,15.37,6,5.15,5.15,0,0,1,1.85,6.23,20.35,20.35,0,0,1-2.26,4.31c-3.53,5.09-5.76,5.55-11.06,2.25a9,9,0,0,0-10.2,0,8.67,8.67,0,0,0-3.28,11.06,9,9,0,0,0,10.51,4.77A16.74,16.74,0,0,0,455.8,202c5-2.83,8.21-1.67,12.16,4.45,2.43,3.78,1.53,6.81-2.93,10A22.17,22.17,0,0,1,451.27,220.82Z"/><path class="cls-1" d="M454.09,415.88C438,415.83,426.6,404.05,427,388.75c.36-14.34,13.08-25.77,27.86-24.87A23.26,23.26,0,0,1,469.75,370c1.33,1.25,2.43,4.25,1.83,5.73a24.81,24.81,0,0,1-5.62,8.14c-2.23,2.21-4.71.23-7.08-.75-2.17-.91-4.58-1.86-6.85-1.79-5.24.15-8.58,5-7.7,10.38a8.7,8.7,0,0,0,10.76,6.84,14.14,14.14,0,0,0,4.09-1.91c3-2.06,5.69-1.59,8.14.93a33.56,33.56,0,0,1,3,3.41c2.63,3.58,2.28,6.58-1.17,9.48A21.93,21.93,0,0,1,454.09,415.88Z"/><path class="cls-1" d="M428.49,257.2c.13-7.8,5.37-15.63,15.28-20.23,9.69-4.5,18.82-2.95,27.28,3.32a5.4,5.4,0,0,1,1.89,7.12,23.35,23.35,0,0,1-2.89,4.76c-3,3.78-5.11,4-9.4,1.78a15.81,15.81,0,0,0-7.13-2c-5.22.12-8.71,5.14-7.74,10.36a8.79,8.79,0,0,0,10.77,6.87,14.54,14.54,0,0,0,4.09-1.91c3-2.06,5.69-1.63,8.14.9a33.55,33.55,0,0,1,3,3.4c2.66,3.59,2.3,6.56-1.13,9.49-6.15,5.25-13.41,6.42-21.05,5C437,283.72,428.52,273.21,428.49,257.2Z"/><path class="cls-1" d="M451.14,306.3c5.44-4.76,11.39-7.16,18.76-5.07,4.67,1.32,6.7,3.73,6,8.3a20.55,20.55,0,0,1-2.13,6.37c-1.83,3.5-4.6,4.29-8.68,3.23a22.63,22.63,0,0,0-6.61-.95c-4.68.21-7.56,3.18-7.61,7.57-.08,7.23,0,14.47,0,21.71,0,6.33-2.42,8.3-9.85,8.24-7.07-.06-9.33-2.05-9.34-8.34,0-12.48-.05-25,0-37.43,0-5.75,1.19-7.55,5.14-8.52C443.43,299.78,448.25,301.31,451.14,306.3Z"/><path class="cls-1" d="M492.91,366.49c1-1.11,2-3,3.49-3.61,5.81-2.33,11.78-4.26,17.7-6.3a4,4,0,0,1,5.43,2.35,34.73,34.73,0,0,1,1.72,4.56c1,3.18,0,5.36-3.34,6.49-5.27,1.79-10.46,3.8-15.73,5.61-4.11,1.41-5.58.72-7.3-3.28C494.19,370.72,493.76,369,492.91,366.49Z"/><circle class="cls-1" cx="262.4" cy="291.49" r="141.18"/><path class="cls-2" d="M174.12,389.66s-6.49-35.78,13-77.28,51.79-69.69,78.78-67.88,25.89,13.88,27.53,17.66c-3.58,2.9-5.35,4.37-6,6.3-4,.89-16.18,4.12-22,24s-2.22,40.44,20.92,26.27c-2.76,17.54-9.61,66-3.89,103C247.9,424.19,206.07,419.37,174.12,389.66Z"/><path class="cls-2" d="M265.22,239.85c10.41.43,21.64,3.32,29.07,8.3s17.52-12.45,20.38-16.83,6-36.07-25.05-22.54c-1.22-6-3.12-21.88-13.83-22.15s-19.21,6.61-23.74,21.38c-5-5.37-7.12-7.37-14.18-6.52S224.47,219.41,225.8,232c1,9.53,2.51,16.19,17.64,11.89S258.63,239.58,265.22,239.85Z"/><path class="cls-2" d="M287.31,275.6c2.83-.11,1.43,43.49-13.16,41.77S275.28,276.09,287.31,275.6Z"/><path class="cls-2" d="M293.71,279c-.34,4.91-2.06,19.2-3.07,25.44s-2.5,11,5.18,8,5.89-8,5.05-16.05S294.16,272.42,293.71,279Z"/><path class="cls-2" d="M295.85,265.48c.81-.36,6.22-2.41,10.86,3s10.41,12.28,7.17,14.61-4.63-2.46-12.1-5.58-8-3-9.31-3.38-3.14-2.9-.45-5.76S295.85,265.48,295.85,265.48Z"/><path class="cls-1" d="M258.93,261.1c-1.61,6.61-1.32,14.36,3.83,15.35s8.45-5,8.71-10.29-.28-10.32-5.38-10.41C261.78,255.67,259.31,259.53,258.93,261.1Z"/></svg>