<?xml version="1.0" encoding="utf-8"?>
<!-- Generator: Adobe Illustrator 24.0.0, SVG Export Plug-In . SVG Version: 6.00 Build 0)  -->
<svg version="1.1" id="Layer_1" xmlns="http://www.w3.org/2000/svg" xmlns:xlink="http://www.w3.org/1999/xlink" x="0px" y="0px"
	 viewBox="0 0 512 512" style="enable-background:new 0 0 512 512;" xml:space="preserve">
<style type="text/css">
	.st0{fill:#FFFFFF;}
</style>
<g>
	<path class="st0" d="M68.2,488.6c0,0-17-137.3,91.1-157.4c8.3-49.2-10-67.5-10-67.5s-52.9-65.4-29-121.5c25.9-56.2,49.9-42,49.9-42
		s13-85,136.6-85.5c123.6-0.5,121.6,126.5,121.6,126.5l0-47l26,18l18,102.8l-34,80.2l-8,73l26,104l5.8,17.8L68.2,488.6z"/>
	<g>
		<path d="M78.3,490c-8.2,0-14.4,0-21.2,0c0-10.2-1.2-20.3,0.2-30.1c3.5-23.8,6.4-47.9,12.9-70.9c8.9-32,30.9-52.8,62.6-64.1
			c28.4-10.2,27.4-5.2,14.6-34.8c-7.2-16.7-16.4-32.4-24.9-48.5c-18.1-34.4-20.9-71.3-13.8-108.3c2.8-14.2,12.9-27.6,21.9-39.8
			c7.2-9.7,19.3-8.2,30.8-5c27.8-53.4,72.7-80.8,132-81.7c60.1-0.9,103.8,28.3,133,80.2c24-0.9,32.3,5.1,38,28.9
			c6.3,26.5,11.8,53.2,18.1,79.8c4,17,0.9,32.5-7.1,47.6c-10.8,20.4-21.6,40.8-31.7,61.5c-11.2,22.9-13.5,46.7-5,71.3
			c7.5,21.8,14.9,43.7,21.5,65.8c4.5,15.2,7.6,30.9,11.6,47.9c-9.4,0-15.8,0-22.9,0c-1.2-8.2-2.4-16.6-3.7-25.2
			c-9.9,6.5-18.5,12.9-27.9,18c-11.2,6-16.8,3.7-20.8-8.2c-8.9-26.1-17.2-52.5-25.7-78.7c-0.8-2.6-1.7-5.2-2.3-7.1
			c-7,16.2-12.7,33.2-21.6,48.3c-8.1,13.7-18.7,26.2-30,37.4c-11.4,11.4-24.1,10.9-33.7-1.9c-25.3-33.6-45.2-69.9-47-113.4
			c-0.3-6.9-0.6-13.7-0.9-20.6c-1.3-0.2-2.5-0.4-3.8-0.5c-2.1,8.7-5.6,17.3-6.1,26.1c-1.5,25.9-1.9,51.8-2.4,77.7
			c-0.6,24.8-9.7,37.6-33.5,44.2c-9,2.5-18.6,3.3-27.9,3.8c-11.1,0.6-14.6-3.2-13.7-14.5c2.2-28.6,5-57.2,7.4-85.8
			c1.3-16,2.1-32.1,3.1-49.3c-29.1,7.2-53.1,19-65.1,47.8c-9.9,24-13.3,49.2-14.6,74.8C77.9,471.3,78.3,480.1,78.3,490z M419.7,155
			c-0.7-8.4-0.7-16.8-2.2-25C404.8,60.3,339,16.2,269.2,30.5c-43.1,8.8-76.7,31.2-90.5,74c-16.3,50.6-9.9,98.9,26.1,140.8
			c5.2,6.1,10.6,12.1,15.9,18.2c17.6,19.8,29.3,42.2,34.5,68.5c2.2,11.4,7.3,22.6,12.4,33.2c4.8,9.9,13.9,15.3,24.8,17.6
			c32.2,6.8,57.6-8,63.9-41.3c6.9-36.1,21.5-68.5,38.9-100.2C410,214.4,419.5,186.1,419.7,155z M170.3,465.9
			c26.6-1.7,29.4-5.1,30.7-29c2.3-40.8-3.4-82.7,15.6-121.6c5.2-10.6,1.9-21.8-6.6-31c-7.4-7.9-14-16.6-21.2-24.7
			c-31.5-35.8-41.9-78.1-38.8-124.6c0.6-8.5,2.6-17,4.3-27.7c-5.1,1.9-9.8,2.2-11.3,4.6c-5.4,8.5-12.7,17.3-13.7,26.6
			c-3.4,32.1-3.1,64.3,12.9,94.1c8.8,16.3,17.2,32.8,25.4,49.4c8,16.2,13,33.1,12,51.5c-1.3,22.3-2.4,44.7-4,67
			C174.2,422,172.2,443.5,170.3,465.9z M412.4,458.7c20-9.8,23.7-18.4,17.6-36.6c-3.9-11.6-7-23.4-11.1-35
			c-11.9-33.3-8.5-65.4,7-96.6c9.5-19.1,20.7-37.3,29.7-56.6c4.1-8.8,7.9-19.8,6.3-28.8c-5.3-29.9-13-59.3-20-88.9
			c-0.7-2.8-2.7-5.3-5.5-10.5c-0.5,4.4-0.9,5.5-0.6,6.4c11.5,45.7,3.4,88.7-17.1,130.2c-7.9,16-16.5,31.6-24.2,47.6
			c-9,18.8-15.4,38.3-11.2,59.7c2.1,10.6,3.4,21.5,6.3,31.9C396.7,407.2,404.7,432.7,412.4,458.7z M266.3,394.6
			c-0.8,0.8-1.6,1.5-2.4,2.3c11.3,20.9,22.5,41.9,34.8,64.8c21.3-18.6,33.6-38.8,42.7-63.9C314.6,408.8,290.1,408.2,266.3,394.6z"/>
		<path d="M326.8,296.9c-2.2,8.4-3.2,17.3-6.8,25c-8.1,17.2-28.4,20.4-41.8,7c-3.6-3.6-6.8-8.2-8.7-12.9
			c-7.7-18.3-8.7-37.5-3.8-56.5c5.1-19.8,25-24.9,40.1-11C318,259.9,325.5,278.1,326.8,296.9z M287.2,263.7c-4.1,15-3,36.4,2.8,45.7
			c1.5,2.4,4.3,4.2,6.9,5.5c0.7,0.4,3.4-1.9,4.3-3.5C309,297.9,301.9,272.7,287.2,263.7z"/>
		<path d="M352.5,169.7c-4,2.9-7.7,7.4-12.1,8.3c-6.3,1.3-10.5-3.4-10.7-9.9c-0.2-6.5,3.6-11.4,10-10.5c4.5,0.7,8.4,4.9,12.6,7.5
			C352.4,166.7,352.4,168.2,352.5,169.7z"/>
		<path d="M219.7,190.8c-2.9-4-8.3-8.2-8-11.9c0.4-4,5.7-9.4,9.8-10.5c6.1-1.6,11.2,3.3,10.3,9.7c-0.6,4.4-4.7,8.4-7.2,12.5
			C223,190.7,221.3,190.8,219.7,190.8z"/>
		<path d="M270.2,228.8c-3.6-5.8-7.3-9.2-6.9-12c0.5-3.1,4.8-5.6,7.4-8.3c2.8,3,7.2,5.6,7.9,9.1C279.1,220,274.5,223.4,270.2,228.8z
			"/>
		<path d="M310.8,224.9c-3.7-5.5-7.6-8.8-7.3-11.5c0.4-3,4.7-5.5,7.3-8.2c2.9,2.8,7.4,5.3,8.1,8.6
			C319.5,216.1,314.9,219.6,310.8,224.9z"/>
	</g>
</g>
</svg>
