<?xml version="1.0" encoding="utf-8"?>
<!-- Generator: Adobe Illustrator 24.0.0, SVG Export Plug-In . SVG Version: 6.00 Build 0)  -->
<svg version="1.1" id="Capa_1" xmlns="http://www.w3.org/2000/svg" xmlns:xlink="http://www.w3.org/1999/xlink" x="0px" y="0px"
	 viewBox="0 0 281.5 281.5" style="enable-background:new 0 0 281.5 281.5;" xml:space="preserve">
<style type="text/css">
	.st0{fill:#FFFFFF;}
</style>
<g>
	<path d="M140.7,263.5C73.1,263.5,18,208.4,18,140.7S73.1,18,140.7,18s122.7,55.1,122.7,122.7S208.4,263.5,140.7,263.5z"/>
	<path class="st0" d="M163.4,181.8l-16.8,9.8v-71.8c0-3.1-1.6-6.1-4.3-7.7c-2.7-1.6-6-1.7-8.8-0.3l-24,12.4
		c-4.4,2.3-6.1,7.7-3.8,12.1c2.3,4.4,7.7,6.1,12.1,3.8l10.8-5.6v72.7c0,3.2,1.7,6.2,4.5,7.8c1.4,0.8,2.9,1.2,4.5,1.2
		c1.6,0,3.1-0.4,4.5-1.2l30.4-17.8c4.3-2.5,5.7-8,3.2-12.3S167.7,179.3,163.4,181.8z"/>
	<circle class="st0" cx="137.5" cy="86.6" r="12.4"/>
</g>
</svg>
