<?xml version="1.0" encoding="utf-8"?>
<!-- Generator: Adobe Illustrator 24.0.0, SVG Export Plug-In . SVG Version: 6.00 Build 0)  -->
<svg version="1.1" id="Layer_1" xmlns="http://www.w3.org/2000/svg" xmlns:xlink="http://www.w3.org/1999/xlink" x="0px" y="0px"
	 viewBox="0 0 512 512" style="enable-background:new 0 0 512 512;" xml:space="preserve">
<style type="text/css">
	.st0{fill:#FFFFFF;}
</style>
<path class="st0" d="M108.9,348.5c-37.4,20.1-55,50.9-56,92.2c-0.4,15.1,5,26,18.2,32.4c9.5,4.6,19.5,8.4,29.7,11.1
	c38.4,10.1,77.6,11.4,116.7,6c19.2-2.7,38.5-7.6,56.8-14.2c20.7-7.5,23.7-14.4,23-35.9c-0.1-2.6-0.1-5.3-0.2-7.9
	c-2.2-38.2-21.6-65.2-53.6-83.9C194.5,381.2,156.5,376.8,108.9,348.5z M447.8,108.8c0.6-51.8-40-93.5-91.5-94.2
	c-51.4-0.7-93.5,40.3-94.1,91.7c-0.6,51.7,39.9,93.3,91.6,94C405.4,201.1,447.2,160.4,447.8,108.8z M268.9,262.9
	c0.2-51.8-40.9-93.3-92.5-93.5c-51.6-0.2-93.3,40.8-93.2,92.8c0.1,51.7,40.3,93.6,89.9,92.4C228.8,353.1,266.5,319.9,268.9,262.9z
	 M263.7,324.5c6.8,2.2,11.2,3.9,15.8,5.1c42.2,10.6,85.1,8.6,127.8,4.6c19-1.8,37.5-6.9,54.3-16.6c9.2-5.3,15.4-12.4,16.3-23.7
	c3.6-43.6-16.3-79.1-56.4-100c-44.3,29.9-88.9,29.8-134-1c-6.2,4.8-12.4,9.5-19,14.5C289.1,247.1,287.9,285.5,263.7,324.5z"/>
<path class="st0" d="M108.9,348.5c47.5,28.3,85.5,32.7,134.5-0.3c32.1,18.7,51.4,45.7,53.6,83.9c0.2,2.6,0.1,5.3,0.2,7.9
	c0.7,21.6-2.3,28.5-23,35.9c-18.3,6.6-37.5,11.5-56.8,14.2c-39.1,5.4-78.3,4-116.7-6c-10.2-2.7-20.2-6.5-29.7-11.1
	C58,466.7,52.6,455.7,53,440.7C53.9,399.4,71.6,368.6,108.9,348.5z"/>
<path class="st0" d="M447.8,108.8c-0.5,51.5-42.4,92.2-94,91.5c-51.6-0.7-92.2-42.4-91.6-94c0.6-51.4,42.7-92.4,94.1-91.7
	C407.8,15.4,448.3,57.1,447.8,108.8z"/>
<path class="st0" d="M268.9,262.9c-2.4,56.9-40.1,90.2-95.9,91.6c-49.6,1.3-89.8-40.7-89.9-92.4c-0.1-51.9,41.6-92.9,93.2-92.8
	C228,169.6,269.1,211.1,268.9,262.9z"/>
<path class="st0" d="M263.7,324.5c24.2-39,25.4-77.4,4.8-117.1c6.6-5,12.7-9.7,19-14.5c45.1,30.7,89.7,30.9,134,1
	c40.1,20.9,60,56.4,56.4,100c-0.9,11.3-7.1,18.4-16.3,23.7c-16.8,9.7-35.3,14.8-54.3,16.6c-42.7,4-85.5,6-127.8-4.6
	C274.9,328.4,270.5,326.7,263.7,324.5z"/>
</svg>
