<?xml version="1.0" encoding="utf-8"?>
<!-- Generator: Adobe Illustrator 24.0.0, SVG Export Plug-In . SVG Version: 6.00 Build 0)  -->
<svg version="1.1" id="Capa_1" xmlns="http://www.w3.org/2000/svg" xmlns:xlink="http://www.w3.org/1999/xlink" x="0px" y="0px"
	 viewBox="0 0 512 512" style="enable-background:new 0 0 512 512;" xml:space="preserve">
<style type="text/css">
	.st0{fill:#FFFFFF;}
</style>
<g>
	<g>
		<path class="st0" d="M511.5,172.1l-29-115.9C479,42,466.2,32,451.5,32h-391C45.8,32,33,42,29.4,56.2l-29,115.9
			C0.2,173.4,0,174.7,0,176c0,44.1,34.1,80,76,80c24.4,0,46.1-12.1,60-30.9c13.9,18.8,35.6,30.9,60,30.9s46.1-12.1,60-30.9
			c13.9,18.8,35.6,30.9,60,30.9s46.1-12.1,60-30.9c13.9,18.8,35.6,30.9,60,30.9c41.9,0,76-35.9,76-80
			C512,174.7,511.8,173.4,511.5,172.1z"/>
	</g>
</g>
<g>
	<g>
		<path class="st0" d="M436,288c-21.8,0-42.5-6.7-60-18.8c-35,24.4-85,24.4-120,0c-35,24.4-85,24.4-120,0
			C118.5,281.3,97.8,288,76,288c-15.7,0-30.5-3.7-44-10v170c0,17.7,14.3,32,32,32h128V352h128v128h128c17.7,0,32-14.3,32-32V278
			C466.5,284.3,451.7,288,436,288z"/>
	</g>
</g>
</svg>
